<svg fill="none" height="19" viewBox="0 0 11 19" width="11" xmlns="http://www.w3.org/2000/svg"><path d="m9.88185.570616c.18225.188106.28465.443204.28465.709184s-.1024.52108-.28465.70918l-7.09042 7.31551 7.09042 7.31551c.17705.1892.27505.4426.27285.7056s-.1044.5146-.28469.7005c-.18026.186-.42411.2915-.67902.2938s-.5005-.0988-.68386-.2815l-7.777779-8.0247c-.182263-.18813-.284653-.44322-.284653-.70921 0-.26598.10239-.52107.284653-.70918l7.777779-8.024694c.18232-.188049.42956-.293688.68736-.293688s.50504.105638.68736.293688z" fill="currentColor"/></svg>