<svg fill="none" height="19" viewBox="0 0 11 19" width="11" xmlns="http://www.w3.org/2000/svg"><path d="m1.11815.570616c-.182262.188106-.284652.443204-.284652.709184s.10239.52108.284652.70918l7.09042 7.31551-7.09042 7.31551c-.177098.1892-.275093.4426-.272878.7056s.104463.5146.284718.7005c.18026.186.42411.2915.67902.2938s.5005-.0988.68386-.2815l7.77773-8.0247c.1823-.18813.2847-.44322.2847-.70921 0-.26598-.1024-.52107-.2847-.70918l-7.77773-8.024694c-.18232-.188049-.42956-.293688-.68736-.293688s-.50504.105638-.68736.293688z" fill="currentColor"/></svg>