<svg fill="none" height="22" width="22" xmlns="http://www.w3.org/2000/svg"><path d="M20.885 4.624a.64.64 0 00-.5-.277L7.98 3.807a.643.643 0 00-.669.62c-.015.357.26.66.613.675l11.567.503-2.274 7.162H7.097L5.266 2.718a.646.646 0 00-.396-.486L1.877 1.045a.64.64 0 00-.832.366.65.65 0 00.362.84L4.07 3.307l1.86 10.225c.056.307.322.53.632.53h.308l-.704 1.977a.543.543 0 00.065.493c.1.144.264.23.438.23h.494a1.942 1.942 0 00-.494 1.295c0 1.071.863 1.943 1.925 1.943a1.937 1.937 0 001.925-1.943 1.94 1.94 0 00-.495-1.296h4.198a1.942 1.942 0 00-.495 1.296c0 1.071.864 1.943 1.925 1.943s1.925-.872 1.925-1.943c0-.498-.188-.952-.494-1.296h.601a.537.537 0 00.535-.54c0-.298-.24-.54-.535-.54H7.43l.578-1.619h9.677a.64.64 0 00.611-.45l2.674-8.42a.651.651 0 00-.084-.568zM8.594 18.92c-.472 0-.856-.388-.856-.864s.384-.864.856-.864.855.388.855.864-.383.864-.855.864zm7.058 0c-.472 0-.855-.388-.855-.864s.383-.864.855-.864.856.388.856.864-.384.864-.856.864z" fill="currentColor"/></svg>