<svg fill="none" height="22" viewBox="0 0 22 22" width="22" xmlns="http://www.w3.org/2000/svg"><path d="m20.8846 4.62383c-.1145-.16562-.2987-.268-.4988-.27663l-12.40622-.53979c-.35595-.01572-.65341.26168-.66863.61931-.01513.35749.25924.65955.61349.67491l11.56626.50329-2.2742 7.16228h-10.1203l-1.82839-10.04903c-.04019-.22025-.18999-.40399-.39659-.4858l-2.99459-1.18751c-.33004-.130432-.70247.0332-.83209.36594-.129392.33292.03267.70907.36254.83991l2.66267 1.05586 1.86065 10.22543c.05609.3074.3215.5306.63127.5306h.30864l-.70479 1.9761c-.05899.1656-.03469.3494.0657.4932.10026.1438.26331.2294.43737.2294h.49435c-.30632.3441-.49435.7972-.49435 1.2955 0 1.0715.86377 1.9432 1.92511 1.9432 1.06133 0 1.9251-.8717 1.9251-1.9432 0-.4982-.188-.9514-.4943-1.2955h4.1972c-.3064.3441-.4944.7972-.4944 1.2955 0 1.0715.8635 1.9432 1.9251 1.9432s1.9251-.8717 1.9251-1.9432c0-.4982-.188-.9514-.4942-1.2955h.6012c.2954 0 .5347-.2416.5347-.5397 0-.2982-.2394-.5398-.5347-.5398h-10.25503l.57746-1.6193h9.67747c.2791 0 .526-.182.611-.45l2.6738-8.42065c.0614-.19218.0299-.40231-.0846-.56802zm-12.29086 14.29677c-.47187 0-.85562-.3873-.85562-.8636s.38375-.8636.85562-.8636c.47188 0 .85559.3873.85559.8636s-.38371.8636-.85559.8636zm7.05866 0c-.4719 0-.8556-.3873-.8556-.8636s.3837-.8636.8556-.8636.8556.3873.8556.8636-.3837.8636-.8556.8636z" fill="currentColor"/></svg>