<svg fill="none" height="8" viewBox="0 0 10 8" width="10" xmlns="http://www.w3.org/2000/svg"><path d="m.115385 4.38458c-.0769235-.07693-.115385-.19231-.115385-.26923 0-.07693.0384615-.19231.115385-.26923l.538461-.53847c.153846-.15384.384614-.15384.538464 0l.03846.03847 2.11538 2.26923c.07693.07692.19231.07692.26923 0l5.15385-5.346157h.03846c.15385-.153846.38462-.153846.53846 0l.53847.538462c.15388.153846.15388.384615 0 .538465l-6.15385 6.38461c-.07692.07692-.15385.11539-.26923.11539-.11539 0-.19231-.03847-.26923-.11539l-3.000002-3.23077z" fill="#fff"/></svg>