<?xml version="1.0" encoding="utf-8"?><svg xmlns="http://www.w3.org/2000/svg" xmlns:xlink="http://www.w3.org/1999/xlink">
	<symbol fill="none" viewBox="0 0 10 10" id="arrow-down">
		<path clip-rule="evenodd" d="M5.046 5.54L1.806 2.3A1 1 0 00.392 3.712l3.94 3.94a1 1 0 001.28.112.981.981 0 00.18-.144l3.91-3.908a1 1 0 10-1.415-1.414z" fill="#2d3c88" fill-rule="evenodd" />
	</symbol>
	<symbol fill="none" viewBox="0 0 11 19" id="arrow-left">
		<path d="M9.882.57a1.025 1.025 0 010 1.419l-7.09 7.315 7.09 7.316a1.024 1.024 0 01-.012 1.406c-.18.186-.424.292-.679.294s-.5-.099-.684-.282L.73 10.014a1.02 1.02 0 01-.284-.71c0-.265.102-.52.284-.709L8.507.571c.182-.188.43-.294.687-.294s.506.106.688.294z" fill="currentColor" />
	</symbol>
	<symbol fill="none" viewBox="0 0 11 19" id="arrow-right">
		<path d="M1.118.57a1.025 1.025 0 000 1.419l7.09 7.315-7.09 7.316a1.024 1.024 0 00.012 1.406c.18.186.424.292.679.294s.5-.099.684-.282l7.778-8.024a1.02 1.02 0 00.284-.71 1.02 1.02 0 00-.284-.709L2.493.571C2.31.383 2.063.277 1.806.277S1.3.383 1.118.57z" fill="currentColor" />
	</symbol>
	<symbol fill="none" viewBox="0 0 20 16" id="bars">
		<g fill="#2d3c88">
			<rect height="2" rx="1" width="20" />
			<rect height="2" rx="1" width="18" y="7" />
			<rect height="2" rx="1" width="20" y="14" />
		</g>
	</symbol>
	<symbol fill="none" viewBox="0 0 22 22" id="basket">
		<path d="M20.885 4.624a.64.64 0 00-.5-.277L7.98 3.807a.643.643 0 00-.669.62c-.015.357.26.66.613.675l11.567.503-2.274 7.162H7.097L5.266 2.718a.646.646 0 00-.396-.486L1.877 1.045a.64.64 0 00-.832.366.65.65 0 00.362.84L4.07 3.307l1.86 10.225c.056.307.322.53.632.53h.308l-.704 1.977a.543.543 0 00.065.493c.1.144.264.23.438.23h.494a1.942 1.942 0 00-.494 1.295c0 1.071.863 1.943 1.925 1.943a1.937 1.937 0 001.925-1.943 1.94 1.94 0 00-.495-1.296h4.198a1.942 1.942 0 00-.495 1.296c0 1.071.864 1.943 1.925 1.943s1.925-.872 1.925-1.943c0-.498-.188-.952-.494-1.296h.601a.537.537 0 00.535-.54c0-.298-.24-.54-.535-.54H7.43l.578-1.619h9.677a.64.64 0 00.611-.45l2.674-8.42a.651.651 0 00-.084-.568zM8.594 18.92c-.472 0-.856-.388-.856-.864s.384-.864.856-.864.855.388.855.864-.383.864-.855.864zm7.058 0c-.472 0-.855-.388-.855-.864s.383-.864.855-.864.856.388.856.864-.384.864-.856.864z" fill="currentColor" />
	</symbol>
	<symbol fill="none" viewBox="0 0 10 8" id="checkbox">
		<path d="M.115 4.385A.415.415 0 010 4.115c0-.077.038-.192.115-.269l.539-.538a.372.372 0 01.538 0l.039.038 2.115 2.27a.186.186 0 00.27 0L8.768.268h.039a.372.372 0 01.538 0l.539.539a.372.372 0 010 .538L3.73 7.731a.35.35 0 01-.27.115.35.35 0 01-.269-.115l-3-3.231z" fill="#fff" />
	</symbol>
	<symbol fill="none" viewBox="0 0 16 16" id="cross">
		<rect x="1.636" width="20" height="2" rx="1" transform="rotate(45 1.636 0)" fill="currentColor" />
		<rect x=".222" y="14.142" width="20" height="2" rx="1" transform="rotate(-45 .222 14.142)" fill="currentColor" />
	</symbol>
	<symbol fill="none" viewBox="0 0 78 78" id="delivery--guarantee">
		<g fill="currentColor">
			<path d="M62.86 34.726l-.67-.5a2.242 2.242 0 01-.719-2.684l.33-.768a5.295 5.295 0 00-.285-4.772 5.294 5.294 0 00-3.991-2.633l-.83-.099a2.241 2.241 0 01-1.964-1.964l-.099-.83A5.295 5.295 0 0052 16.485a5.292 5.292 0 00-4.773-.284l-.768.329a2.24 2.24 0 01-2.684-.72l-.5-.668c-1.018-1.36-2.576-2.14-4.275-2.14s-3.257.78-4.275 2.14l-.501.668a2.24 2.24 0 01-2.684.72l-.767-.33a5.293 5.293 0 00-4.773.285 5.293 5.293 0 00-2.632 3.991l-.1.83a2.241 2.241 0 01-1.965 1.964l-.829.1a5.293 5.293 0 00-3.99 2.632 5.294 5.294 0 00-.285 4.772l.33.768c.409.956.113 2.06-.72 2.684l-.669.5A5.295 5.295 0 0013 39.001c0 1.7.78 3.258 2.14 4.276l.67.5a2.242 2.242 0 01.719 2.684l-.33.767a5.295 5.295 0 00.284 4.773 5.293 5.293 0 003.992 2.632l.829.1a2.241 2.241 0 011.965 1.964l.099.83A5.295 5.295 0 0026 61.517a5.295 5.295 0 004.772.285l.769-.33a2.241 2.241 0 012.683.72l.5.669A5.294 5.294 0 0039 65c1.699 0 3.257-.78 4.275-2.14l.5-.669a2.24 2.24 0 012.685-.719l.768.329A5.295 5.295 0 0052 61.518a5.296 5.296 0 002.632-3.991l.1-.83a2.241 2.241 0 011.964-1.965l.83-.098A5.295 5.295 0 0061.515 52a5.294 5.294 0 00.284-4.773l-.328-.767a2.241 2.241 0 01.72-2.684l.668-.5A5.294 5.294 0 0065 39c0-1.699-.78-3.257-2.14-4.275zm-1.218 6.924l-.668.5a4.266 4.266 0 00-1.37 5.11l.329.768a3.28 3.28 0 01-.176 2.957 3.28 3.28 0 01-2.473 1.632l-.83.099a4.267 4.267 0 00-3.74 3.74l-.099.83a3.281 3.281 0 01-1.63 2.473c-.913.526-1.99.59-2.958.176l-.768-.33a4.267 4.267 0 00-5.11 1.37l-.5.669a3.281 3.281 0 01-2.65 1.326 3.281 3.281 0 01-2.649-1.326l-.5-.669a4.266 4.266 0 00-5.11-1.37l-.767.33a3.282 3.282 0 01-2.958-.176 3.28 3.28 0 01-1.63-2.473l-.1-.83a4.267 4.267 0 00-3.74-3.74l-.83-.1a3.28 3.28 0 01-2.473-1.63 3.281 3.281 0 01-.176-2.957l.33-.768a4.268 4.268 0 00-1.37-5.11l-.669-.5A3.28 3.28 0 0115.031 39a3.28 3.28 0 011.326-2.649l.669-.5a4.266 4.266 0 001.37-5.11l-.33-.768a3.281 3.281 0 01.176-2.957 3.281 3.281 0 012.473-1.631l.83-.1a4.266 4.266 0 003.74-3.74l.1-.83a3.28 3.28 0 011.63-2.472 3.28 3.28 0 012.958-.176l.767.328a4.267 4.267 0 005.11-1.369l.5-.668c.632-.843 1.597-1.326 2.65-1.326s2.018.483 2.649 1.326l.5.669a4.266 4.266 0 005.11 1.369l.768-.33a3.281 3.281 0 012.957.177 3.28 3.28 0 011.631 2.473l.1.829a4.266 4.266 0 003.74 3.74l.83.1a3.281 3.281 0 012.472 1.63c.527.913.59 1.99.176 2.958l-.329.768a4.267 4.267 0 001.37 5.11l.668.5a3.28 3.28 0 011.326 2.65 3.28 3.28 0 01-1.326 2.648z" />
			<path d="M39 18.903c-3.064 0-6.006.672-8.745 1.998a1.016 1.016 0 10.885 1.828A17.894 17.894 0 0139 20.934c9.961 0 18.065 8.105 18.065 18.066 0 9.962-8.104 18.066-18.065 18.066-9.962 0-18.066-8.104-18.066-18.066 0-4.08 1.327-7.93 3.838-11.133a1.016 1.016 0 00-1.6-1.254A19.898 19.898 0 0018.903 39c0 11.082 9.016 20.097 20.098 20.097 11.081 0 20.097-9.015 20.097-20.097 0-11.081-9.016-20.097-20.097-20.097z" />
			<path d="M24.15 33.829l-.773.986a1.016 1.016 0 101.598 1.254l.425-.541v6.717h-.68a1.015 1.015 0 100 2.031h3.356a1.016 1.016 0 000-2.031h-.645v-7.79c0-.56-.455-1.015-1.016-1.015H24.95c-.311 0-.606.143-.799.389zm8.162 10.447h.527a3.045 3.045 0 003.042-3.042v-4.923a3.045 3.045 0 00-3.042-3.042h-.527a3.045 3.045 0 00-3.042 3.042v4.923a3.045 3.045 0 003.042 3.042zm-1.01-7.965c0-.557.453-1.01 1.01-1.01h.527c.557 0 1.01.453 1.01 1.01v4.923c0 .557-.453 1.01-1.01 1.01h-.527c-.557 0-1.01-.453-1.01-1.01zm9.195 7.965a3.045 3.045 0 003.041-3.042v-4.923a3.045 3.045 0 00-3.041-3.042h-.528a3.045 3.045 0 00-3.042 3.042v4.923a3.045 3.045 0 003.042 3.042zm-1.538-3.042v-4.923c0-.557.453-1.01 1.01-1.01h.528c.557 0 1.01.453 1.01 1.01v4.923c0 .557-.453 1.01-1.01 1.01h-.528a1.01 1.01 0 01-1.01-1.01zm14.951-8.088a1.016 1.016 0 00-1.42.224l-6.453 8.874a1.015 1.015 0 101.643 1.195l6.453-8.874c.33-.454.23-1.09-.224-1.42zm-24.058-3.868c.237 0 .475-.082.667-.25a12.888 12.888 0 018.48-3.18c2.92 0 5.674.952 7.964 2.752a1.016 1.016 0 101.256-1.597 14.78 14.78 0 00-9.22-3.186 14.92 14.92 0 00-9.815 3.68 1.016 1.016 0 00.668 1.781zm-.187 21.216a14.779 14.779 0 009.218 3.185c2.345 0 4.59-.528 6.672-1.57a1.016 1.016 0 00-.908-1.817 12.763 12.763 0 01-5.764 1.356c-2.92 0-5.673-.95-7.963-2.75a1.016 1.016 0 00-1.255 1.596zm19.308-1.737a1.027 1.027 0 00-1.042-.432 1.026 1.026 0 00-.81.864c-.054.414.161.83.53 1.028.369.197.834.143 1.15-.133a1.03 1.03 0 00.172-1.327zM47.25 32.952c-1.319 0-2.391 1.072-2.391 2.39s1.072 2.39 2.39 2.39 2.39-1.072 2.39-2.39-1.072-2.39-2.39-2.39zm0 2.749a.36.36 0 110-.72.36.36 0 010 .72zm3.246 5.83a2.393 2.393 0 002.39 2.39c1.317 0 2.39-1.072 2.39-2.39s-1.073-2.39-2.39-2.39a2.393 2.393 0 00-2.39 2.39zm2.749 0a.359.359 0 11-.719 0 .359.359 0 01.718 0zM26.15 24.523c.163.392.562.645.986.625.42-.02.787-.306.917-.703.13-.402-.012-.86-.348-1.116a1.028 1.028 0 00-1.182-.039c-.4.265-.555.791-.374 1.233z" />
		</g>
	</symbol>
	<symbol fill="none" viewBox="0 0 78 78" id="delivery--package">
		<g fill="currentColor">
			<path d="M29.54 48.856a.996.996 0 100 1.992.996.996 0 000-1.992z" />
			<path d="M58.838 30.927l5.87-5.87a.996.996 0 00-.41-1.656l-14.294-4.412a9.94 9.94 0 00-9.508-6.988 9.964 9.964 0 00-9.24 6.238l-16.557 5.163a.996.996 0 00-.407 1.655l6.024 6.024-3.8 6.333a.996.996 0 00.54 1.457l5.51 1.837v15.32c0 .415.258.787.647.933 3.369 1.263 15.888 5.959 15.956 5.982.197.07.42.08.637.01l.009-.003 17.93-5.977a.996.996 0 00.68-.945v-15.73l5.877-1.847a.996.996 0 00.406-1.655zm-8.381-8.965c0-.253-.01-.506-.03-.757l11.704 3.612-4.97 4.97-8.122-2.707a9.99 9.99 0 001.418-5.118zm-17.499-2.593a7.972 7.972 0 017.538-5.376 7.953 7.953 0 017.968 7.969c0 1.85-.614 3.584-1.775 5.015a7.94 7.94 0 01-6.193 2.954 7.976 7.976 0 01-6.548-3.427 7.91 7.91 0 01-1.421-4.542c0-.89.145-1.762.431-2.593zm-16.093 5.444l13.776-4.295a9.902 9.902 0 00.998 6.003l-9.8 3.266zm1.998 12.561l3.15-5.25 15.994 5.332-3.15 5.25-15.994-5.332zm19.64 23.193l-13.945-5.229V41.372C35.53 45.01 34.994 44.9 35.3 44.9c.342 0 .67-.177.854-.484l2.35-3.915zm.997-24.714l-14.78-4.926 8.048-2.683a9.967 9.967 0 007.728 3.679 9.917 9.917 0 007.28-3.164l6.503 2.168zM56.433 55.31l-15.937 5.313v-20.88l3.531 4.413a.997.997 0 001.076.328l11.33-3.56zM45.157 42.38l-3.987-4.984 15.99-5.33 4.977 4.977z" />
			<path d="M35.865 51.067l-2.215-.831a.996.996 0 00-.7 1.865l2.216.83a.996.996 0 10.7-1.864zm0 4.255L29.89 53.08a.996.996 0 00-.7 1.865l5.977 2.241a.994.994 0 001.282-.583.996.996 0 00-.583-1.282zM46.18 18.268a.996.996 0 00-1.408 0L39.5 23.541l-1.288-1.288a.996.996 0 00-1.409 1.409l1.993 1.992a.996.996 0 001.408 0l5.977-5.977a.996.996 0 000-1.409z" />
		</g>
	</symbol>
	<symbol fill="none" viewBox="0 0 79 78" id="delivery--russia">
		<path d="M45.68 41.197v1.215a1.143 1.143 0 102.285 0v-1.215a1.143 1.143 0 10-2.286 0zM6.782 40.62a1.143 1.143 0 001.114-1.404c-.108-.459-.331-1.413-.017-1.824.223-.292.818-.47 1.673-.5 3.395-.119 4.436-1.688 5.443-3.205.54-.813 1.098-1.654 2.113-2.441 1-.775 1.43-.79 1.499-.786.063.067.51.64.345 3.158-.087 1.321.168 2.292.78 2.967.854.946 2.1.988 3.101 1.022.45.016.876.03 1.184.116.972.271 1.825.186 2.51.117.422-.043.859-.086.951.015.457.498.978.74 1.55.727 1.078-.03 1.809-.92 2.915-2.269l.315-.383a.836.836 0 01.128-.13c.157.035.508.248.745.393.845.513 2.122 1.29 3.712.608 1.75-.75 2.203-1.306 3.06-2.492.31-.43.696-.964 1.284-1.664 1.035-1.235 2.533-1.593 3.151-1.308.098.046.396.183.255 1.008-.201 1.178.026 2.065.675 2.636 1.125.988 2.878.45 4.159.056.292-.09.624-.192.77-.213.11-.01.444.071.665.126 1.108.273 3.413.842 4.557-2.427.772-2.206 1.337-2.289 3.015-2.535l.554-.084c3.721-.596 4.416-3.032 4.975-4.99.159-.556.308-1.081.517-1.562.34-.785.968-1.188 1.764-1.698 1.022-.656 2.293-1.471 2.83-3.293.256-.874.992-1.374 1.388-1.503-.012.223-.086.62-.33 1.22-.86 2.11-1.037 3.274-.63 4.154.37.806 1.114 1.053 1.559 1.2.171.057.333.11.411.165l.02.02a1.143 1.143 0 101.708-1.52 2.377 2.377 0 00-.42-.374c-.355-.246-.713-.365-1-.46a7.372 7.372 0 01-.2-.069c.003-.225.089-.832.668-2.254.668-1.639.666-2.879-.005-3.686-.497-.597-1.281-.836-2.151-.656-1.214.251-2.707 1.403-3.212 3.118-.295 1.004-.955 1.428-1.87 2.014-.942.604-2.01 1.29-2.627 2.713-.268.619-.446 1.242-.618 1.844-.514 1.803-.854 2.995-3.138 3.36-.182.03-.357.055-.525.08-1.857.272-3.612.53-4.84 4.041-.458 1.307-.781 1.228-1.853.963-.495-.122-1.007-.249-1.549-.168-.316.048-.682.16-1.104.29-.43.132-1.526.467-1.942.402a1.86 1.86 0 01.032-.526c.272-1.595-.307-2.891-1.548-3.466-1.72-.796-4.295.044-5.862 1.913a28.825 28.825 0 00-1.385 1.794c-.7.968-.866 1.197-2.108 1.73-.463.198-.832.022-1.624-.46-.785-.477-2.416-1.469-3.823.234l-.32.39c-.388.473-.851 1.038-1.147 1.31-.845-.798-1.885-.693-2.73-.609-.571.058-1.11.112-1.669-.044-.57-.159-1.154-.179-1.719-.198-.6-.02-1.28-.044-1.485-.271-.078-.086-.253-.384-.194-1.284.123-1.868.095-4.453-1.555-5.33-1.587-.843-3.38.545-3.969 1.001-1.312 1.018-2.036 2.108-2.617 2.984-.902 1.359-1.398 2.107-3.62 2.185-1.595.056-2.742.526-3.408 1.396-.97 1.268-.58 2.933-.393 3.733.124.527.593.883 1.112.883zm33.787 1.095a1.417 1.417 0 01-2.137 0 1.143 1.143 0 10-1.723 1.502 3.702 3.702 0 005.583 0 1.143 1.143 0 10-1.723-1.502zm35.664-8.25a34.86 34.86 0 00-.942-1.105c-1.384-1.577-1.798-2.17-1.397-3.153.091-.224.172-.463.24-.712a1.143 1.143 0 00-2.206-.599c-.044.16-.094.31-.15.448-.968 2.375.437 3.976 1.795 5.524.29.33.59.671.882 1.033 1.005 1.244 1.674 3.28 1.762 4.25-2.364-.615-3.684-1.712-3.926-3.263l-.063-.412c-.278-1.831-.566-3.725-2.172-4.126-1.008-.252-2.309.083-3.163.814a2.901 2.901 0 00-1.026 2.528c.028.307.07.63.113.971.153 1.192.384 2.993-.28 3.448-1.645 1.125-1.821 2.874-2.008 4.727-.04.4-.082.815-.14 1.244-.163 1.223.276 1.871.673 2.2 1 .83 2.435.355 3.587-.026.256-.085.498-.165.677-.21.414-.103.998.628 1.836 2.303.244.49.516.91.756 1.28.793 1.226 1.419 2.193.715 5.494-.307 1.44-.752 1.911-.895 1.988-.109-.07-.307-.396-.187-.786.508-1.65.496-2.928-.036-3.802a2.237 2.237 0 00-1.557-1.057c-.68-.123-1.107-.03-1.578.347-.12.095-.436.347-2.032.62-1.791.306-2.138.021-2.976-.665-.38-.312-.854-.7-1.511-1.08-1.114-.642-1.921-.468-2.403-.209-1.41.76-1.61 2.92-1.817 6.382-.03.487-.134.827-.294.956-.364.294-1.522.118-2.452-.023-1.105-.169-2.357-.36-3.5-.098-1.555.355-2.678-.049-3.58-.374-.536-.193-1-.36-1.495-.36-1.193 0-1.523 1.16-1.664 1.655-.05.172-.139.485-.213.585-.057.009-.266.022-.722-.138-2.312-.812-3.693.054-4.607.627-.493.31-.787.484-1.1.484-1.03 0-3.494-.261-4.149-2.682-.656-2.428-2.547-2.612-3.563-2.712a9.659 9.659 0 01-.358-.039c-.408-2.378-2.882-2.494-5.985-2.638-2.049-.095-2.993.457-3.26 1.906-.008.05-.02.112-.03.156a1.26 1.26 0 01-.253.087c-1.442.36-2.924-1.462-3.103-2.015-.304-.94-1.365-2.421-5.05-1.763-2.051.366-2.184 2.37-2.255 3.448-.01.158-.024.363-.044.533-1.388.12-2.03 1.573-2.464 2.612-.307-1.05-.921-2.458-2.79-3.49-.483-.267-1.064-.707-1.092-1.287a1.093 1.093 0 01.239-.716c.842.021 3.333-.056 4.371-1.628.436-.66.76-1.8-.17-3.49a4.058 4.058 0 01-.48-2.654 1.143 1.143 0 00-2.26-.341 6.35 6.35 0 00.738 4.098c.287.522.386.944.265 1.128-.322.487-1.836.667-2.52.599-1.073-.107-1.994.935-2.317 1.97-.197.63-.624 2.804 2.12 4.32 1.36.752 1.598 1.697 1.829 2.61.183.725.46 1.822 1.634 2.057 1.464.292 2.091-1.214 2.506-2.21.163-.39.457-1.095.666-1.294.612.037 1.028-.196 1.271-.403.666-.566.725-1.467.778-2.263.074-1.117.172-1.313.377-1.35 1.655-.295 2.396-.023 2.474.218.506 1.565 3.024 4.23 5.83 3.528 1.68-.42 1.882-1.52 1.979-2.048l.001-.007c.144-.025.418-.05.904-.028 1.447.067 2.7.14 3.378.358.44.141.45.245.476.495.16 1.6 1.655 1.746 2.373 1.816.95.092 1.345.165 1.58 1.033 1.095 4.056 5.14 4.371 6.353 4.371.987 0 1.723-.462 2.315-.833.82-.514 1.362-.854 2.636-.407 1.026.36 1.857.365 2.538.012.845-.438 1.142-1.27 1.31-1.842l.228.082c1.058.38 2.657.956 4.864.452.72-.165 1.7-.016 2.647.129 1.517.23 3.085.47 4.233-.458.685-.555 1.068-1.428 1.138-2.598.08-1.341.226-3.767.593-4.431.05.02.117.052.204.102.495.286.855.581 1.204.867 1.203.986 2.187 1.598 4.81 1.15 1.7-.29 2.413-.62 2.854-.923.07.188.127.762-.22 1.89-.33 1.072-.054 2.26.702 3.027.625.634 1.479.871 2.286.636.838-.245 1.953-1.088 2.513-3.715.9-4.226-.082-5.744-1.032-7.212-.227-.352-.443-.684-.63-1.06-.766-1.532-2.048-4.094-4.435-3.498-.26.065-.542.158-.84.257-.32.105-.91.3-1.284.356l.007-.06c.062-.464.106-.897.148-1.316.173-1.719.29-2.567 1.024-3.07 1.819-1.244 1.495-3.776 1.258-5.624-.041-.32-.08-.623-.104-.888a.624.624 0 01.236-.585c.327-.28.833-.367 1.064-.343.228.31.406 1.478.525 2.262l.064.42c.288 1.85 1.601 4.264 6.218 5.268.797.174 1.514-.113 1.917-.767 1.06-1.715-.65-5.685-1.934-7.275zm-44.053 6.59c-.631 0-1.143.511-1.143 1.142v1.215a1.143 1.143 0 002.286 0v-1.215c0-.631-.512-1.143-1.143-1.143z" fill="currentColor" />
	</symbol>
	<symbol fill="none" viewBox="0 0 78 78" id="delivery--shipped">
		<g fill="currentColor">
			<path d="M66.7 36.372l-1.684-6.733c.46-.098.806-.506.806-.995v-1.086a4.28 4.28 0 00-4.275-4.274H53.88v-2.24c0-1.16-.943-2.103-2.103-2.103H12.696c-1.16 0-2.104.944-2.104 2.104V39.5a1.018 1.018 0 102.036 0V21.045c0-.038.03-.068.068-.068h39.081c.037 0 .068.03.068.068V39.5a1.018 1.018 0 002.035 0v-1.154h12.012a3.33 3.33 0 013.162 2.307H65.89c-.562 0-1.018.456-1.018 1.018v2.171a3.192 3.192 0 003.189 3.19h1.153v4.477h-2.66c-.875-2.524-3.275-4.342-6.092-4.342a6.456 6.456 0 00-6.092 4.342h-.49v-7.667a1.018 1.018 0 00-2.035 0v7.667H30.729a6.456 6.456 0 00-6.092-4.342 6.455 6.455 0 00-6.091 4.342h-5.85a.068.068 0 01-.068-.068v-2.239h4.41a1.018 1.018 0 000-2.035h-9.77a1.018 1.018 0 000 2.035h3.324v2.24c0 1.16.944 2.103 2.104 2.103h5.497l-.001.067a6.453 6.453 0 006.445 6.446 6.453 6.453 0 006.446-6.446l-.002-.067h22.937l-.002.067a6.453 6.453 0 006.446 6.446 6.453 6.453 0 006.445-6.446l-.001-.067h3.326c.562 0 1.018-.456 1.018-1.018V41.67a5.368 5.368 0 00-4.55-5.299zM53.88 25.32h7.667a2.242 2.242 0 012.24 2.24v.067H53.88zm0 10.992v-6.65h9.044l1.662 6.65zM24.637 58.023c-2.432 0-4.41-1.978-4.41-4.41s1.978-4.41 4.41-4.41c2.432 0 4.41 1.978 4.41 4.41s-1.978 4.41-4.41 4.41zm35.825 0c-2.432 0-4.41-1.978-4.41-4.41s1.978-4.41 4.41-4.41 4.41 1.978 4.41 4.41-1.978 4.41-4.41 4.41zm8.753-13.027H68.06a1.155 1.155 0 01-1.153-1.154V42.69h2.306v2.307z" />
			<path d="M24.637 51.51c-1.16 0-2.103.943-2.103 2.103 0 1.16.943 2.103 2.103 2.103 1.16 0 2.103-.944 2.103-2.103 0-1.16-.943-2.104-2.103-2.104zm35.825 0c-1.16 0-2.104.943-2.104 2.103 0 1.16.944 2.103 2.104 2.103 1.16 0 2.103-.944 2.103-2.103 0-1.16-.943-2.104-2.103-2.104zM48.52 47.167H33.322a1.018 1.018 0 000 2.036H48.52a1.018 1.018 0 000-2.036zm-26.054-4.342H9.44a1.018 1.018 0 000 2.035h13.027a1.018 1.018 0 000-2.035zM41.64 29.01a1.018 1.018 0 00-1.439 0l-9.05 9.05-4.709-4.708a1.018 1.018 0 00-1.439 1.44l5.428 5.428a1.014 1.014 0 001.44 0l9.77-9.77a1.018 1.018 0 000-1.44z" />
		</g>
	</symbol>
	<symbol fill="none" viewBox="0 0 8 6" id="equally">
		<path d="M.938.888H7.21v1.106H.938zm0 3.318H7.21v1.106H.938z" fill="#333" opacity=".5" />
	</symbol>
	<symbol fill="none" viewBox="0 0 30 30" id="filetype--doc">
		<path d="M7.5 0a1.88 1.88 0 00-1.875 1.875v26.25A1.88 1.88 0 007.5 30h18.75a1.88 1.88 0 001.875-1.875V7.5l-7.5-7.5z" fill="#d5d9dc" />
		<path d="M22.5 7.5h5.625l-7.5-7.5v5.625A1.88 1.88 0 0022.5 7.5z" fill="#b0b7bd" />
		<path d="M28.125 13.125L22.5 7.5h5.625z" fill="#cad1d8" />
		<path d="M24.375 24.375a.94.94 0 01-.938.938H2.813a.94.94 0 01-.937-.938V15a.94.94 0 01.938-.938h20.625a.94.94 0 01.937.938z" fill="#339dff" />
		<path d="M5.424 22.5c-.247 0-.517-.136-.517-.465v-4.257c0-.27.27-.465.517-.465h1.717c3.425 0 3.35 5.187.066 5.187zm.473-4.273v3.358H7.14c2.024 0 2.113-3.358 0-3.358zm7.463 4.348c-1.387.06-2.827-.863-2.827-2.699 0-1.844 1.439-2.75 2.826-2.75 1.312.066 2.683.973 2.683 2.75 0 1.777-1.371 2.699-2.683 2.699zm-.083-4.475c-.84 0-1.754.593-1.754 1.777 0 1.177.915 1.777 1.754 1.777.862 0 1.784-.6 1.784-1.777 0-1.185-.922-1.777-1.784-1.777zm3.647 1.769c0-1.447.908-2.691 2.632-2.691.652 0 1.17.195 1.716.667a.51.51 0 01.023.727.51.51 0 01-.69-.023c-.307-.322-.622-.411-1.05-.411-1.153 0-1.707.817-1.707 1.731 0 .93.546 1.785 1.708 1.785.427 0 .825-.174 1.17-.48a.503.503 0 01.689.09c.12.165.179.442-.083.704-.525.488-1.154.586-1.777.586-1.813 0-2.63-1.239-2.63-2.685z" fill="#fff" />
		<path d="M23.438 25.313H5.625v.937h17.813a.94.94 0 00.937-.938v-.937a.94.94 0 01-.938.938z" fill="#cad1d8" />
	</symbol>
	<symbol fill="none" viewBox="0 0 30 30" id="filetype--file">
		<path d="M7.5 0a1.88 1.88 0 00-1.875 1.875v26.25A1.88 1.88 0 007.5 30h18.75a1.88 1.88 0 001.875-1.875V7.5l-7.5-7.5z" fill="#d5d9dc" />
		<path d="M22.5 7.5h5.625l-7.5-7.5v5.625A1.88 1.88 0 0022.5 7.5z" fill="#b0b7bd" />
		<path d="M28.125 13.125L22.5 7.5h5.625z" fill="#cad1d8" />
	</symbol>
	<symbol fill="none" viewBox="0 0 30 30" id="filetype--jpg">
		<path d="M7.5 0a1.88 1.88 0 00-1.875 1.875v26.25A1.88 1.88 0 007.5 30h18.75a1.88 1.88 0 001.875-1.875V7.5l-7.5-7.5z" fill="#d5d9dc" />
		<path d="M22.5 7.5h5.625l-7.5-7.5v5.625A1.88 1.88 0 0022.5 7.5z" fill="#b0b7bd" />
		<path d="M28.125 13.125L22.5 7.5h5.625z" fill="#cad1d8" />
		<path d="M24.375 24.375a.94.94 0 01-.938.938H2.813a.94.94 0 01-.937-.938V15a.94.94 0 01.938-.938h20.625a.94.94 0 01.937.938z" fill="#f2994a" />
		<path d="M8.318 17.763c0-.63.99-.63.99 0v2.96c0 1.178-.562 1.89-1.859 1.89-.637 0-1.169-.173-1.634-.772-.382-.458.338-1.117.728-.638.315.39.652.48.981.465.42-.015.788-.203.795-.945v-2.96zm2.308 0c0-.248.195-.518.51-.518h1.731c.975 0 1.853.653 1.853 1.903 0 1.185-.878 1.845-1.853 1.845h-1.252v.99c0 .33-.21.517-.48.517a.506.506 0 01-.51-.517zm.99.426v1.868h1.251c.503 0 .9-.443.9-.908 0-.525-.397-.96-.9-.96zm8.457 3.734c-.533.443-1.185.63-1.844.63-1.575 0-2.692-.899-2.692-2.684 0-1.513 1.178-2.69 2.758-2.69.593 0 1.244.202 1.71.66.456.449-.203 1.116-.652.72-.278-.27-.668-.473-1.058-.473-.906 0-1.783.727-1.783 1.783 0 1.11.734 1.785 1.717 1.785a1.92 1.92 0 001.124-.337v-.922h-1.124c-.668 0-.6-.915 0-.915h1.499c.277 0 .531.21.531.443v1.596c0 .135-.059.261-.186.404z" fill="#fff" />
		<path d="M23.438 25.313H5.625v.937h17.813a.94.94 0 00.937-.938v-.937a.94.94 0 01-.938.938z" fill="#cad1d8" />
	</symbol>
	<symbol fill="none" viewBox="0 0 30 30" id="filetype--pdf">
		<path d="M7.5 0a1.88 1.88 0 00-1.875 1.875v26.25A1.88 1.88 0 007.5 30h18.75a1.88 1.88 0 001.875-1.875V7.5l-7.5-7.5z" fill="#d5d9dc" />
		<path d="M22.5 7.5h5.625l-7.5-7.5v5.625A1.88 1.88 0 0022.5 7.5z" fill="#b0b7bd" />
		<path d="M28.125 13.125L22.5 7.5h5.625z" fill="#cad1d8" />
		<path d="M24.375 24.375a.94.94 0 01-.938.938H2.813a.94.94 0 01-.937-.938V15a.94.94 0 01.938-.938h20.625a.94.94 0 01.937.938z" fill="#eb0c0c" />
		<path d="M5.961 17.763c0-.248.195-.518.51-.518h1.731c.975 0 1.853.653 1.853 1.903 0 1.185-.878 1.845-1.853 1.845H6.95v.99c0 .33-.21.517-.48.517a.505.505 0 01-.509-.517zm.99.426v1.868h1.251c.503 0 .9-.443.9-.908 0-.525-.397-.96-.9-.96zm4.571 4.311c-.247 0-.517-.135-.517-.464v-4.258c0-.27.27-.465.517-.465h1.717c3.426 0 3.35 5.187.067 5.187zm.473-4.272v3.358h1.244c2.024 0 2.114-3.358 0-3.358zm5.81.06v1.191h1.911c.27 0 .54.27.54.532 0 .248-.27.45-.54.45h-1.911v1.574c0 .263-.187.464-.45.464-.33 0-.53-.201-.53-.464v-4.258c0-.27.202-.465.53-.465h2.632c.33 0 .525.196.525.465 0 .24-.195.51-.525.51h-2.182z" fill="#fff" />
		<path d="M23.438 25.313H5.625v.937h17.813a.94.94 0 00.937-.938v-.937a.94.94 0 01-.938.938z" fill="#cad1d8" />
	</symbol>
	<symbol fill="none" viewBox="0 0 30 30" id="filetype--xls">
		<path d="M7.5 0a1.88 1.88 0 00-1.875 1.875v26.25A1.88 1.88 0 007.5 30h18.75a1.88 1.88 0 001.875-1.875V7.5l-7.5-7.5z" fill="#d5d9dc" />
		<path d="M22.5 7.5h5.625l-7.5-7.5v5.625A1.88 1.88 0 0022.5 7.5z" fill="#b0b7bd" />
		<path d="M28.125 13.125L22.5 7.5h5.625z" fill="#cad1d8" />
		<path d="M24.375 24.375a.94.94 0 01-.938.938H2.813a.94.94 0 01-.937-.938V15a.94.94 0 01.938-.938h20.625a.94.94 0 01.937.938z" fill="#84bd5a" />
		<path d="M8.457 19.113l1.304-1.634c.39-.51 1.148.142.72.629A43.19 43.19 0 009.11 19.81l1.529 1.904c.412.562-.412 1.101-.817.546l-1.38-1.769L7.086 22.3c-.383.546-1.23-.068-.803-.578L7.79 19.81c-.473-.593-.93-1.17-1.387-1.702-.471-.562.405-1.14.75-.613zm3.107-1.35c0-.248.21-.458.472-.458.24 0 .443.211.443.458v3.755h2.039c.734 0 .75.982 0 .982h-2.48c-.263 0-.473-.187-.473-.457v-4.28zm4.376.675c.172-1.455 2.367-1.717 3.402-.922.51.412-.03 1.064-.48.734-.555-.351-1.814-.516-1.971.262-.203 1.23 3.058.526 3.005 2.52-.052 1.904-2.81 1.948-3.845 1.094a.554.554 0 01-.105-.735c.195-.194.411-.262.667-.052.614.42 2.197.735 2.308-.33-.096-1.109-3.214-.442-2.982-2.571z" fill="#fff" />
		<path d="M23.438 25.313H5.625v.937h17.813a.94.94 0 00.937-.938v-.937a.94.94 0 01-.938.938z" fill="#cad1d8" />
	</symbol>
	<symbol fill="none" viewBox="0 0 30 30" id="filetype--zip">
		<path d="M7.5 0a1.88 1.88 0 00-1.875 1.875v26.25A1.88 1.88 0 007.5 30h18.75a1.88 1.88 0 001.875-1.875V7.5l-7.5-7.5z" fill="#d5d9dc" />
		<path d="M22.5 7.5h5.625l-7.5-7.5v5.625A1.88 1.88 0 0022.5 7.5z" fill="#b0b7bd" />
		<path d="M28.125 13.125L22.5 7.5h5.625z" fill="#cad1d8" />
		<path d="M24.375 24.375a.94.94 0 01-.938.938H2.813a.94.94 0 01-.937-.938V15a.94.94 0 01.938-.938h20.625a.94.94 0 01.937.938z" fill="#53318d" />
		<path d="M7.772 22.5c-.472 0-.66-.456-.39-.779l2.67-3.546H7.838c-.652 0-.6-.92 0-.92h3.021c.57 0 .734.538.33.974l-2.556 3.32h2.436c.6 0 .675.952-.059.952H7.772zm4.653-4.737c0-.615.99-.638.99 0v4.28c0 .621-.99.637-.99 0zm2.319 0c0-.248.195-.518.51-.518h1.731c.975 0 1.853.653 1.853 1.903 0 1.185-.878 1.845-1.853 1.845h-1.251v.99c0 .33-.21.517-.48.517a.506.506 0 01-.51-.517zm.989.426v1.868h1.251c.503 0 .9-.443.9-.908 0-.525-.397-.96-.9-.96z" fill="#fff" />
		<path d="M23.438 25.313H5.625v.937h17.813a.94.94 0 00.937-.938v-.937a.94.94 0 01-.938.938z" fill="#cad1d8" />
	</symbol>
	<symbol fill="none" viewBox="0 0 30 40" id="marker">
		<g fill="#2d3c88">
			<path d="M15 0C6.775 0 .083 6.694.083 14.922c0 12.26 13.432 24.23 14.004 24.733a1.378 1.378 0 001.826 0c.571-.503 14.003-12.473 14.003-24.733C29.916 6.694 23.225 0 15 0zm0 36.726c-2.97-2.878-12.154-12.53-12.154-21.804 0-6.705 5.452-12.16 12.154-12.16 6.701 0 12.154 5.455 12.154 12.16 0 9.274-9.185 18.926-12.154 21.804z" />
			<path d="M15 7.97c-3.808 0-6.906 3.12-6.906 6.952 0 3.833 3.098 6.951 6.906 6.951s6.905-3.118 6.905-6.95c0-3.834-3.097-6.952-6.905-6.952zm0 11.141c-2.285 0-4.144-1.879-4.144-4.189s1.86-4.189 4.144-4.189c2.285 0 4.143 1.88 4.143 4.19S17.285 19.11 15 19.11z" />
		</g>
	</symbol>
	<symbol fill="none" viewBox="0 0 8 2" id="minus">
		<rect width="8" height="2" rx="1" fill="currentColor" />
	</symbol>
	<symbol fill="none" viewBox="0 0 8 8" id="multiply">
		<path d="M5.936 8L3.794 5.158 1.624 8H.126l2.926-3.794L.266.58h1.498l2.044 2.674L5.838.58h1.47l-2.8 3.626L7.462 8z" fill="#333" opacity=".5" />
	</symbol>
	<symbol fill="none" viewBox="0 0 25 25" id="phone">
		<g fill="#2d3c88">
			<path d="M21.376 3.275A11.108 11.108 0 0013.47 0a.886.886 0 100 1.772c2.514 0 4.877.979 6.654 2.756a9.348 9.348 0 012.756 6.654.886.886 0 101.772 0c0-2.987-1.163-5.795-3.275-7.907z" />
			<path d="M17.732 11.182a.886.886 0 101.771 0 6.042 6.042 0 00-6.034-6.034.886.886 0 000 1.772 4.268 4.268 0 014.263 4.262zm-1.96 4.518c-1.351-.07-2.04.934-2.37 1.417a.886.886 0 001.463 1c.39-.57.567-.66.806-.648.767.09 3.787 2.303 4.09 2.995.076.204.073.404-.009.647-.317.94-.842 1.602-1.518 1.912-.642.295-1.43.268-2.277-.077-3.163-1.29-5.927-3.088-8.214-5.348l-.003-.003c-2.255-2.284-4.05-5.045-5.338-8.203-.345-.848-.371-1.636-.077-2.278.31-.676.971-1.201 1.912-1.518.244-.082.443-.084.645-.009.694.304 2.907 3.324 2.997 4.082.012.248-.078.425-.647.814a.886.886 0 101 1.463c.482-.33 1.486-1.016 1.416-2.37-.077-1.416-2.83-5.165-4.146-5.649-.585-.218-1.2-.222-1.83-.01-1.416.477-2.439 1.327-2.958 2.459C.211 7.474.227 8.748.761 10.06c1.378 3.38 3.305 6.338 5.729 8.791a.686.686 0 00.018.018c2.45 2.419 5.405 4.343 8.78 5.719.677.274 1.342.412 1.979.412.6 0 1.173-.122 1.706-.366 1.131-.519 1.982-1.541 2.459-2.958.21-.629.207-1.244-.01-1.826-.485-1.32-4.233-4.073-5.65-4.15z" />
		</g>
	</symbol>
	<symbol fill="none" viewBox="0 0 10 10" id="plus">
		<rect y="4" width="10" height="2" rx="1" fill="currentColor" />
		<rect x="4" y="10" width="10" height="2" rx="1" transform="rotate(-90 4 10)" fill="currentColor" />
	</symbol>
	<symbol viewBox="0 0 34 20" id="plus-basket">
		<path d="M10.1 11.1H6.4v3.6H5.2v-3.6H1.4V9.9h3.7V6.2h1.3v3.7h3.7v1.2zm21.8-7c-.1-.2-.3-.3-.5-.3L19 3.3c-.4 0-.7.3-.7.6 0 .4.3.7.6.7l11.6.5-2.3 7.2H18.1l-1.8-10c0-.2-.2-.4-.4-.5l-3-1.2c-.3-.1-.7 0-.8.4-.1.3 0 .7.4.8l2.7 1.1L16.9 13c.1.3.3.5.6.5h.3l-.7 2c-.1.2 0 .3.1.5.1.1.3.2.4.2h.5c-.3.3-.5.8-.5 1.3 0 1.1.9 1.9 1.9 1.9s1.9-.9 1.9-1.9c0-.5-.2-1-.5-1.3h4.2c-.3.3-.5.8-.5 1.3 0 1.1.9 1.9 1.9 1.9 1.1 0 1.9-.9 1.9-1.9 0-.5-.2-1-.5-1.3h.6c.3 0 .5-.2.5-.5s-.2-.5-.5-.5H18.4l.6-1.6h9.7c.3 0 .5-.2.6-.5L32 4.7c0-.2 0-.5-.1-.6zM19.6 18.4c-.5 0-.9-.4-.9-.9s.4-.9.9-.9.9.4.9.9c-.1.5-.4.9-.9.9zm7.1 0c-.5 0-.9-.4-.9-.9s.4-.9.9-.9.9.4.9.9c-.1.5-.5.9-.9.9z" fill="currentColor" />
	</symbol>
	<symbol fill="none" viewBox="0 0 17 17" id="search">
		<path d="M15.923 15.182l-3.597-3.596a6.444 6.444 0 001.543-4.19A6.478 6.478 0 007.397.925C3.827.925.925 3.829.925 7.395s2.905 6.472 6.472 6.472c1.597 0 3.06-.581 4.191-1.543l3.597 3.596c.1.1.236.155.37.155a.525.525 0 00.37-.893zM1.97 7.396a5.43 5.43 0 015.424-5.423 5.43 5.43 0 015.424 5.423 5.432 5.432 0 01-5.424 5.426A5.432 5.432 0 011.97 7.396z" fill="currentColor" />
	</symbol>
	<symbol fill="none" viewBox="0 0 18 18" id="social--fb">
		<path d="M9 18A9 9 0 109 0a9 9 0 000 18z" fill="#3b5998" />
		<path d="M11.263 9.352H9.657v5.884H7.224V9.352H6.066V7.285h1.158V5.947c0-.957.454-2.456 2.454-2.456l1.803.008v2.007h-1.308c-.214 0-.516.107-.516.564v1.217h1.818z" fill="#fff" />
	</symbol>
	<symbol fill="none" viewBox="0 0 18 18" id="social--fb-mono">
		<path d="M9 18A9 9 0 109 0a9 9 0 000 18z" fill="#2d3c88" />
		<path d="M11.263 9.352H9.657v5.883H7.224V9.352H6.066V7.284h1.158V5.946c0-.956.454-2.455 2.454-2.455l1.803.008v2.007h-1.308c-.214 0-.516.107-.516.563v1.217h1.818z" fill="#fff" />
	</symbol>
	<symbol fill="none" viewBox="0 0 18 18" id="social--inst">
		<path clip-rule="evenodd" d="M0 9a9 9 0 1118 0A9 9 0 010 9zm11.682 5.438a2.734 2.734 0 002.732-2.731V6.342a2.734 2.734 0 00-2.732-2.731H6.318a2.734 2.734 0 00-2.732 2.73v5.366a2.734 2.734 0 002.732 2.731zm0-9.65H6.318c-.857 0-1.553.698-1.553 1.554v5.365c0 .856.696 1.553 1.553 1.553h5.364c.857 0 1.554-.697 1.554-1.553V6.342c0-.856-.697-1.553-1.554-1.553zM9 11.814a2.792 2.792 0 01-2.788-2.789A2.792 2.792 0 019 6.236a2.792 2.792 0 012.789 2.788A2.792 2.792 0 019 11.813zm2.878-5a.66.66 0 11.002-1.322.66.66 0 01-.002 1.321zM9 7.413c-.888 0-1.61.723-1.61 1.61 0 .888.722 1.61 1.61 1.61.888 0 1.61-.722 1.61-1.61 0-.887-.722-1.61-1.61-1.61z" fill="#e7112f" fill-rule="evenodd" />
	</symbol>
	<symbol fill="none" viewBox="0 0 18 18" id="social--inst-mono">
		<path clip-rule="evenodd" d="M0 9a9 9 0 1118 0A9 9 0 010 9zm11.682 5.438a2.734 2.734 0 002.732-2.731V6.342a2.734 2.734 0 00-2.732-2.731H6.318a2.734 2.734 0 00-2.732 2.73v5.366a2.734 2.734 0 002.732 2.731zm0-9.65H6.318c-.857 0-1.553.698-1.553 1.554v5.365c0 .856.696 1.553 1.553 1.553h5.364c.857 0 1.554-.697 1.554-1.553V6.342c0-.856-.697-1.553-1.554-1.553zM9 11.814a2.792 2.792 0 01-2.788-2.789A2.792 2.792 0 019 6.236a2.792 2.792 0 012.789 2.788A2.792 2.792 0 019 11.813zm2.878-5a.66.66 0 11.002-1.322.66.66 0 01-.002 1.321zM9 7.413c-.888 0-1.61.723-1.61 1.61 0 .888.722 1.61 1.61 1.61.888 0 1.61-.722 1.61-1.61 0-.887-.722-1.61-1.61-1.61z" fill="#2d3c88" fill-rule="evenodd" />
	</symbol>
	<symbol fill="none" viewBox="0 0 16 16" id="social--viber">
		<path d="M16 3.762V9.63a3.36 3.36 0 01-3.365 3.352H9.607L5.57 16v-3.018H3.888A3.36 3.36 0 01.523 9.63V3.762A3.36 3.36 0 013.888.41h8.747A3.36 3.36 0 0116 3.762z" fill="#bb6bd9" />
		<g fill="#fff">
			<path d="M10.684 9.794a.331.331 0 010 .476L9.14 11.81s-1.48-.185-3.738-2.438c-2.261-2.254-2.45-3.726-2.45-3.726L4.5 4.104a.336.336 0 01.474 0l1.666 1.66a.337.337 0 010 .476l-.713.71L7.83 8.846l.713-.71a.34.34 0 01.478 0zm1.11-2.679h-.673a3.026 3.026 0 00-3.028-3.018v-.67a3.699 3.699 0 013.701 3.688z" />
			<path d="M10.28 6.947h-.673c0-.832-.679-1.508-1.514-1.508v-.67c1.206 0 2.187.977 2.187 2.178zm3.028.336h-.673c0-2.496-2.037-4.527-4.542-4.527v-.67c2.876 0 5.215 2.331 5.215 5.197z" />
		</g>
	</symbol>
	<symbol fill="none" viewBox="0 0 20 20" id="social--viber-mono">
		<path d="M18 5.44v6.022c0 1.9-1.558 3.441-3.478 3.441h-3.13L7.216 18v-3.097H5.478c-1.92 0-3.478-1.541-3.478-3.44V5.44C2 3.54 3.558 2 5.478 2h9.044C16.442 2 18 3.542 18 5.44z" fill="#2d3c88" />
		<g fill="#fff">
			<path d="M13.16 10.794a.331.331 0 010 .476l-1.544 1.539s-1.48-.184-3.738-2.438C5.618 8.118 5.43 6.646 5.43 6.646l1.548-1.542a.336.336 0 01.474 0l1.666 1.66a.337.337 0 010 .476l-.714.71 1.904 1.895.714-.71a.34.34 0 01.478 0zm1.11-2.679h-.672a3.026 3.026 0 00-3.028-3.018v-.67c2.04 0 3.7 1.654 3.7 3.688z" />
			<path d="M12.757 7.947h-.673c0-.832-.68-1.509-1.514-1.509v-.67c1.206 0 2.187.977 2.187 2.179zm3.028.335h-.673c0-2.495-2.038-4.526-4.542-4.526v-.67c2.876 0 5.215 2.33 5.215 5.196z" />
		</g>
	</symbol>
	<symbol fill="none" viewBox="0 0 18 18" id="social--vk">
		<path d="M9 18A9 9 0 109 0a9 9 0 000 18z" fill="#4d76a1" />
		<path clip-rule="evenodd" d="M8.66 12.947h.706s.214-.023.323-.14c.1-.108.097-.31.097-.31s-.014-.949.426-1.088c.434-.138.99.916 1.58 1.32.447.307.786.24.786.24l1.578-.022s.826-.05.435-.7c-.032-.053-.228-.48-1.174-1.358-.99-.918-.857-.77.335-2.358.726-.968 1.016-1.558.926-1.811-.087-.241-.62-.178-.62-.178l-1.778.011s-.131-.018-.23.04c-.095.058-.156.192-.156.192s-.281.748-.656 1.385C10.446 9.514 10.13 9.585 10 9.501c-.301-.194-.226-.781-.226-1.198 0-1.302.197-1.845-.385-1.985-.193-.047-.335-.078-.829-.083-.634-.006-1.17.002-1.474.151-.203.099-.359.32-.264.332.118.016.384.072.525.264.182.248.176.804.176.804s.104 1.533-.245 1.723c-.24.13-.568-.136-1.273-1.355C5.644 7.53 5.37 6.84 5.37 6.84s-.052-.13-.146-.198c-.114-.084-.273-.11-.273-.11l-1.689.01s-.253.008-.346.118c-.083.098-.007.3-.007.3s1.322 3.093 2.819 4.652c1.373 1.43 2.931 1.335 2.931 1.335z" fill="#fff" fill-rule="evenodd" />
	</symbol>
	<symbol fill="none" viewBox="0 0 18 18" id="social--vk-mono">
		<path d="M9 18A9 9 0 109 0a9 9 0 000 18z" fill="#2d3c88" />
		<path clip-rule="evenodd" d="M8.66 12.947h.707s.213-.023.322-.14c.1-.108.097-.31.097-.31s-.014-.949.426-1.088c.434-.138.99.916 1.581 1.321.446.307.786.24.786.24l1.578-.023s.825-.05.434-.7c-.032-.053-.228-.48-1.174-1.357-.99-.919-.857-.77.335-2.359.726-.968 1.017-1.558.926-1.811-.087-.241-.62-.178-.62-.178l-1.777.012s-.132-.018-.23.04c-.095.057-.157.19-.157.19s-.281.75-.656 1.386C10.447 9.514 10.13 9.585 10 9.501c-.3-.194-.226-.78-.226-1.198 0-1.302.198-1.845-.384-1.985-.194-.047-.336-.078-.83-.083-.634-.006-1.17.002-1.474.151-.202.1-.358.32-.263.332.117.016.383.072.524.264.182.248.176.804.176.804S7.628 9.32 7.28 9.51c-.24.13-.569-.136-1.274-1.355-.361-.625-.634-1.315-.634-1.315s-.053-.13-.147-.198c-.114-.084-.273-.11-.273-.11l-1.688.01s-.254.008-.347.118c-.083.098-.007.3-.007.3s1.322 3.094 2.82 4.652c1.372 1.43 2.93 1.336 2.93 1.336z" fill="#fff" fill-rule="evenodd" />
	</symbol>
	<symbol fill="none" viewBox="0 0 15 15" id="social--whatsapp">
		<path d="M0 14.4l1.252-3.715A6.983 6.983 0 01.25 7.075C.25 3.169 3.453 0 7.402 0c3.95 0 7.151 3.168 7.151 7.076 0 3.908-3.202 7.076-7.151 7.076a7.18 7.18 0 01-3.327-.813z" fill="#27ae60" />
		<path d="M11.964 9.43c-.33-.617-1.548-1.323-1.548-1.323-.275-.155-.608-.173-.765.104 0 0-.395.47-.496.537-.46.308-.886.297-1.315-.129l-1-.988-.998-.989c-.43-.425-.442-.846-.13-1.301.068-.1.542-.491.542-.491.28-.156.263-.484.105-.757 0 0-.713-1.205-1.337-1.532a.69.69 0 00-.804.12l-.441.436c-1.4 1.385-.71 2.948.689 4.333l1.279 1.265 1.279 1.266c1.4 1.384 2.979 2.066 4.378.681l.442-.436a.672.672 0 00.12-.795z" fill="#fff" />
	</symbol>
	<symbol fill="none" viewBox="0 0 20 20" id="social--whatsapp-mono">
		<path d="M3 17l1.204-3.612a6.88 6.88 0 112.716 2.58z" fill="#2d3c88" />
		<path d="M14.51 12.169c-.318-.6-1.49-1.287-1.49-1.287-.265-.15-.585-.168-.736.102 0 0-.38.456-.477.522-.442.3-.852.288-1.265-.126l-.961-.96-.961-.962c-.414-.413-.425-.823-.126-1.265.066-.097.522-.477.522-.477.27-.152.253-.471.102-.736 0 0-.687-1.172-1.287-1.49a.658.658 0 00-.773.117l-.425.424c-1.346 1.346-.683 2.866.663 4.212l1.23 1.23 1.23 1.23c1.347 1.347 2.867 2.01 4.213.664l.424-.425a.659.659 0 00.116-.773z" fill="#fff" />
	</symbol>
	<symbol fill="none" viewBox="0 0 24 24" id="tiles-view-down">
		<rect x="2" y="18" width="8" height="4" rx="2" fill="currentColor" />
		<rect x="2" y="10" width="14" height="4" rx="2" fill="currentColor" />
		<rect x="2" y="2" width="20" height="4" rx="2" fill="currentColor" />
	</symbol>
	<symbol fill="none" viewBox="0 0 24 24" id="tiles-view-up">
		<rect width="8" height="4" rx="2" transform="matrix(1 0 0 -1 2 6)" fill="currentColor" />
		<rect width="14" height="4" rx="2" transform="matrix(1 0 0 -1 2 14)" fill="currentColor" />
		<rect width="20" height="4" rx="2" transform="matrix(1 0 0 -1 2 22)" fill="currentColor" />
	</symbol>
	<symbol fill="none" viewBox="0 0 15 15" id="trash">
		<g fill="#2d3c88">
			<path d="M14.375 2.5H10v-.625A1.877 1.877 0 008.125 0h-1.25A1.877 1.877 0 005 1.875V2.5H.625v1.25h.69l1.065 9.582A1.873 1.873 0 004.244 15h6.512a1.873 1.873 0 001.864-1.668l1.064-9.582h.691zM6.25 1.875a.626.626 0 01.625-.625h1.25a.626.626 0 01.625.625V2.5h-2.5zm5.127 11.319a.624.624 0 01-.62.556H4.243a.625.625 0 01-.621-.556L2.573 3.75h9.854z" />
			<path d="M6.875 5h1.25v7.5h-1.25zm2.505 7.444l.625-7.503 1.246.104-.624 7.503zM3.753 5.055L5 4.95l.624 7.503-1.246.104z" />
		</g>
	</symbol>
	<symbol fill="none" viewBox="0 0 10 10" id="view-list">
		<g fill="currentColor">
			<rect height="2" rx="1" transform="matrix(1 0 0 -1 0 2)" width="10" />
			<rect height="2" rx="1" transform="matrix(1 0 0 -1 0 6)" width="10" />
			<rect height="2" rx="1" transform="matrix(1 0 0 -1 0 10)" width="10" />
		</g>
	</symbol>
	<symbol fill="none" viewBox="0 0 10 10" id="view-tiles">
		<path d="M1.73 0H.27A.27.27 0 000 .27v1.46c0 .149.121.27.27.27h1.46A.27.27 0 002 1.73V.27A.27.27 0 001.73 0zm4 0H4.27A.27.27 0 004 .27v1.46c0 .149.121.27.27.27h1.46A.27.27 0 006 1.73V.27A.27.27 0 005.73 0zm4 0H8.27A.27.27 0 008 .27v1.46c0 .149.121.27.27.27h1.46a.27.27 0 00.27-.27V.27A.27.27 0 009.73 0zm-8 4H.27a.27.27 0 00-.27.27v1.46c0 .149.121.27.27.27h1.46A.27.27 0 002 5.73V4.27A.27.27 0 001.73 4zm4 0H4.27a.27.27 0 00-.27.27v1.46c0 .149.121.27.27.27h1.46A.27.27 0 006 5.73V4.27A.27.27 0 005.73 4zm4 0H8.27a.27.27 0 00-.27.27v1.46c0 .149.121.27.27.27h1.46a.27.27 0 00.27-.27V4.27A.27.27 0 009.73 4zm-8 4H.27a.27.27 0 00-.27.27v1.46c0 .149.121.27.27.27h1.46A.27.27 0 002 9.73V8.27A.27.27 0 001.73 8zm4 0H4.27a.27.27 0 00-.27.27v1.46c0 .149.121.27.27.27h1.46A.27.27 0 006 9.73V8.27A.27.27 0 005.73 8zm4 0H8.27a.27.27 0 00-.27.27v1.46c0 .149.121.27.27.27h1.46a.27.27 0 00.27-.27V8.27A.27.27 0 009.73 8z" fill="currentColor" />
	</symbol>
</svg>