<svg fill="none" height="40" width="30" xmlns="http://www.w3.org/2000/svg"><g fill="#2d3c88"><path d="M15 0C6.775 0 .083 6.694.083 14.922c0 12.26 13.432 24.23 14.004 24.733a1.378 1.378 0 001.826 0c.571-.503 14.003-12.473 14.003-24.733C29.916 6.694 23.225 0 15 0zm0 36.726c-2.97-2.878-12.154-12.53-12.154-21.804 0-6.705 5.452-12.16 12.154-12.16 6.701 0 12.154 5.455 12.154 12.16 0 9.274-9.185 18.926-12.154 21.804z"/><path d="M15 7.97c-3.808 0-6.906 3.12-6.906 6.952 0 3.833 3.098 6.951 6.906 6.951s6.905-3.118 6.905-6.95c0-3.834-3.097-6.952-6.905-6.952zm0 11.141c-2.285 0-4.144-1.879-4.144-4.189s1.86-4.189 4.144-4.189c2.285 0 4.143 1.88 4.143 4.19S17.285 19.11 15 19.11z"/></g></svg>