<svg fill="none" height="40" viewBox="0 0 30 40" width="30" xmlns="http://www.w3.org/2000/svg"><g fill="#2d3c88"><path d="m14.9997 0c-8.22489 0-14.9162039 6.69401-14.9162039 14.9222 0 12.2594 13.4315039 24.2296 14.0035039 24.7333.2607.2296.5867.3447.9127.3447.3261 0 .652-.1149.9129-.3447.5717-.5036 14.0034-12.4738 14.0034-24.7333 0-8.22819-6.6914-14.9222-14.9163-14.9222zm0 36.7258c-2.9695-2.8776-12.15391-12.5292-12.15391-21.8036 0-6.70496 5.45225-12.15991 12.15391-12.15991 6.7017 0 12.154 5.45495 12.154 12.15991 0 9.2743-9.1844 18.9259-12.154 21.8036z"/><path d="m14.9998 7.9707c-3.8078 0-6.90556 3.1184-6.90556 6.9514 0 3.8331 3.09776 6.9514 6.90556 6.9514 3.8079 0 6.9056-3.1183 6.9056-6.9514 0-3.833-3.0977-6.9514-6.9056-6.9514zm0 11.1405c-2.2847 0-4.1434-1.8792-4.1434-4.1891 0-2.3098 1.8587-4.1891 4.1434-4.1891 2.2848 0 4.1435 1.8792 4.1435 4.1891s-1.8587 4.1891-4.1435 4.1891z"/></g></svg>