<svg fill="none" height="25" width="25" xmlns="http://www.w3.org/2000/svg"><g fill="#2d3c88"><path d="M21.376 3.275A11.108 11.108 0 0013.47 0a.886.886 0 100 1.772c2.514 0 4.877.979 6.654 2.756a9.348 9.348 0 012.756 6.654.886.886 0 101.772 0c0-2.987-1.163-5.795-3.275-7.907z"/><path d="M17.732 11.182a.886.886 0 101.771 0 6.042 6.042 0 00-6.034-6.034.886.886 0 000 1.772 4.268 4.268 0 014.263 4.262zm-1.96 4.518c-1.351-.07-2.04.934-2.37 1.417a.886.886 0 001.463 1c.39-.57.567-.66.806-.648.767.09 3.787 2.303 4.09 2.995.076.204.073.404-.009.647-.317.94-.842 1.602-1.518 1.912-.642.295-1.43.268-2.277-.077-3.163-1.29-5.927-3.088-8.214-5.348l-.003-.003c-2.255-2.284-4.05-5.045-5.338-8.203-.345-.848-.371-1.636-.077-2.278.31-.676.971-1.201 1.912-1.518.244-.082.443-.084.645-.009.694.304 2.907 3.324 2.997 4.082.012.248-.078.425-.647.814a.886.886 0 101 1.463c.482-.33 1.486-1.016 1.416-2.37-.077-1.416-2.83-5.165-4.146-5.649-.585-.218-1.2-.222-1.83-.01-1.416.477-2.439 1.327-2.958 2.459C.211 7.474.227 8.748.761 10.06c1.378 3.38 3.305 6.338 5.729 8.791a.686.686 0 00.018.018c2.45 2.419 5.405 4.343 8.78 5.719.677.274 1.342.412 1.979.412.6 0 1.173-.122 1.706-.366 1.131-.519 1.982-1.541 2.459-2.958.21-.629.207-1.244-.01-1.826-.485-1.32-4.233-4.073-5.65-4.15z"/></g></svg>