<svg fill="none" height="25" width="25" xmlns="http://www.w3.org/2000/svg"><g fill="#2d3c88"><path d="m21.3762 3.27496c-2.112-2.11203-4.9202-3.27507813-7.9069-3.27496-.4895 0-.886.3967-.886.886018 0 .489322.3967.886022.886.886022 2.5134-.00012 4.8765.97863 6.6538 2.75598 1.7775 1.77736 2.7563 4.14054 2.7562 6.65408 0 .4894.3965.8861.886.8861.4893 0 .886-.3967.886-.8859.0001-2.98711-1.1629-5.79531-3.2751-7.90734z"/><path d="m17.7315 11.1823c0 .4894.3967.8861.8861.8859.4893 0 .8859-.3967.8859-.886-.0002-3.32669-2.7072-6.03353-6.0341-6.03401h-.0001c-.4893 0-.8859.39659-.886.8859 0 .48932.3965.88602.8859.88614 2.35.00035 4.2621 1.91226 4.2623 4.26207zm-1.9604 4.5175c-1.3505-.0699-2.0385.9345-2.3685 1.4169-.2763.4039-.1728.9553.2311 1.2316s.9552.1728 1.2316-.2311c.3898-.57.5664-.6597.806-.6483.7668.0901 3.787 2.3033 4.0894 2.9953.0758.2038.073.4036-.0084.6466-.3171.941-.842 1.6024-1.5182 1.9124-.6424.2945-1.43.2678-2.2771-.077-3.1634-1.2893-5.927-3.0886-8.21414-5.3481-.00095-.0009-.00189-.0018-.00272-.0027-2.25474-2.2849-4.05075-5.045-5.33796-8.20346-.34484-.84786-.37154-1.63559-.07703-2.27789.30999-.67621.97132-1.20109 1.91156-1.51781.24383-.08175.44324-.08435.64514-.00921.69452.30349 2.90755 3.32351 2.99687 4.0817.01275.24856-.07762.42507-.64715.81417-.40403.276-.50787.8273-.23179 1.2314.27597.404.82719.5077 1.23133.2317.48271-.3296 1.48686-1.0157 1.41716-2.37083-.07679-1.4155-2.8303-5.16407-4.14597-5.64783-.58513-.21808-1.20062-.22186-1.83004-.01063-1.41622.47691-2.43903 1.32725-2.957887 2.45899-.503258 1.09795-.48731 2.37181.046664 3.6845 1.377583 3.3801 3.304963 6.3377 5.728523 8.7908.0059.006.01193.0119.01807.0177 2.45132 2.419 5.40547 4.3429 8.78107 5.7188.6759.2749 1.3416.4125 1.9783.4125.5994 0 1.1733-.1219 1.7056-.3659 1.1319-.5188 1.9821-1.5415 2.4594-2.9586.2107-.6283.2073-1.2435-.0091-1.8259-.4855-1.3193-4.234-4.0728-5.6518-4.1498z"/></g></svg>