<svg viewBox="0 0 34 20" xmlns="http://www.w3.org/2000/svg"><path d="M10.1 11.1H6.4v3.6H5.2v-3.6H1.4V9.9h3.7V6.2h1.3v3.7h3.7v1.2zm21.8-7c-.1-.2-.3-.3-.5-.3L19 3.3c-.4 0-.7.3-.7.6 0 .4.3.7.6.7l11.6.5-2.3 7.2H18.1l-1.8-10c0-.2-.2-.4-.4-.5l-3-1.2c-.3-.1-.7 0-.8.4-.1.3 0 .7.4.8l2.7 1.1L16.9 13c.1.3.3.5.6.5h.3l-.7 2c-.1.2 0 .3.1.5.1.1.3.2.4.2h.5c-.3.3-.5.8-.5 1.3 0 1.1.9 1.9 1.9 1.9s1.9-.9 1.9-1.9c0-.5-.2-1-.5-1.3h4.2c-.3.3-.5.8-.5 1.3 0 1.1.9 1.9 1.9 1.9 1.1 0 1.9-.9 1.9-1.9 0-.5-.2-1-.5-1.3h.6c.3 0 .5-.2.5-.5s-.2-.5-.5-.5H18.4l.6-1.6h9.7c.3 0 .5-.2.6-.5L32 4.7c0-.2 0-.5-.1-.6zM19.6 18.4c-.5 0-.9-.4-.9-.9s.4-.9.9-.9.9.4.9.9c-.1.5-.4.9-.9.9zm7.1 0c-.5 0-.9-.4-.9-.9s.4-.9.9-.9.9.4.9.9c-.1.5-.5.9-.9.9z" fill="currentColor"/></svg>