<svg viewBox="0 0 34 20" xmlns="http://www.w3.org/2000/svg">
<path d="M10.1,11.1H6.4v3.6H5.2v-3.6H1.4V9.9h3.7V6.2h1.3v3.7h3.7V11.1z" fill="currentColor"/>
<path d="M31.9,4.1c-0.1-0.2-0.3-0.3-0.5-0.3L19,3.3c-0.4,0-0.7,0.3-0.7,0.6c0,0.4,0.3,0.7,0.6,0.7l11.6,0.5l-2.3,7.2H18.1l-1.8-10
	c0-0.2-0.2-0.4-0.4-0.5l-3-1.2c-0.3-0.1-0.7,0-0.8,0.4c-0.1,0.3,0,0.7,0.4,0.8l2.7,1.1L16.9,13c0.1,0.3,0.3,0.5,0.6,0.5h0.3l-0.7,2
	c-0.1,0.2,0,0.3,0.1,0.5c0.1,0.1,0.3,0.2,0.4,0.2h0.5c-0.3,0.3-0.5,0.8-0.5,1.3c0,1.1,0.9,1.9,1.9,1.9s1.9-0.9,1.9-1.9
	c0-0.5-0.2-1-0.5-1.3h4.2c-0.3,0.3-0.5,0.8-0.5,1.3c0,1.1,0.9,1.9,1.9,1.9c1.1,0,1.9-0.9,1.9-1.9c0-0.5-0.2-1-0.5-1.3h0.6
	c0.3,0,0.5-0.2,0.5-0.5c0-0.3-0.2-0.5-0.5-0.5H18.4l0.6-1.6h9.7c0.3,0,0.5-0.2,0.6-0.5L32,4.7C32,4.5,32,4.2,31.9,4.1z M19.6,18.4
	c-0.5,0-0.9-0.4-0.9-0.9c0-0.5,0.4-0.9,0.9-0.9c0.5,0,0.9,0.4,0.9,0.9C20.4,18,20.1,18.4,19.6,18.4z M26.7,18.4
	c-0.5,0-0.9-0.4-0.9-0.9c0-0.5,0.4-0.9,0.9-0.9c0.5,0,0.9,0.4,0.9,0.9C27.5,18,27.1,18.4,26.7,18.4z" fill="currentColor"/>
</svg>
