<svg fill="none" height="17" viewBox="0 0 17 17" width="17" xmlns="http://www.w3.org/2000/svg"><path d="m15.9233 15.182-3.5968-3.596c.9621-1.1302 1.5429-2.59339 1.5429-4.19021 0-3.57029-2.9045-6.47079-6.47219-6.47079-3.57104 0-6.47221 2.90388-6.47221 6.47079s2.90452 6.47081 6.47221 6.47081c1.59717 0 3.06069-.5807 4.19109-1.5426l3.5969 3.596c.1004.1005.2359.155.369.155.1316 0 .2679-.0502.3696-.1555.2018-.2023.2016-.5354-.0005-.7375zm-13.95342-7.78621c0-2.9918 2.43477-5.42279 5.424-5.42279 2.99252 0 5.42402 2.43426 5.42402 5.42279 0 2.98861-2.4316 5.42611-5.42402 5.42611-2.98917 0-5.424-2.4343-5.424-5.42611z" fill="currentColor" stroke-width=".15"/></svg>