<svg fill="none" height="15" viewBox="0 0 15 15" width="15" xmlns="http://www.w3.org/2000/svg"><g fill="#2d3c88"><path d="m14.375 2.5h-4.375v-.625c-.00056-.49711-.19828-.973699-.54979-1.325209-.35151-.351509-.8281-.54923269-1.32521-.549791h-1.25c-.49711.00055831-.9737.198282-1.32521.549791-.35151.35151-.54923.828099-.54979 1.325209v.625h-4.375v1.25h.69063l1.0646 9.5821c.05058.4588.26875.8827.61267 1.1905s.78938.4778 1.25093.4774h6.51237c.4615.0004.907-.1696 1.2509-.4774.344-.3078.5621-.7318.6127-1.1906l1.0646-9.582h.6906zm-8.125-.625c.00019-.1657.06609-.32457.18326-.44174s.27604-.18307.44174-.18326h1.25c.1657.00019.32457.06609.44174.18326s.18307.27604.18326.44174v.625h-2.5zm5.1273 11.319c-.0168.1529-.0895.2942-.2042.3968-.1146.1027-.2631.1593-.4169.1592h-6.51237c-.15384.0001-.30232-.0565-.41695-.1591-.11464-.1026-.18736-.2439-.20422-.3968l-1.04938-9.4441h9.85342z"/><path d="m6.875 5h1.25001v7.5h-1.25001z"/><path d="m9.38037 12.4443.62463-7.50342 1.2463.10375-.6247 7.50347z"/><path d="m3.75342 5.05469 1.24625-.10375.62466 7.50346-1.24625.1037z"/></g></svg>