<svg fill="none" height="15" width="15" xmlns="http://www.w3.org/2000/svg"><g fill="#2d3c88"><path d="M14.375 2.5H10v-.625A1.877 1.877 0 008.125 0h-1.25A1.877 1.877 0 005 1.875V2.5H.625v1.25h.69l1.065 9.582A1.873 1.873 0 004.244 15h6.512a1.873 1.873 0 001.864-1.668l1.064-9.582h.691zM6.25 1.875a.626.626 0 01.625-.625h1.25a.626.626 0 01.625.625V2.5h-2.5zm5.127 11.319a.624.624 0 01-.62.556H4.243a.625.625 0 01-.621-.556L2.573 3.75h9.854z"/><path d="M6.875 5h1.25v7.5h-1.25zm2.505 7.444l.625-7.503 1.246.104-.624 7.503zM3.753 5.055L5 4.95l.624 7.503-1.246.104z"/></g></svg>