<svg fill="none" height="10" width="10" xmlns="http://www.w3.org/2000/svg"><path d="M1.73 0H.27A.27.27 0 000 .27v1.46c0 .149.121.27.27.27h1.46A.27.27 0 002 1.73V.27A.27.27 0 001.73 0zm4 0H4.27A.27.27 0 004 .27v1.46c0 .149.121.27.27.27h1.46A.27.27 0 006 1.73V.27A.27.27 0 005.73 0zm4 0H8.27A.27.27 0 008 .27v1.46c0 .149.121.27.27.27h1.46a.27.27 0 00.27-.27V.27A.27.27 0 009.73 0zm-8 4H.27a.27.27 0 00-.27.27v1.46c0 .149.121.27.27.27h1.46A.27.27 0 002 5.73V4.27A.27.27 0 001.73 4zm4 0H4.27a.27.27 0 00-.27.27v1.46c0 .149.121.27.27.27h1.46A.27.27 0 006 5.73V4.27A.27.27 0 005.73 4zm4 0H8.27a.27.27 0 00-.27.27v1.46c0 .149.121.27.27.27h1.46a.27.27 0 00.27-.27V4.27A.27.27 0 009.73 4zm-8 4H.27a.27.27 0 00-.27.27v1.46c0 .149.121.27.27.27h1.46A.27.27 0 002 9.73V8.27A.27.27 0 001.73 8zm4 0H4.27a.27.27 0 00-.27.27v1.46c0 .149.121.27.27.27h1.46A.27.27 0 006 9.73V8.27A.27.27 0 005.73 8zm4 0H8.27a.27.27 0 00-.27.27v1.46c0 .149.121.27.27.27h1.46a.27.27 0 00.27-.27V8.27A.27.27 0 009.73 8z" fill="currentColor"/></svg>