<svg fill="none" height="55" viewBox="0 0 55 55" width="55" xmlns="http://www.w3.org/2000/svg" xmlns:xlink="http://www.w3.org/1999/xlink"><clipPath id="a"><path d="m0 0h55v55h-55z"/></clipPath><g clip-path="url(#a)" fill="#2d3c88"><path d="m47.6666 7.33301h-40.33323c-4.04347 0-7.33337 3.28989-7.33337 7.33329v25.6666c0 4.0435 3.2899 7.3334 7.33337 7.3334h40.33333c4.0435 0 7.3334-3.2899 7.3334-7.3334v-25.6666c-.0001-4.0434-3.29-7.33329-7.3335-7.33329zm5.5 32.99999c0 3.0333-2.4667 5.5-5.5 5.5h-40.33323c-3.03231 0-5.5-2.4667-5.5-5.5v-25.6667c0-3.0333 2.46769-5.50003 5.5-5.50003h40.33333c3.0333 0 5.5 2.46673 5.5 5.50003v25.6667z"/><path d="m19.9741 12.834h-11.5316c-1.6225 0-2.9425 1.32-2.9425 2.9425v6.9484c0 1.6225 1.32 2.9424 2.9425 2.9424h11.5316c1.6225 0 2.9425-1.3199 2.9425-2.9424v-6.9484c0-1.6225-1.32-2.9425-2.9425-2.9425zm1.1093 9.8907c0 .6115-.4978 1.1092-1.1092 1.1092h-11.5317c-.61144 0-1.10913-.4978-1.10913-1.1092v-6.9483c0-.6115.49779-1.1092 1.10913-1.1092h11.5316c.6115 0 1.1092.4978 1.1092 1.1092v6.9483z"/><path d="m11.0004 13.75h-1.83341v11h1.83341z"/><path d="m22.0001 16.5h-11.9166v1.8334h11.9166z"/><path d="m22.0001 20.167h-11.9166v1.8334h11.9166z"/><path d="m11.9166 32.083h-3.6666c-1.51615 0-2.75 1.2339-2.75 2.75 0 1.5162 1.23385 2.75 2.75 2.75h3.6666c1.5162 0 2.75-1.2338 2.75-2.75 0-1.5161-1.2338-2.75-2.75-2.75zm0 3.6666h-3.6666c-.50596 0-.91663-.4115-.91663-.9166s.41067-.9166.91663-.9166h3.6666c.506 0 .9167.4115.9167.9166.0001.5051-.4106.9166-.9167.9166z"/><path d="m23.8336 32.083h-3.6666c-1.5162 0-2.75 1.2339-2.75 2.75 0 1.5162 1.2338 2.75 2.75 2.75h3.6666c1.5162 0 2.75-1.2338 2.75-2.75 0-1.5161-1.2338-2.75-2.75-2.75zm0 3.6666h-3.6666c-.506 0-.9166-.4115-.9166-.9166s.4106-.9166.9166-.9166h3.6666c.506 0 .9167.4115.9167.9166s-.4107.9166-.9167.9166z"/><path d="m46.7501 32.083h-3.6666c-1.5162 0-2.75 1.2339-2.75 2.75 0 1.5162 1.2338 2.75 2.75 2.75h3.6666c1.5162 0 2.75-1.2338 2.75-2.75 0-1.5161-1.2338-2.75-2.75-2.75zm0 3.6666h-3.6666c-.5051 0-.9166-.4115-.9166-.9166s.4115-.9166.9166-.9166h3.6666c.5051 0 .9167.4115.9167.9166s-.4116.9166-.9167.9166z"/><path d="m34.8331 32.083h-3.6666c-1.5161 0-2.75 1.2339-2.75 2.75 0 1.5162 1.2339 2.75 2.75 2.75h3.6666c1.5162 0 2.75-1.2338 2.75-2.75 0-1.5161-1.2338-2.75-2.75-2.75zm0 3.6666h-3.6666c-.5051 0-.9166-.4115-.9166-.9166s.4115-.9166.9166-.9166h3.6666c.5051 0 .9167.4115.9167.9166s-.4116.9166-.9167.9166z"/><path d="m13.7498 40.334h-6.41667c-.50595 0-.91663.4107-.91663.9166 0 .506.41068.9166.91663.9166h6.41667c.5059 0 .9166-.4106.9166-.9166 0-.5059-.4107-.9166-.9166-.9166z"/><path d="m33.9163 40.334h-14.6667c-.5059 0-.9166.4107-.9166.9166 0 .506.4107.9166.9166.9166h14.6667c.5059 0 .9166-.4106.9166-.9166 0-.5059-.4106-.9166-.9166-.9166z"/><path d="m48.5835 40.334h-10.0834c-.5059 0-.9166.4107-.9166.9166 0 .506.4107.9166.9166.9166h10.0834c.506 0 .9166-.4106.9166-.9166 0-.5059-.4106-.9166-.9166-.9166z"/><path d="m44 14.666c-3.0333 0-5.5 2.4667-5.5 5.5s2.4667 5.5 5.5 5.5 5.5-2.4667 5.5-5.5-2.4667-5.5-5.5-5.5zm0 9.1668c-2.0222 0-3.6666-1.6446-3.6666-3.6667s1.6444-3.6667 3.6666-3.6667 3.6666 1.6445 3.6666 3.6666-1.6444 3.6668-3.6666 3.6668z"/><path d="m40.3336 20.166c0-.7783.254-1.5309.7352-2.1771l.4079-.5472-.4079-.5482c-1.0551-1.4153-2.6592-2.2275-4.4018-2.2275-3.0333 0-5.5 2.4667-5.5 5.5s2.4667 5.5 5.5 5.5c1.7426 0 3.3467-.8122 4.4018-2.2275l.4079-.5482-.408-.5472c-.4812-.6462-.7351-1.3988-.7351-2.1771zm-1.1431 2.6418c-.6792.6572-1.5711 1.0248-2.5235 1.0248-2.0222 0-3.6666-1.6445-3.6666-3.6666s1.6445-3.6666 3.6666-3.6666c.9524 0 1.8443.3676 2.5235 1.0248-.4537.8122-.6902 1.7133-.6902 2.6418 0 .9286.2365 1.8297.6902 2.6418z"/></g></svg>