<svg fill="none" height="55" width="55" xmlns="http://www.w3.org/2000/svg"><clipPath id="a"><path d="M0 0h55v55H0z"/></clipPath><g clip-path="url(#a)" fill="#2d3c88"><path d="M47.667 7.333H7.333C3.29 7.333 0 10.623 0 14.666v25.667c0 4.043 3.29 7.333 7.333 7.333h40.334c4.043 0 7.333-3.29 7.333-7.333V14.666c0-4.043-3.29-7.333-7.333-7.333zm5.5 33c0 3.033-2.467 5.5-5.5 5.5H7.333a5.506 5.506 0 01-5.5-5.5V14.666c0-3.033 2.468-5.5 5.5-5.5h40.334c3.033 0 5.5 2.467 5.5 5.5v25.667z"/><path d="M19.974 12.834H8.443A2.946 2.946 0 005.5 15.776v6.949a2.946 2.946 0 002.943 2.942h11.531a2.946 2.946 0 002.943-2.942v-6.949a2.946 2.946 0 00-2.943-2.942zm1.11 9.89a1.11 1.11 0 01-1.11 1.11H8.442a1.11 1.11 0 01-1.109-1.11v-6.948c0-.611.498-1.109 1.11-1.109h11.531c.612 0 1.11.498 1.11 1.11v6.948z"/><path d="M11 13.75H9.167v11H11z"/><path d="M22 16.5H10.083v1.833H22zm0 3.667H10.083V22H22zM11.917 32.083H8.25a2.753 2.753 0 00-2.75 2.75 2.753 2.753 0 002.75 2.75h3.667a2.753 2.753 0 002.75-2.75 2.753 2.753 0 00-2.75-2.75zm0 3.667H8.25a.918.918 0 010-1.834h3.667a.918.918 0 010 1.834zm11.917-3.667h-3.667a2.753 2.753 0 00-2.75 2.75 2.753 2.753 0 002.75 2.75h3.667a2.753 2.753 0 002.75-2.75 2.753 2.753 0 00-2.75-2.75zm0 3.667h-3.667a.917.917 0 010-1.834h3.667a.918.918 0 010 1.834zm22.916-3.667h-3.666a2.753 2.753 0 00-2.75 2.75 2.753 2.753 0 002.75 2.75h3.666a2.753 2.753 0 002.75-2.75 2.753 2.753 0 00-2.75-2.75zm0 3.667h-3.666a.918.918 0 01-.001-1.834h3.667c.505 0 .917.412.917.917s-.412.917-.917.917zm-11.917-3.667h-3.666a2.753 2.753 0 00-2.75 2.75 2.753 2.753 0 002.75 2.75h3.666a2.753 2.753 0 002.75-2.75 2.753 2.753 0 00-2.75-2.75zm0 3.667h-3.666a.918.918 0 010-1.834h3.666c.505 0 .917.412.917.917s-.412.917-.917.917zM13.75 40.334H7.333a.917.917 0 000 1.833h6.417a.917.917 0 000-1.833zm20.166 0H19.25a.917.917 0 000 1.833h14.666a.917.917 0 000-1.833zm14.668 0H38.5a.917.917 0 000 1.833h10.084a.917.917 0 000-1.833zM44 14.666c-3.033 0-5.5 2.467-5.5 5.5s2.467 5.5 5.5 5.5 5.5-2.467 5.5-5.5-2.467-5.5-5.5-5.5zm0 9.167c-2.022 0-3.667-1.645-3.667-3.667S41.978 16.5 44 16.5s3.667 1.645 3.667 3.667-1.645 3.667-3.667 3.667z"/><path d="M40.334 20.166c0-.778.254-1.53.735-2.177l.408-.547-.408-.548c-1.055-1.416-2.66-2.228-4.402-2.228-3.033 0-5.5 2.467-5.5 5.5s2.467 5.5 5.5 5.5c1.743 0 3.347-.812 4.402-2.228l.408-.548-.408-.547a3.626 3.626 0 01-.735-2.177zm-1.144 2.642a3.608 3.608 0 01-2.523 1.025c-2.022 0-3.667-1.645-3.667-3.667s1.645-3.667 3.667-3.667c.952 0 1.844.368 2.523 1.025a5.394 5.394 0 000 5.284z"/></g></svg>