<svg fill="none" height="67" width="67" xmlns="http://www.w3.org/2000/svg"><clipPath id="a"><path d="M0 0h67v67H0z"/></clipPath><g clip-path="url(#a)" fill="#2d3c88"><path d="M14.86 0a1 1 0 00-1 1v3.62h-3.62a1 1 0 00-1 1v7.085a1 1 0 01-.294.707l-4.033 4.034a1 1 0 00-.293.707v47.503a1 1 0 001 1h29.814a.99.99 0 100-1.98H7.6a1 1 0 01-1-1V20.14a1 1 0 011-1h5.919a1 1 0 001-1v-5.92a1 1 0 011-1h29.018a1 1 0 011 1v18.973a.99.99 0 101.98 0V10.24a1 1 0 00-1-1H13.533a1 1 0 00-.707.293L11.22 11.14V7.6a1 1 0 011-1h36.938a1 1 0 011 1v27.174a.99.99 0 001.98 0V5.62a1 1 0 00-1-1H15.839V2.98a1 1 0 011-1h36.938a1 1 0 011 1v30.802a.99.99 0 101.98 0V1a1 1 0 00-1-1zm-2.32 12.62v3.54a1 1 0 01-1 1H8z"/><path d="M46.528 41.578a2.973 2.973 0 00-2.97 2.97v5.28a2.973 2.973 0 002.97 2.97 2.973 2.973 0 002.97-2.97v-5.28a2.973 2.973 0 00-2.97-2.97zm.99 8.25a.991.991 0 01-1.98 0v-5.28a.991.991 0 011.98 0zm-.99 4.949a2.973 2.973 0 00-2.97 2.97 2.973 2.973 0 002.97 2.97 2.973 2.973 0 002.97-2.97 2.973 2.973 0 00-2.97-2.97zm0 3.96a.991.991 0 010-1.98.991.991 0 010 1.98z"/><path d="M61.775 51.817a1 1 0 000-1.34l-2.14-2.371a1 1 0 01-.236-.88l.67-3.124a1 1 0 00-.671-1.162l-3.04-.978a1 1 0 01-.645-.646l-.979-3.04a1 1 0 00-1.161-.67l-3.124.67a1 1 0 01-.88-.236l-2.371-2.14a1 1 0 00-1.34 0l-2.372 2.14a1 1 0 01-.88.236l-3.123-.67a1 1 0 00-1.162.67l-.978 3.04a1 1 0 01-.646.646l-3.04.978a1 1 0 00-.671 1.162l.67 3.124a1 1 0 01-.236.88l-2.14 2.37a1 1 0 000 1.341l2.14 2.371a1 1 0 01.236.88l-.67 3.124a1 1 0 00.671 1.162l3.04.978a1 1 0 01.645.646l.979 3.04a1 1 0 001.161.67l3.124-.67a1 1 0 01.88.236l2.371 2.14a1 1 0 001.34 0l2.372-2.14a1 1 0 01.88-.236l3.123.67a1 1 0 001.162-.67l.979-3.04a1 1 0 01.645-.646l3.04-.979a1 1 0 00.671-1.161l-.67-3.124a1 1 0 01.236-.88zm-6.99 6.942a1 1 0 00-.646.645l-.74 2.302a1 1 0 01-1.162.671l-2.364-.507a1 1 0 00-.88.236l-1.795 1.621a1 1 0 01-1.34 0l-1.797-1.621a1 1 0 00-.88-.236l-2.363.507a1 1 0 01-1.161-.671l-.741-2.302a1 1 0 00-.646-.646l-2.301-.74a1 1 0 01-.672-1.162l.507-2.363a1 1 0 00-.235-.88l-1.622-1.796a1 1 0 010-1.34l1.622-1.796a1 1 0 00.235-.88l-.506-2.363a1 1 0 01.67-1.162l2.302-.74a1 1 0 00.646-.646l.74-2.302a1 1 0 011.162-.671l2.364.507a1 1 0 00.88-.236l1.795-1.621a1 1 0 011.34 0l1.797 1.621a1 1 0 00.88.236l2.363-.507a1 1 0 011.162.671l.74 2.302a1 1 0 00.646.645l2.301.741a1 1 0 01.672 1.162l-.507 2.363a1 1 0 00.235.88l1.622 1.796a1 1 0 010 1.34l-1.622 1.796a1 1 0 00-.235.88l.507 2.363a1 1 0 01-.672 1.162zM10.56 21.78v7.259h31.018v-7.26zm29.038 5.279H12.54v-3.3h27.058v3.3zm-21.185 7.589a.99.99 0 101.98 0 .99.99 0 00-1.98 0zm-7.92 0a.99.99 0 101.98 0 .99.99 0 00-1.98 0zm3.96 0a.99.99 0 101.98 0 .99.99 0 00-1.98 0zm19.919 4.29h-17.61a.99.99 0 100 1.98h17.61a.99.99 0 000-1.98zm-4.501 5.279H11.483a.99.99 0 000 1.98h18.388a.99.99 0 000-1.98zm-2.703 5.28H11.483a.99.99 0 000 1.98h15.685a.99.99 0 000-1.98zm-11.989 5.28h-3.696a.99.99 0 000 1.98h3.696a.99.99 0 100-1.98zm2.97.99a.99.99 0 101.98 0 .99.99 0 00-1.98 0zm3.959 0a.99.99 0 101.98 0 .99.99 0 00-1.98 0zM38.278 13.2a.99.99 0 000 1.98h2.3a1 1 0 011 1v2.299a.99.99 0 001.98 0v-4.28a1 1 0 00-1-1zM11.06 60.716a.5.5 0 01-.5-.5v-.424a.99.99 0 00-1.98 0v1.904a1 1 0 001 1h1.903a.99.99 0 000-1.98z"/><path d="M37.288 51.147a.99.99 0 101.98 0 .99.99 0 00-1.98 0zM21.713 14.19a.99.99 0 101.98 0 .99.99 0 00-1.98 0zm9.569-.99h-4.62a.99.99 0 000 1.98h4.62a.99.99 0 100-1.98zM20.393 61.706a.99.99 0 101.98 0 .99.99 0 00-1.98 0zm9.57-.99h-4.62a.99.99 0 100 1.98h4.62a.99.99 0 100-1.98zm23.824-9.569a.99.99 0 101.98 0 .99.99 0 00-1.98 0z"/></g></svg>