<svg fill="none" height="67" viewBox="0 0 67 67" width="67" xmlns="http://www.w3.org/2000/svg" xmlns:xlink="http://www.w3.org/1999/xlink"><clipPath id="a"><path d="m0 0h67v67h-67z"/></clipPath><g clip-path="url(#a)" fill="#2d3c88"><path d="m14.8591 0c-.5523 0-1 .447715-1 1v3.61973h-3.6197c-.55233 0-1.00004.44771-1.00004 1v7.08537c0 .2652-.10536.5196-.2929.7071l-4.03394 4.0339c-.18753.1876-.29289.4419-.29289.7071v47.503c0 .5523.44771 1 1 1h29.81487c.5468 0 .99-.4432.99-.9899 0-.5468-.4432-.99-.99-.99h-27.83497c-.55228 0-1-.4477-1-1v-43.5375c0-.5522.44772-1 1-1h5.91947c.5523 0 1-.4477 1-1v-5.9194c0-.5523.4477-1 1-1h29.0183c.5522 0 1 .4477 1 1v18.973c0 .5468.4432.99.9899.99s.99-.4432.99-.99v-20.9529c0-.55233-.4478-1.00004-1-1.00004h-32.9839c-.2652 0-.5196.10536-.7071.29291l-1.6069 1.60703v-3.53977c0-.55228.4477-1 1-1h36.9377c.5523 0 1 .44772 1 1v27.17377c0 .5467.4432.9899.9899.9899.5468 0 .99-.4432.99-.9899v-29.15367c0-.55229-.4477-1-1-1h-35.2979v-1.63983c0-.55228.4477-1 1-1h36.9377c.5523 0 1 .44772 1 1v30.8022c0 .5468.4432.99.99.99.5467 0 .9899-.4432.9899-.99v-32.7821c0-.552285-.4477-1-1-1zm-2.3199 12.6193v3.5398c0 .5523-.4477 1-1 1h-3.53974z"/><path d="m46.5275 41.5781c-1.6375 0-2.9699 1.3322-2.9699 2.9699v5.2796c0 1.6376 1.3323 2.9699 2.9699 2.9699 1.6375 0 2.9698-1.3322 2.9698-2.9699v-5.2796c0-1.6376-1.3324-2.9699-2.9698-2.9699zm.9899 8.2495c0 .546-.444.99-.9899.99-.546 0-.99-.444-.99-.99v-5.2796c0-.546.444-.99.99-.99.5459 0 .9899.444.9899.99z"/><path d="m46.5275 54.7773c-1.6375 0-2.9699 1.3322-2.9699 2.9699 0 1.6376 1.3323 2.9699 2.9699 2.9699 1.6375 0 2.9698-1.3322 2.9698-2.9699 0-1.6376-1.3324-2.9699-2.9698-2.9699zm0 3.9599c-.546 0-.99-.4441-.99-.99s.444-.99.99-.99c.5459 0 .9899.4441.9899.99s-.4441.99-.9899.99z"/><path d="m61.7754 51.8172c.3438-.3807.3438-.9597.0001-1.3404l-2.1409-2.3709c-.2153-.2384-.303-.5658-.2356-.8799l.6701-3.124c.1077-.5021-.1825-1.0042-.6714-1.1616l-3.0397-.9785c-.3065-.0987-.5468-.3389-.6454-.6455l-.9785-3.0395c-.1573-.4889-.6594-.7791-1.1616-.6714l-3.1239.6701c-.3142.0674-.6415-.0203-.88-.2356l-2.3709-2.1409c-.3806-.3437-.9597-.3437-1.3403 0l-2.371 2.1409c-.2384.2153-.5657.303-.8799.2356l-3.1238-.6701c-.5022-.1077-1.0043.1825-1.1616.6714l-.9786 3.0395c-.0986.3066-.3389.5468-.6454.6455l-3.0397.9785c-.4889.1574-.7791.6595-.6714 1.1616l.6701 3.124c.0674.3141-.0203.6415-.2356.8799l-2.141 2.3709c-.3437.3807-.3437.9598 0 1.3404l2.1409 2.3709c.2153.2385.3029.5658.2356.8799l-.6701 3.124c-.1077.5022.1825 1.0043.6713 1.1616l3.0397.9786c.3066.0986.5468.3389.6455.6454l.9784 3.0396c.1574.4888.6595.779 1.1616.6713l3.124-.67c.3141-.0674.6415.0202.8799.2355l2.3711 2.1409c.3806.3437.9596.3437 1.3403-.0001l2.3709-2.1409c.2385-.2153.5658-.3029.88-.2356l3.1238.6701c.5022.1077 1.0043-.1825 1.1616-.6713l.9785-3.0396c.0987-.3065.339-.5468.6455-.6455l3.0397-.9785c.4889-.1574.7791-.6595.6714-1.1616l-.6701-3.124c-.0674-.3141.0203-.6415.2356-.8799zm-6.9906 6.9415c-.3065.0987-.5468.3389-.6455.6455l-.7409 2.3015c-.1574.4889-.6595.779-1.1616.6713l-2.3633-.5069c-.3141-.0673-.6414.0203-.8798.2356l-1.796 1.6216c-.3807.3437-.9597.3437-1.3403 0l-1.796-1.6216c-.2384-.2153-.5657-.3029-.8798-.2356l-2.3634.5069c-.5021.1077-1.0042-.1825-1.1616-.6713l-.7409-2.3018c-.0986-.3065-.3389-.5468-.6454-.6455l-2.3015-.7408c-.4889-.1574-.7791-.6595-.6714-1.1617l.507-2.3631c.0674-.3141-.0202-.6415-.2355-.8799l-1.6215-1.7958c-.3437-.3807-.3437-.9597 0-1.3404l1.6216-1.7958c.2153-.2384.3029-.5658.2355-.8799l-.5069-2.3633c-.1078-.5021.1824-1.0042.6713-1.1616l2.3015-.7409c.3065-.0987.5468-.3389.6455-.6454l.741-2.3016c.1573-.4888.6594-.779 1.1616-.6713l2.3632.5069c.3141.0674.6414-.0203.8799-.2356l1.7959-1.6216c.3807-.3437.9597-.3437 1.3403 0l1.796 1.6216c.2384.2153.5658.303.8799.2356l2.3633-.5069c.5021-.1077 1.0042.1825 1.1616.6714l.7409 2.3017c.0987.3065.3389.5468.6455.6455l2.3015.7409c.4888.1573.779.6595.6713 1.1616l-.507 2.3631c-.0674.3142.0203.6415.2356.88l1.6215 1.7957c.3438.3807.3438.9597 0 1.3404l-1.6215 1.7958c-.2153.2384-.303.5658-.2356.8799l.507 2.3633c.1077.5021-.1825 1.0043-.6714 1.1616z"/><path d="m10.5596 21.7793v7.2596h31.0182v-7.2596zm29.0382 5.2796h-27.0583v-3.2997h27.0584v3.2997z"/><path d="m18.4131 34.6482c0 .5467.4432.9899.9899.9899.5468 0 .99-.4432.99-.9899 0-.5468-.4432-.99-.99-.99-.5467 0-.9899.4432-.9899.99z"/><path d="m10.4932 34.6482c0 .5467.4432.9899.9899.9899s.99-.4432.99-.9899c0-.5468-.4433-.99-.99-.99s-.9899.4432-.9899.99z"/><path d="m14.4531 34.6482c0 .5467.4432.9899.99.9899.5467 0 .9899-.4432.9899-.9899 0-.5468-.4432-.99-.9899-.99-.5468 0-.99.4432-.99.99z"/><path d="m34.372 38.9375h-17.6091c-.5467 0-.99.4432-.99.9899 0 .5468.4433.99.99.99h17.6091c.5467 0 .9899-.4432.9899-.99 0-.5467-.4432-.9899-.9899-.9899z"/><path d="m29.871 44.2168h-18.3879c-.5467 0-.9899.4432-.9899.9899 0 .5468.4432.99.9899.99h18.3879c.5467 0 .9899-.4432.9899-.99 0-.5467-.4432-.9899-.9899-.9899z"/><path d="m27.1678 49.4971h-15.6847c-.5467 0-.9899.4432-.9899.9899 0 .5468.4432.99.9899.99h15.6847c.5467 0 .9899-.4432.9899-.99 0-.5467-.4432-.9899-.9899-.9899z"/><path d="m15.1788 54.7773h-3.6957c-.5467 0-.9899.4433-.9899.99s.4432.9899.9899.9899h3.6957c.5468 0 .99-.4432.99-.9899s-.4432-.99-.99-.99z"/><path d="m18.1489 55.7673c0 .5467.4432.9899.99.9899.5467 0 .9899-.4432.9899-.9899s-.4432-.99-.9899-.99c-.5468 0-.99.4433-.99.99z"/><path d="m22.1084 55.7673c0 .5467.4432.9899.9899.9899.5468 0 .99-.4432.99-.9899s-.4432-.99-.99-.99c-.5467 0-.9899.4433-.9899.99z"/><path d="m38.278 13.1992c-.5467 0-.9899.4432-.9899.99 0 .5467.4432.9899.9899.9899h2.2998c.5523 0 1 .4477 1 1v2.2998c0 .5467.4432.9899.9899.9899.5468 0 .99-.4432.99-.9899v-4.2797c0-.5523-.4477-1-1-1z"/><path d="m11.0595 60.7157c-.2762 0-.5-.2239-.5-.5v-.424c0-.5467-.4432-.9899-.98996-.9899-.54673 0-.98995.4432-.98995.9899v1.9039c0 .5523.44772 1 1 1h1.90381c.5467 0 .9899-.4432.9899-.9899 0-.5468-.4432-.99-.9899-.99z"/><path d="m37.2881 51.1472c0 .5467.4432.9899.9899.9899.5468 0 .99-.4432.99-.9899 0-.5468-.4432-.99-.99-.99-.5467 0-.9899.4432-.9899.99z"/><path d="m21.7129 14.1892c0 .5467.4432.9899.9899.9899.5468 0 .99-.4432.99-.9899 0-.5468-.4432-.99-.99-.99-.5467 0-.9899.4432-.9899.99z"/><path d="m31.2825 13.1992h-4.6197c-.5467 0-.9899.4432-.9899.99 0 .5467.4432.9899.9899.9899h4.6197c.5468 0 .99-.4432.99-.9899 0-.5468-.4432-.99-.99-.99z"/><path d="m20.3931 61.7058c0 .5467.4432.9899.9899.9899.5468 0 .99-.4432.99-.9899 0-.5468-.4432-.99-.99-.99-.5467 0-.9899.4432-.9899.99z"/><path d="m29.9627 60.7158h-4.6197c-.5468 0-.99.4432-.99.99 0 .5467.4432.9899.99.9899h4.6197c.5467 0 .99-.4432.99-.9899 0-.5468-.4433-.99-.99-.99z"/><path d="m53.7871 51.1472c0 .5467.4432.9899.99.9899.5467 0 .9899-.4432.9899-.9899 0-.5468-.4432-.99-.9899-.99-.5468 0-.99.4432-.99.99z"/></g></svg>