<svg fill="none" height="55" viewBox="0 0 55 55" width="55" xmlns="http://www.w3.org/2000/svg" xmlns:xlink="http://www.w3.org/1999/xlink"><clipPath id="a"><path d="m0 0h55v55h-55z"/></clipPath><g clip-path="url(#a)" fill="#2d3c88"><path d="m9.13876 48.8694c-.1997-.1999-.47685-.3147-.75936-.3147-.28252 0-.55967.1148-.75948.3147-.1998.1999-.31474.477-.31474.7595s.11483.5597.31474.7594c.19981.1998.47696.3148.75948.3148.28251 0 .55966-.1149.75936-.3148.19981-.1997.31485-.4769.31485-.7594s-.11494-.5597-.31485-.7595z"/><path d="m50.4372 19.6517c-.1998-.2-.4759-.3148-.7595-.3148-.2825 0-.5596.1148-.7594.3148-.1997.1998-.3148.4769-.3148.7594 0 .2826.115.5597.3148.7594.1998.1998.4769.3149.7594.3149.2836 0 .5597-.115.7595-.3149.2008-.1997.3157-.4768.3157-.7594 0-.2825-.1149-.5596-.3157-.7594z"/><path d="m54.6854.314639c-.2015-.201416-.4748-.314639-.7598-.314639l-26.4251.00139648c-.5932 0-1.0741.48103552-1.0741 1.07422352v3.07194l-10.1824 2.72841c-.5731.15361-.9132.7426-.7596 1.31559l5.2773 19.69494-4.5653 4.5653c-.5811-.8484-1.5567-1.4063-2.6602-1.4063h-10.31219c-1.77697 0-3.22254516 1.4456-3.22254516 3.2225v17.5093c0 1.777 1.44557516 3.2227 3.22254516 3.2227h10.31229c1.5096 0 2.7795-1.0437 3.1276-2.4471l1.2772 1.1139c.9861.8598 2.2493 1.3333 3.5576 1.3333h32.4272c.5931 0 1.0742-.481 1.0742-1.0742v-52.85168c-.0002-.284884-.1132-.558165-.3147-.759581zm-40.0751 51.462861c0 .5922-.4819 1.0742-1.0742 1.0742h-10.31219c-.59233 0-1.07422-.4819-1.07422-1.0742v-17.5094c0-.5923.48189-1.0742 1.07422-1.0742h4.08192v12.3745c0 .5931.48104 1.0742 1.07422 1.0742s1.07422-.4811 1.07422-1.0742v-12.3745h4.08193c.5923 0 1.0742.4819 1.0742 1.0742v17.5094zm3.2273-43.10437 8.5888-2.3014v3.98047l-.72.193c-.2753.0738-.5098.2537-.6522.5005-.1425.2467-.1811.5399-.1073.8151.4128 1.5405-.5047 3.1296-2.0452 3.5424-.2756.0739-.5105.2542-.6528.5015-.1424.2471-.1807.5408-.1063.8163l4.1872 15.505h-2.1559l-1.1111-4.3467c-.0353-.1384-.0972-.2659-.18-.3767zm8.5888 6.60537v9.0644l-1.9593-7.2548c.8185-.4226 1.4882-1.0548 1.9593-1.8096zm15.4326 37.5731h-20.3605c-.789 0-1.5509-.2856-2.1456-.8041l-2.5942-2.2624v-14.8572l4.6899-4.6898.8505 3.3279c.1216.4756.5499.8081 1.0407.8081l21.1196.0013c.8293 0 1.5039.6746 1.5039 1.5039s-.6746 1.5039-1.5039 1.5039h-10.8217c-.5932 0-1.0742.4811-1.0742 1.0743 0 .5931.481 1.0742 1.0742 1.0742h14.184c.8293 0 1.5039.6746 1.5039 1.5039s-.6746 1.5039-1.5039 1.5039h-14.184c-.5932 0-1.0742.481-1.0742 1.0742s.481 1.0742 1.0742 1.0742h11.8855c.8293 0 1.5039.6746 1.5039 1.5039s-.6746 1.5039-1.5039 1.5039h-11.8855c-.5932 0-1.0742.4811-1.0742 1.0743 0 .5931.481 1.0742 1.0742 1.0742h8.2213c.8293 0 1.504.6746 1.504 1.5039-.0002.8289-.6748 1.5035-1.504 1.5035zm10.9926 0h-.0001-7.6655c.2083-.4591.3253-.9679.3253-1.5039 0-.5361-.117-1.0449-.3253-1.5039h.3372c2.0138 0 3.6522-1.6384 3.6522-3.6523 0-.5874-.1401-1.1424-.3876-1.6346 1.5464-.4248 2.686-1.8422 2.686-3.5215 0-.8147-.2683-1.5679-.7209-2.1759v-13.6146c0-.5932-.481-1.0742-1.0742-1.0742s-1.0742.481-1.0742 1.0742v12.2237c-.2524-.0553-.5142-.0854-.783-.0854h-.0352c.2083-.459.3252-.9678.3252-1.5039 0-2.0139-1.6384-3.6522-3.6522-3.6522h-1.7268c1.8336-.7863 3.1214-2.6088 3.1214-4.7271 0-2.8348-2.3062-5.141-5.1409-5.141s-5.1409 2.3062-5.1409 5.141c0 2.1183 1.2879 3.9408 3.1213 4.7271h-5.872v-20.4254c1.919-.4182 3.4332-1.93232 3.8513-3.85141h8.0804c.4181 1.91909 1.9323 3.43321 3.8513 3.85141v3.3397c0 .5932.481 1.0743 1.0742 1.0743s1.0742-.4811 1.0742-1.0743v-4.2988c0-.5932-.481-1.07419-1.0742-1.07419-1.5949 0-2.8922-1.29755-2.8922-2.89234 0-.59318-.4811-1.07421-1.0742-1.07421h-9.9984c-.5932 0-1.0743.48103-1.0743 1.07421 0 1.5949-1.2974 2.89234-2.8922 2.89234-.5932 0-1.0742.48099-1.0742 1.07419v21.3844h-2.0982v-30.07738l24.2767-.00118zm-12.1384-22.359c-1.6501 0-2.9925-1.3425-2.9925-2.9925s1.3425-2.9926 2.9925-2.9926 2.9924 1.3425 2.9924 2.9925-1.3423 2.9926-2.9924 2.9926z"/></g></svg>