<svg fill="none" height="55" width="55" xmlns="http://www.w3.org/2000/svg"><clipPath id="a"><path d="M0 0h55v55H0z"/></clipPath><g clip-path="url(#a)" fill="#2d3c88"><path d="M9.139 48.87c-.2-.2-.477-.315-.76-.315-.282 0-.56.114-.76.314-.199.2-.314.477-.314.76s.115.56.315.76c.2.2.477.314.76.314.282 0 .56-.115.759-.315.2-.2.315-.477.315-.76s-.115-.559-.315-.759zm41.298-29.218a1.08 1.08 0 00-.76-.315c-.282 0-.559.115-.759.315-.2.2-.315.477-.315.76 0 .282.115.559.315.759.2.2.477.314.76.314a1.08 1.08 0 001.075-1.074c0-.282-.115-.56-.316-.76z"/><path d="M54.685.315a1.075 1.075 0 00-.76-.315L27.502.001c-.594 0-1.075.481-1.075 1.075v3.072L16.244 6.876a1.074 1.074 0 00-.76 1.316l5.278 19.694-4.566 4.566a3.221 3.221 0 00-2.66-1.406H3.224a3.226 3.226 0 00-3.223 3.222v17.51A3.226 3.226 0 003.224 55h10.312c1.51 0 2.78-1.044 3.128-2.447l1.277 1.114A5.412 5.412 0 0021.5 55h32.427c.593 0 1.074-.48 1.074-1.074V1.074c0-.285-.113-.558-.315-.76zM14.61 51.777c0 .593-.482 1.075-1.074 1.075H3.224a1.075 1.075 0 01-1.074-1.075V34.268c0-.592.482-1.074 1.074-1.074h4.082v12.374a1.074 1.074 0 002.148 0V33.194h4.082c.593 0 1.074.482 1.074 1.074v17.51zm3.228-43.104l8.588-2.301v3.98l-.72.193a1.074 1.074 0 00-.76 1.316 2.896 2.896 0 01-2.044 3.542 1.074 1.074 0 00-.76 1.318l4.188 15.505h-2.156l-1.111-4.347a1.071 1.071 0 00-.18-.376zm8.588 6.605v9.065l-1.959-7.255a5.032 5.032 0 001.96-1.81zM41.86 52.852H21.5c-.79 0-1.551-.286-2.146-.805l-2.594-2.262V34.928l4.69-4.69.85 3.328c.122.476.55.808 1.04.808l21.12.001c.83 0 1.504.675 1.504 1.504s-.674 1.504-1.504 1.504H33.638a1.074 1.074 0 000 2.149h14.184a1.505 1.505 0 010 3.008H33.638a1.074 1.074 0 000 2.148h11.885a1.505 1.505 0 010 3.008H33.638a1.074 1.074 0 000 2.148h8.221c.83 0 1.504.675 1.504 1.504s-.675 1.504-1.504 1.504zm10.993 0h-7.666a3.63 3.63 0 000-3.008h.337a3.656 3.656 0 003.652-3.653c0-.587-.14-1.142-.387-1.634a3.658 3.658 0 002.686-3.522c0-.814-.268-1.568-.721-2.176V25.245a1.074 1.074 0 00-2.148 0v12.224a3.654 3.654 0 00-.783-.086h-.036a3.63 3.63 0 00.326-1.504 3.656 3.656 0 00-3.653-3.652h-1.726a5.148 5.148 0 003.12-4.727c0-2.835-2.305-5.141-5.14-5.141s-5.14 2.306-5.14 5.141a5.148 5.148 0 003.12 4.727h-5.872V11.802a5.057 5.057 0 003.852-3.852h8.08a5.057 5.057 0 003.851 3.852v3.34a1.074 1.074 0 002.149 0v-4.3c0-.593-.481-1.074-1.074-1.074a2.895 2.895 0 01-2.893-2.892c0-.593-.48-1.074-1.074-1.074h-9.998c-.593 0-1.074.48-1.074 1.074a2.895 2.895 0 01-2.893 2.892c-.593 0-1.074.481-1.074 1.075v21.384h-2.098V2.15l24.277-.002zm-12.139-22.36c-1.65 0-2.992-1.342-2.992-2.992s1.342-2.993 2.992-2.993 2.993 1.343 2.993 2.993-1.343 2.993-2.993 2.993z"/></g></svg>