<svg fill="none" height="30" viewBox="0 0 30 30" width="30" xmlns="http://www.w3.org/2000/svg"><path d="m7.5 0c-1.03125 0-1.875.84375-1.875 1.875v26.25c0 1.0312.84375 1.875 1.875 1.875h18.75c1.0312 0 1.875-.8438 1.875-1.875v-20.625l-7.5-7.5z" fill="#d5d9dc"/><path d="m22.5 7.5h5.625l-7.5-7.5v5.625c0 1.03125.8438 1.875 1.875 1.875z" fill="#b0b7bd"/><path d="m28.125 13.125-5.625-5.625h5.625z" fill="#cad1d8"/><path d="m24.375 24.375c0 .5156-.4219.9375-.9375.9375h-20.625c-.51562 0-.9375-.4219-.9375-.9375v-9.375c0-.5156.42188-.9375.9375-.9375h20.625c.5156 0 .9375.4219.9375.9375z" fill="#339dff"/><g fill="#fff"><path d="m5.42424 22.5001c-.2475 0-.5175-.136-.5175-.465v-4.2572c0-.27.27-.465.5175-.465h1.71656c3.4256 0 3.3497 5.1872.06656 5.1872zm.4725-4.2732v3.3582h1.24406c2.02406 0 2.11312-3.3582 0-3.3582z"/><path d="m13.3593 22.575c-1.3866.06-2.8266-.8625-2.8266-2.699 0-1.8441 1.4391-2.7506 2.8266-2.7506 1.3115.0665 2.6831.974 2.6831 2.7506 0 1.7775-1.3716 2.699-2.6831 2.699zm-.0825-4.4746c-.84 0-1.7541.5925-1.7541 1.7765 0 1.1775.915 1.7775 1.7541 1.7775.8625 0 1.784-.6 1.784-1.7775 0-1.185-.9215-1.7765-1.784-1.7765z"/><path d="m16.9243 19.8685c0-1.4466.9075-2.6906 2.6316-2.6906.6525 0 1.17.195 1.7165.6675.2026.1865.2251.5165.0226.7265-.2026.1791-.5101.1575-.6901-.0225-.3065-.3225-.6215-.4115-1.049-.4115-1.1541 0-1.7081.8175-1.7081 1.7315 0 .93.5465 1.7841 1.7081 1.7841.4275 0 .825-.1735 1.17-.48.2315-.18.5541-.091.6891.09.12.165.179.4425-.0826.704-.525.4885-1.154.586-1.7775.586-1.8131 0-2.6306-1.2385-2.6306-2.685z"/></g><path d="m23.4375 25.3125h-17.8125v.9375h17.8125c.5156 0 .9375-.4219.9375-.9375v-.9375c0 .5156-.4219.9375-.9375.9375z" fill="#cad1d8"/></svg>