<svg fill="none" height="30" width="30" xmlns="http://www.w3.org/2000/svg"><path d="M7.5 0a1.88 1.88 0 00-1.875 1.875v26.25A1.88 1.88 0 007.5 30h18.75a1.88 1.88 0 001.875-1.875V7.5l-7.5-7.5z" fill="#d5d9dc"/><path d="M22.5 7.5h5.625l-7.5-7.5v5.625A1.88 1.88 0 0022.5 7.5z" fill="#b0b7bd"/><path d="M28.125 13.125L22.5 7.5h5.625z" fill="#cad1d8"/><path d="M24.375 24.375a.94.94 0 01-.938.938H2.813a.94.94 0 01-.937-.938V15a.94.94 0 01.938-.938h20.625a.94.94 0 01.937.938z" fill="#339dff"/><path d="M5.424 22.5c-.247 0-.517-.136-.517-.465v-4.257c0-.27.27-.465.517-.465h1.717c3.425 0 3.35 5.187.066 5.187zm.473-4.273v3.358H7.14c2.024 0 2.113-3.358 0-3.358zm7.463 4.348c-1.387.06-2.827-.863-2.827-2.699 0-1.844 1.439-2.75 2.826-2.75 1.312.066 2.683.973 2.683 2.75 0 1.777-1.371 2.699-2.683 2.699zm-.083-4.475c-.84 0-1.754.593-1.754 1.777 0 1.177.915 1.777 1.754 1.777.862 0 1.784-.6 1.784-1.777 0-1.185-.922-1.777-1.784-1.777zm3.647 1.769c0-1.447.908-2.691 2.632-2.691.652 0 1.17.195 1.716.667a.51.51 0 01.023.727.51.51 0 01-.69-.023c-.307-.322-.622-.411-1.05-.411-1.153 0-1.707.817-1.707 1.731 0 .93.546 1.785 1.708 1.785.427 0 .825-.174 1.17-.48a.503.503 0 01.689.09c.12.165.179.442-.083.704-.525.488-1.154.586-1.777.586-1.813 0-2.63-1.239-2.63-2.685z" fill="#fff"/><path d="M23.438 25.313H5.625v.937h17.813a.94.94 0 00.937-.938v-.937a.94.94 0 01-.938.938z" fill="#cad1d8"/></svg>