<svg fill="none" height="30" width="30" xmlns="http://www.w3.org/2000/svg"><path d="M7.5 0a1.88 1.88 0 00-1.875 1.875v26.25A1.88 1.88 0 007.5 30h18.75a1.88 1.88 0 001.875-1.875V7.5l-7.5-7.5z" fill="#d5d9dc"/><path d="M22.5 7.5h5.625l-7.5-7.5v5.625A1.88 1.88 0 0022.5 7.5z" fill="#b0b7bd"/><path d="M28.125 13.125L22.5 7.5h5.625z" fill="#cad1d8"/><path d="M24.375 24.375a.94.94 0 01-.938.938H2.813a.94.94 0 01-.937-.938V15a.94.94 0 01.938-.938h20.625a.94.94 0 01.937.938z" fill="#f2994a"/><path d="M8.318 17.763c0-.63.99-.63.99 0v2.96c0 1.178-.562 1.89-1.859 1.89-.637 0-1.169-.173-1.634-.772-.382-.458.338-1.117.728-.638.315.39.652.48.981.465.42-.015.788-.203.795-.945v-2.96zm2.308 0c0-.248.195-.518.51-.518h1.731c.975 0 1.853.653 1.853 1.903 0 1.185-.878 1.845-1.853 1.845h-1.252v.99c0 .33-.21.517-.48.517a.506.506 0 01-.51-.517zm.99.426v1.868h1.251c.503 0 .9-.443.9-.908 0-.525-.397-.96-.9-.96zm8.457 3.734c-.533.443-1.185.63-1.844.63-1.575 0-2.692-.899-2.692-2.684 0-1.513 1.178-2.69 2.758-2.69.593 0 1.244.202 1.71.66.456.449-.203 1.116-.652.72-.278-.27-.668-.473-1.058-.473-.906 0-1.783.727-1.783 1.783 0 1.11.734 1.785 1.717 1.785a1.92 1.92 0 001.124-.337v-.922h-1.124c-.668 0-.6-.915 0-.915h1.499c.277 0 .531.21.531.443v1.596c0 .135-.059.261-.186.404z" fill="#fff"/><path d="M23.438 25.313H5.625v.937h17.813a.94.94 0 00.937-.938v-.937a.94.94 0 01-.938.938z" fill="#cad1d8"/></svg>