<svg fill="none" height="30" viewBox="0 0 30 30" width="30" xmlns="http://www.w3.org/2000/svg"><path d="m7.5 0c-1.03125 0-1.875.84375-1.875 1.875v26.25c0 1.0312.84375 1.875 1.875 1.875h18.75c1.0312 0 1.875-.8438 1.875-1.875v-20.625l-7.5-7.5z" fill="#d5d9dc"/><path d="m22.5 7.5h5.625l-7.5-7.5v5.625c0 1.03125.8438 1.875 1.875 1.875z" fill="#b0b7bd"/><path d="m28.125 13.125-5.625-5.625h5.625z" fill="#cad1d8"/><path d="m24.375 24.375c0 .5156-.4219.9375-.9375.9375h-20.625c-.51562 0-.9375-.4219-.9375-.9375v-9.375c0-.5156.42188-.9375.9375-.9375h20.625c.5156 0 .9375.4219.9375.9375z" fill="#f2994a"/><g fill="#fff"><path d="m8.31833 17.7628c0-.63.99-.63.99 0v2.9606c0 1.1775-.5625 1.89-1.85906 1.89-.6375 0-1.16907-.1734-1.63407-.7725-.3825-.4575.3375-1.1165.7275-.6375.315.39.6525.48.98157.465.41906-.015.78749-.2034.79499-.945v-2.9606z"/><path d="m10.6255 17.7629c0-.2475.195-.5175.51-.5175h1.7316c.975 0 1.8525.6525 1.8525 1.9031 0 1.185-.8775 1.845-1.8525 1.845h-1.2516v.99c0 .33-.21.5165-.48.5165-.2475 0-.51-.1865-.51-.5165zm.99.4265v1.8675h1.2516c.5025 0 .9-.4434.9-.9084 0-.5241-.3975-.9591-.9-.9591z"/><path d="m20.0727 21.9234c-.5325.4425-1.185.63-1.844.63-1.575 0-2.6916-.899-2.6916-2.684 0-1.5132 1.1775-2.6897 2.7581-2.6897.5925 0 1.2441.2015 1.7091.659.4566.4491-.2025 1.1166-.6516.72-.2775-.27-.6675-.4725-1.0575-.4725-.9065 0-1.7831.7266-1.7831 1.7832 0 1.11.7341 1.785 1.7166 1.785.4565 0 .8465-.136 1.124-.3375v-.9216h-1.124c-.6675 0-.6-.915 0-.915h1.499c.2775 0 .5316.21.5316.4425v1.5966c0 .135-.0591.2606-.1866.404z"/></g><path d="m23.4375 25.3125h-17.8125v.9375h17.8125c.5156 0 .9375-.4219.9375-.9375v-.9375c0 .5156-.4219.9375-.9375.9375z" fill="#cad1d8"/></svg>