<svg fill="none" height="30" width="30" xmlns="http://www.w3.org/2000/svg"><path d="M7.5 0a1.88 1.88 0 00-1.875 1.875v26.25A1.88 1.88 0 007.5 30h18.75a1.88 1.88 0 001.875-1.875V7.5l-7.5-7.5z" fill="#d5d9dc"/><path d="M22.5 7.5h5.625l-7.5-7.5v5.625A1.88 1.88 0 0022.5 7.5z" fill="#b0b7bd"/><path d="M28.125 13.125L22.5 7.5h5.625z" fill="#cad1d8"/><path d="M24.375 24.375a.94.94 0 01-.938.938H2.813a.94.94 0 01-.937-.938V15a.94.94 0 01.938-.938h20.625a.94.94 0 01.937.938z" fill="#eb0c0c"/><path d="M5.961 17.763c0-.248.195-.518.51-.518h1.731c.975 0 1.853.653 1.853 1.903 0 1.185-.878 1.845-1.853 1.845H6.95v.99c0 .33-.21.517-.48.517a.505.505 0 01-.509-.517zm.99.426v1.868h1.251c.503 0 .9-.443.9-.908 0-.525-.397-.96-.9-.96zm4.571 4.311c-.247 0-.517-.135-.517-.464v-4.258c0-.27.27-.465.517-.465h1.717c3.426 0 3.35 5.187.067 5.187zm.473-4.272v3.358h1.244c2.024 0 2.114-3.358 0-3.358zm5.81.06v1.191h1.911c.27 0 .54.27.54.532 0 .248-.27.45-.54.45h-1.911v1.574c0 .263-.187.464-.45.464-.33 0-.53-.201-.53-.464v-4.258c0-.27.202-.465.53-.465h2.632c.33 0 .525.196.525.465 0 .24-.195.51-.525.51h-2.182z" fill="#fff"/><path d="M23.438 25.313H5.625v.937h17.813a.94.94 0 00.937-.938v-.937a.94.94 0 01-.938.938z" fill="#cad1d8"/></svg>