<svg fill="none" height="30" viewBox="0 0 30 30" width="30" xmlns="http://www.w3.org/2000/svg"><path d="m7.5 0c-1.03125 0-1.875.84375-1.875 1.875v26.25c0 1.0312.84375 1.875 1.875 1.875h18.75c1.0312 0 1.875-.8438 1.875-1.875v-20.625l-7.5-7.5z" fill="#d5d9dc"/><path d="m22.5 7.5h5.625l-7.5-7.5v5.625c0 1.03125.8438 1.875 1.875 1.875z" fill="#b0b7bd"/><path d="m28.125 13.125-5.625-5.625h5.625z" fill="#cad1d8"/><path d="m24.375 24.375c0 .5156-.4219.9375-.9375.9375h-20.625c-.51562 0-.9375-.4219-.9375-.9375v-9.375c0-.5156.42188-.9375.9375-.9375h20.625c.5156 0 .9375.4219.9375.9375z" fill="#eb0c0c"/><g fill="#fff"><path d="m5.96143 17.7629c0-.2475.195-.5175.50906-.5175h1.73156c.975 0 1.85255.6525 1.85255 1.9031 0 1.185-.87755 1.845-1.85255 1.845h-1.25156v.99c0 .33-.21.5165-.48.5165-.2475 0-.50906-.1865-.50906-.5165zm.98906.4265v1.8675h1.25156c.5025 0 .9-.4434.9-.9084 0-.5241-.3975-.9591-.9-.9591z"/><path d="m11.5224 22.5001c-.2475 0-.5175-.135-.5175-.4641v-4.2581c0-.2691.27-.465.5175-.465h1.7165c3.4257 0 3.3507 5.1872.0675 5.1872zm.4725-4.2722v3.3581h1.244c2.0241 0 2.1141-3.3581 0-3.3581z"/><path d="m17.8048 18.2878v1.1916h1.9116c.27 0 .54.27.54.5316 0 .2475-.27.45-.54.45h-1.9116v1.574c0 .2625-.1865.4641-.449.4641-.33 0-.5316-.2016-.5316-.4641v-4.2581c0-.2691.2025-.465.5316-.465h2.6315c.33 0 .525.1959.525.465 0 .24-.195.51-.525.51h-2.1825z"/></g><path d="m23.4375 25.3125h-17.8125v.9375h17.8125c.5156 0 .9375-.4219.9375-.9375v-.9375c0 .5156-.4219.9375-.9375.9375z" fill="#cad1d8"/></svg>