<svg fill="none" height="30" width="30" xmlns="http://www.w3.org/2000/svg"><path d="M7.5 0a1.88 1.88 0 00-1.875 1.875v26.25A1.88 1.88 0 007.5 30h18.75a1.88 1.88 0 001.875-1.875V7.5l-7.5-7.5z" fill="#d5d9dc"/><path d="M22.5 7.5h5.625l-7.5-7.5v5.625A1.88 1.88 0 0022.5 7.5z" fill="#b0b7bd"/><path d="M28.125 13.125L22.5 7.5h5.625z" fill="#cad1d8"/><path d="M24.375 24.375a.94.94 0 01-.938.938H2.813a.94.94 0 01-.937-.938V15a.94.94 0 01.938-.938h20.625a.94.94 0 01.937.938z" fill="#84bd5a"/><path d="M8.457 19.113l1.304-1.634c.39-.51 1.148.142.72.629A43.19 43.19 0 009.11 19.81l1.529 1.904c.412.562-.412 1.101-.817.546l-1.38-1.769L7.086 22.3c-.383.546-1.23-.068-.803-.578L7.79 19.81c-.473-.593-.93-1.17-1.387-1.702-.471-.562.405-1.14.75-.613zm3.107-1.35c0-.248.21-.458.472-.458.24 0 .443.211.443.458v3.755h2.039c.734 0 .75.982 0 .982h-2.48c-.263 0-.473-.187-.473-.457v-4.28zm4.376.675c.172-1.455 2.367-1.717 3.402-.922.51.412-.03 1.064-.48.734-.555-.351-1.814-.516-1.971.262-.203 1.23 3.058.526 3.005 2.52-.052 1.904-2.81 1.948-3.845 1.094a.554.554 0 01-.105-.735c.195-.194.411-.262.667-.052.614.42 2.197.735 2.308-.33-.096-1.109-3.214-.442-2.982-2.571z" fill="#fff"/><path d="M23.438 25.313H5.625v.937h17.813a.94.94 0 00.937-.938v-.937a.94.94 0 01-.938.938z" fill="#cad1d8"/></svg>