<svg fill="none" height="30" viewBox="0 0 30 30" width="30" xmlns="http://www.w3.org/2000/svg"><path d="m7.5 0c-1.03125 0-1.875.84375-1.875 1.875v26.25c0 1.0312.84375 1.875 1.875 1.875h18.75c1.0312 0 1.875-.8438 1.875-1.875v-20.625l-7.5-7.5z" fill="#d5d9dc"/><path d="m22.5 7.5h5.625l-7.5-7.5v5.625c0 1.03125.8438 1.875 1.875 1.875z" fill="#b0b7bd"/><path d="m28.125 13.125-5.625-5.625h5.625z" fill="#cad1d8"/><path d="m24.375 24.375c0 .5156-.4219.9375-.9375.9375h-20.625c-.51562 0-.9375-.4219-.9375-.9375v-9.375c0-.5156.42188-.9375.9375-.9375h20.625c.5156 0 .9375.4219.9375.9375z" fill="#84bd5a"/><g fill="#fff"><path d="m8.45715 19.113 1.30406-1.6341c.38999-.51 1.14749.1416.71999.6291-.449.5325-.92155 1.11-1.37155 1.7015l1.52905 1.9041c.4125.5625-.4115 1.1016-.81655.5466l-1.38-1.7691-1.35657 1.8075c-.3825.5466-1.23-.0675-.8025-.5775l1.50657-1.9116c-.4725-.5925-.93-1.169-1.38657-1.7015-.47156-.5625.405-1.1391.75-.6132z"/><path d="m11.564 17.7629c0-.2475.21-.4575.4725-.4575.24 0 .4425.211.4425.4575v3.7556h2.039c.7341 0 .75.9816 0 .9816h-2.4806c-.2625 0-.4725-.1866-.4725-.4566v-4.2806z"/><path d="m15.9391 18.4379c.1725-1.455 2.3681-1.7166 3.4031-.9216.51.4116-.03 1.0641-.48.7341-.555-.3516-1.814-.5166-1.9715.2615-.2025 1.23 3.0581.526 3.0056 2.52-.0525 1.9041-2.8106 1.9481-3.8456 1.0941-.2485-.2025-.24-.5316-.105-.735.195-.1941.4115-.2616.6675-.0516.614.4191 2.1965.7341 2.3081-.3309-.0966-1.1081-3.2147-.4416-2.9822-2.5706z"/></g><path d="m23.4375 25.3125h-17.8125v.9375h17.8125c.5156 0 .9375-.4219.9375-.9375v-.9375c0 .5156-.4219.9375-.9375.9375z" fill="#cad1d8"/></svg>