<svg fill="none" height="30" viewBox="0 0 30 30" width="30" xmlns="http://www.w3.org/2000/svg"><path d="m7.5 0c-1.03125 0-1.875.84375-1.875 1.875v26.25c0 1.0312.84375 1.875 1.875 1.875h18.75c1.0312 0 1.875-.8438 1.875-1.875v-20.625l-7.5-7.5z" fill="#d5d9dc"/><path d="m22.5 7.5h5.625l-7.5-7.5v5.625c0 1.03125.8438 1.875 1.875 1.875z" fill="#b0b7bd"/><path d="m28.125 13.125-5.625-5.625h5.625z" fill="#cad1d8"/><path d="m24.375 24.375c0 .5156-.4219.9375-.9375.9375h-20.625c-.51562 0-.9375-.4219-.9375-.9375v-9.375c0-.5156.42188-.9375.9375-.9375h20.625c.5156 0 .9375.4219.9375.9375z" fill="#53318d"/><g fill="#fff"><path d="m7.77217 22.5002c-.4725 0-.66-.4566-.39-.7791l2.66903-3.5456h-2.21247c-.65156 0-.59906-.9206 0-.9206h3.02157c.569 0 .734.5381.33.974l-2.55657 3.3197h2.43657c.6 0 .675.9525-.0591.9525h-3.23903z"/><path d="m12.4253 17.7628c0-.615.99-.6375.99 0v4.2797c0 .6216-.99.6375-.99 0z"/><path d="m14.7437 17.7629c0-.2475.195-.5175.51-.5175h1.7315c.975 0 1.8525.6525 1.8525 1.9031 0 1.185-.8775 1.845-1.8525 1.845h-1.2515v.99c0 .33-.21.5165-.48.5165-.2475 0-.51-.1865-.51-.5165zm.989.4265v1.8675h1.2516c.5025 0 .9-.4434.9-.9084 0-.5241-.3975-.9591-.9-.9591z"/></g><path d="m23.4375 25.3125h-17.8125v.9375h17.8125c.5156 0 .9375-.4219.9375-.9375v-.9375c0 .5156-.4219.9375-.9375.9375z" fill="#cad1d8"/></svg>