<?xml version="1.0" standalone="no"?>
<!DOCTYPE svg PUBLIC "-//W3C//DTD SVG 20010904//EN"
 "http://www.w3.org/TR/2001/REC-SVG-20010904/DTD/svg10.dtd">
<svg version="1.0" xmlns="http://www.w3.org/2000/svg"
 width="700.000000pt" height="700.000000pt" viewBox="0 0 700.000000 700.000000"
 preserveAspectRatio="xMidYMid meet">
<metadata>
Created by potrace 1.14, written by Peter Selinger 2001-2017
</metadata>
<g transform="translate(0.000000,700.000000) scale(0.100000,-0.100000)"
fill="#000000" stroke="none">
<path d="M3210 5775 c-939 -122 -1705 -799 -1936 -1708 -66 -260 -83 -599 -45
-864 72 -487 278 -903 621 -1257 192 -198 380 -335 631 -460 324 -161 654
-238 1024 -238 513 0 984 157 1394 465 312 234 576 573 726 932 110 263 175
565 175 817 l0 98 -405 0 c-223 0 -405 -1 -405 -2 0 -2 -5 -59 -10 -128 -11
-148 -30 -250 -72 -374 -75 -224 -205 -425 -386 -598 -437 -416 -1097 -520
-1651 -262 -268 125 -521 361 -663 616 -248 449 -243 989 12 1434 236 412 696
703 1150 730 52 3 110 7 128 10 l32 5 0 399 0 400 -112 -1 c-62 -1 -156 -7
-208 -14z"/>
</g>
</svg>
