<svg width="121" height="32" fill="none" xmlns="http://www.w3.org/2000/svg"><path d="M34.044 25.528V8.178h-7.231V6.01h16.626v2.17h-7.227v17.349h-2.168zm40.59-11.191a8.326 8.326 0 018.326-8.326h6.855v2.168h-6.534a6.479 6.479 0 00-6.48 6.478v2.23a6.48 6.48 0 006.48 6.478h6.534v2.168H82.96c-4.6 0-8.326-3.73-8.326-8.326v-2.87zm20.522-3.99h-2.168v15.181h2.168V10.347zm0-4.337h-2.168v2.17h2.168V6.01zm-42.849 4.337H44.44v2.168h7.548c1.023 0 1.852.83 1.852 1.852v1.766h-6.417a3.7 3.7 0 00-3.7 3.7v1.996a3.7 3.7 0 003.7 3.699h7.2c.77 0 1.39-.62 1.39-1.39V14.053a3.709 3.709 0 00-3.705-3.705zM53.84 23.36h-6.102a1.853 1.853 0 01-1.852-1.852v-1.359c0-1.023.83-1.853 1.852-1.853h6.102v5.064zm13.926-13.013h-7.201c-.769 0-1.39.62-1.39 1.39v13.791h2.168V12.515h6.102c1.023 0 1.853.83 1.853 1.852v11.161h2.168V14.052a3.701 3.701 0 00-3.7-3.705zm36.747 13.013a1.853 1.853 0 01-1.853-1.853v-8.992h3.614v-2.168h-3.614V6.01h-2.168v4.336h-2.168v2.168h2.168v9.313a3.7 3.7 0 003.7 3.7h2.804V23.36h-2.483zm14.334-13.013v5.38c0 1.022-.83 1.851-1.853 1.851h-3.532a1.852 1.852 0 01-1.852-1.852v-5.38h-2.168v5.696a3.7 3.7 0 003.7 3.7h4.163c.549 0 1.063-.123 1.532-.336v2.096c0 1.023-.83 1.853-1.853 1.853h-6.825v2.168h7.141a3.7 3.7 0 003.7-3.7V10.347h-2.153z" fill="#2D3388"/><path d="M0 6v9.008h9.008v-.239a5.764 5.764 0 011.496-3.873 5.741 5.741 0 014.265-1.893h4.743V6H0zm10.51 10.75a5.765 5.765 0 01-1.497 3.873 5.741 5.741 0 01-4.265 1.893H0v3.003h19.512V16.51h-9.008v.239h.005zm0-1.761v.02h9.007v-4.504h-4.524a4.48 4.48 0 00-4.484 4.484zM9.007 16.53v-.02H0v4.504h4.524a4.487 4.487 0 004.484-4.484z" fill="url(#paint0_linear)"/><path d="M4.504 0h-.02A4.484 4.484 0 000 4.484v.02h9.008V0H4.504z" fill="#0099DB"/><path d="M15.008 31.518h.02a4.484 4.484 0 004.484-4.484v-.02h-9.008v4.504h4.504z" fill="#5A308D"/><defs><linearGradient id="paint0_linear" x1=".922" y1="5.229" x2="18.593" y2="26.288" gradientUnits="userSpaceOnUse"><stop stop-color="#0099DB"/><stop offset=".477" stop-color="#32338E"/><stop offset=".528" stop-color="#3A338E"/><stop offset=".711" stop-color="#52318D"/><stop offset=".808" stop-color="#5A308D"/></linearGradient></defs></svg>