<?xml version="1.0" standalone="no"?>
<!DOCTYPE svg PUBLIC "-//W3C//DTD SVG 20010904//EN"
 "http://www.w3.org/TR/2001/REC-SVG-20010904/DTD/svg10.dtd">
<svg version="1.0" xmlns="http://www.w3.org/2000/svg"
 width="500.000000pt" height="500.000000pt" viewBox="0 0 500.000000 500.000000"
 preserveAspectRatio="xMidYMid meet">
<metadata>
Created by potrace 1.14, written by Peter Selinger 2001-2017
</metadata>
<g transform="translate(0.000000,500.000000) scale(0.100000,-0.100000)"
fill="#000000" stroke="none">
<path d="M1820 4709 c-151 -30 -142 -172 17 -249 34 -17 65 -35 68 -40 15 -25
86 -50 137 -49 l53 2 -55 7 c-54 7 -113 30 -125 50 -4 6 -33 24 -64 40 -68 34
-108 77 -117 125 -8 44 -2 59 31 81 23 15 36 16 108 7 45 -6 97 -15 116 -21
l34 -11 -22 23 c-18 19 -104 49 -129 45 -4 -1 -27 -5 -52 -10z"/>
<path d="M1632 4650 c-14 -23 -16 -50 -3 -50 7 0 23 60 17 67 -1 1 -7 -7 -14
-17z"/>
<path d="M2026 4627 c3 -10 9 -15 12 -12 3 3 0 11 -7 18 -10 9 -11 8 -5 -6z"/>
<path d="M1935 4570 c-8 -13 5 -13 25 0 13 8 13 10 -2 10 -9 0 -20 -4 -23 -10z"/>
<path d="M1631 4567 c-1 -12 29 -68 50 -96 23 -29 23 -35 4 -54 -13 -13 3 -26
128 -105 230 -144 253 -153 410 -153 153 0 158 4 12 10 -127 6 -132 7 -215 47
-47 23 -94 48 -104 56 -20 16 -16 15 197 -21 50 -9 90 -8 172 4 77 11 125 42
125 79 -1 20 -1 20 -11 3 -15 -26 -87 -57 -134 -57 -22 0 -85 9 -140 19 -55
11 -131 24 -168 30 -43 6 -96 23 -145 48 -78 39 -86 47 -169 179 -6 10 -12 15
-12 11z"/>
<path d="M1906 4552 c-10 -17 1 -46 25 -68 16 -14 34 -18 86 -16 37 1 72 -3
80 -9 7 -6 21 -8 30 -4 31 12 -45 37 -92 31 -46 -7 -100 20 -114 56 -5 14 -10
18 -15 10z"/>
<path d="M1705 4350 c-3 -5 -1 -10 4 -10 6 0 11 5 11 10 0 6 -2 10 -4 10 -3 0
-8 -4 -11 -10z"/>
<path d="M1809 4268 c11 -15 7 -26 -36 -85 -77 -106 -98 -137 -85 -129 6 3 0
-18 -13 -49 -35 -77 -31 -79 15 -10 22 33 40 58 40 55 0 -3 -11 -32 -25 -65
-46 -112 -29 -101 52 33 22 35 26 21 7 -24 -19 -46 -16 -43 32 22 44 60 41 46
-25 -118 -6 -16 -8 -28 -5 -28 10 0 66 63 93 105 67 103 114 159 134 162 12 1
43 -3 69 -10 38 -10 52 -21 81 -62 72 -103 144 -244 106 -207 -22 21 -31 13
-24 -20 l7 -33 -22 20 -23 20 12 -22 c6 -12 16 -34 22 -50 l10 -28 -28 28
c-33 31 -43 34 -43 11 0 -8 -4 -13 -9 -9 -12 7 -4 -71 10 -97 15 -28 -4 -22
-36 12 -31 33 -43 33 -25 1 9 -17 8 -21 -5 -21 -8 0 -15 -6 -15 -14 0 -8 -7
-22 -16 -31 -12 -11 -13 -19 -5 -29 6 -7 18 -30 27 -52 l16 -39 -41 39 c-45
44 -59 43 -43 -4 9 -24 8 -29 -1 -23 -7 4 -14 8 -17 9 -3 0 -18 6 -34 13 -16
6 -31 9 -34 6 -3 -2 12 -31 32 -62 l38 -58 -52 55 -51 55 6 -40 c3 -22 1 -47
-4 -54 -12 -19 0 -42 52 -101 60 -69 67 -93 7 -27 -29 32 -60 62 -70 67 -53
29 -100 -45 -100 -157 0 -74 7 -98 52 -173 26 -43 61 -130 54 -130 -2 0 -18
21 -35 48 -32 50 -146 156 -134 125 5 -14 4 -16 -8 -7 -8 6 -23 11 -35 11 -33
2 -23 -32 24 -78 45 -45 73 -108 100 -224 25 -106 24 -490 -1 -600 -46 -197
-179 -366 -452 -574 -60 -46 -129 -104 -153 -130 -48 -52 -236 -326 -204 -297
13 11 30 16 42 13 11 -3 37 3 57 13 34 16 38 16 49 2 6 -8 18 -13 27 -9 9 3
18 1 20 -6 3 -9 8 -8 20 2 10 7 17 9 17 3 0 -6 13 -7 35 -2 23 5 35 4 38 -4 3
-7 15 -5 38 7 30 17 33 17 42 2 8 -15 11 -15 25 -2 10 9 34 18 55 22 20 4 40
11 43 17 4 5 10 5 17 0 14 -11 77 -4 77 9 0 14 28 11 33 -3 4 -10 6 -10 6 0 1
6 12 12 25 12 15 0 32 11 45 28 l20 27 7 -32 c8 -39 14 -40 40 -12 10 12 29
25 41 30 15 5 27 24 36 55 12 40 15 44 20 25 3 -13 10 -20 16 -16 7 4 11 -11
11 -43 0 -40 14 -106 26 -120 1 -2 15 3 31 11 41 21 251 31 370 17 95 -11 99
-13 134 -50 25 -28 32 -41 22 -44 -7 -3 -59 2 -116 10 -77 12 -146 15 -282 11
-164 -5 -196 -9 -360 -47 -207 -47 -255 -60 -255 -71 0 -7 29 -3 60 8 8 3 29
7 45 9 17 2 43 9 59 14 16 6 48 10 71 10 36 0 44 -4 49 -22 8 -33 7 -38 -6
-33 -7 3 -26 -6 -42 -20 -16 -14 -33 -25 -38 -25 -4 0 -8 -11 -8 -25 0 -14 -4
-25 -10 -25 -5 0 -24 -15 -41 -33 -17 -17 -33 -31 -36 -29 -3 2 -13 -8 -23
-23 -11 -17 -20 -23 -24 -16 -4 6 -16 11 -26 11 -11 0 -29 14 -42 30 -27 37
-38 38 -38 5 0 -24 -14 -34 -24 -16 -3 4 -38 16 -78 26 -40 9 -82 22 -93 28
-11 6 -25 10 -32 9 -6 -1 -14 2 -18 8 -5 8 -11 7 -22 -2 -13 -10 -18 -9 -33 9
-13 16 -20 19 -29 10 -8 -8 -11 -8 -11 1 0 7 -9 12 -20 12 -11 0 -20 5 -20 11
0 6 -9 4 -21 -5 -15 -10 -28 -12 -44 -6 -13 5 -32 6 -43 3 -15 -4 -20 0 -19
14 1 12 -4 17 -15 15 -11 -2 -18 3 -18 13 0 8 -5 15 -11 15 -7 0 -8 7 -4 17
20 55 -123 -117 -173 -207 -128 -230 -105 -393 75 -512 82 -54 218 -108 343
-135 43 -10 287 -9 400 1 30 3 87 8 125 11 39 3 93 11 120 17 28 5 64 11 80
13 32 3 142 30 185 44 159 55 285 72 530 72 91 0 203 4 250 10 47 5 123 12
170 15 47 2 102 6 124 9 47 5 205 51 266 77 65 28 249 147 260 168 14 26 12
33 -6 26 -12 -5 -14 -1 -9 15 7 21 6 21 -16 5 -13 -9 -27 -16 -30 -16 -9 0 1
41 14 58 16 21 1 25 -32 8 -43 -23 -46 -20 -17 15 31 37 33 53 5 46 -18 -5
-20 -2 -16 19 2 13 4 24 3 24 -1 0 -16 -4 -34 -9 -38 -11 -39 -9 -11 30 18 26
18 33 -3 30 -3 0 0 13 9 29 8 16 11 35 7 41 -6 10 71 89 86 89 15 -1 28 -18
27 -35 -1 -14 5 -21 21 -23 16 -3 22 -10 22 -30 l1 -27 21 25 21 25 -5 -25
c-3 -14 -9 -33 -13 -42 -5 -14 -2 -18 14 -18 12 0 21 -6 21 -16 0 -11 6 -14
21 -9 19 6 21 4 16 -15 -7 -26 1 -52 14 -44 5 3 6 -1 3 -9 -3 -8 1 -17 9 -20
19 -7 51 28 110 118 51 77 63 92 101 118 14 10 29 30 32 45 4 15 16 47 28 72
17 37 21 64 21 155 0 101 -2 115 -29 170 -31 62 -129 168 -202 218 -39 26
-127 59 -246 92 -32 8 -73 29 -91 44 l-33 29 -19 173 c-10 95 -21 186 -25 203
l-6 31 -26 -50 c-14 -27 -32 -69 -39 -93 -8 -29 -15 -39 -21 -30 -16 26 -7 71
43 200 28 73 55 151 61 173 6 22 13 47 15 55 3 10 12 2 26 -23 11 -20 26 -36
32 -34 14 5 18 136 6 203 -14 76 17 226 54 260 14 13 25 28 25 33 0 6 42 32
93 57 50 26 117 63 147 82 30 20 80 48 110 63 72 36 170 131 163 159 -3 11 -1
20 5 20 17 0 -4 70 -29 96 -29 31 -143 86 -244 118 -267 83 -350 110 -435 142
-115 43 -390 175 -517 250 -109 65 -162 89 -303 138 -58 21 -112 40 -120 43
-8 3 -18 5 -23 5 -4 -1 -26 2 -50 8 -24 5 -99 10 -167 11 -68 0 -133 5 -144 9
-38 15 -61 23 -73 26 -21 4 -83 45 -83 55 0 4 -6 6 -13 3 -8 -3 -20 2 -27 11
-7 8 -17 15 -23 15 -6 0 -20 8 -31 18 -19 16 -20 16 -7 0z m524 -158 c24 0 26
-3 18 -19 -8 -14 -6 -23 9 -36 11 -10 18 -21 15 -25 -2 -4 1 -7 8 -8 7 0 21
-3 33 -7 13 -4 27 -1 36 8 18 19 41 6 36 -19 -2 -12 -12 -19 -26 -18 -12 0
-22 -3 -22 -7 0 -12 39 -18 43 -6 6 18 37 -1 47 -28 12 -31 17 -32 16 -2 -1
12 -10 27 -21 32 -11 6 -21 20 -23 32 -2 12 -14 29 -28 37 -13 9 -24 21 -24
27 0 13 61 2 75 -14 17 -20 49 -43 41 -29 -4 7 -1 12 9 12 22 0 58 -20 69 -38
6 -10 10 -11 15 -3 11 17 212 -85 205 -104 -3 -7 -1 -16 5 -20 7 -3 8 0 5 9
-8 21 -1 20 44 -4 66 -35 70 -39 32 -37 -19 1 -42 6 -50 11 -12 7 -13 6 -2 -5
17 -18 15 -27 -8 -39 -16 -8 -28 -8 -50 4 l-30 14 17 -22 c15 -20 21 -21 59
-13 32 8 54 6 91 -6 26 -8 64 -18 83 -22 19 -4 82 -29 140 -55 58 -26 151 -64
208 -85 56 -20 104 -40 107 -44 3 -6 -96 -22 -230 -37 -16 -2 -48 -6 -70 -8
-198 -23 -241 -20 -327 25 -10 5 -18 6 -18 1 0 -4 26 -22 59 -40 80 -44 105
-43 456 20 165 30 259 23 432 -28 170 -51 263 -108 263 -163 0 -48 -16 -55
-28 -12 -23 74 -125 126 -301 151 -101 15 -266 2 -421 -35 -57 -13 -155 -30
-218 -37 -157 -17 -202 -7 -292 67 -38 31 -71 63 -75 73 -5 14 -7 14 -15 2
-14 -23 -43 0 -55 43 -5 19 -14 39 -18 44 -10 9 2 -44 15 -70 20 -39 -37 -63
-78 -32 -10 8 -28 15 -38 15 -30 0 -56 30 -56 63 0 25 -2 27 -15 17 -18 -15
-52 -4 -66 21 -21 40 29 124 61 104 6 -3 11 -18 11 -33 1 -15 3 -20 5 -12 3
10 18 15 47 15 35 0 42 -4 45 -22 2 -13 -7 -28 -24 -42 -15 -11 -21 -21 -15
-21 7 0 22 11 35 25 13 14 30 25 37 25 8 0 25 7 37 16 21 14 23 14 34 -10 6
-15 19 -26 29 -26 24 0 45 -38 30 -53 -6 -6 -11 -20 -10 -31 0 -20 1 -20 9 2
12 27 18 28 46 1 23 -21 44 -19 44 5 0 7 -9 21 -20 31 -17 15 -17 19 -4 32 13
14 13 18 -6 39 -12 12 -19 27 -15 33 3 6 2 11 -2 11 -5 0 -13 -10 -18 -22 -23
-50 -75 -45 -75 9 l0 24 -26 -20 c-31 -25 -72 -27 -80 -6 -4 9 -1 29 6 45 10
25 16 28 40 23 22 -4 31 0 39 15 15 28 14 40 -1 20 -7 -9 -26 -18 -43 -20 -21
-2 -34 -12 -45 -33 -8 -16 -19 -33 -25 -37 -19 -15 -54 -8 -69 13 -11 16 -21
20 -43 15 -38 -9 -83 25 -83 61 0 22 -3 24 -31 18 -39 -9 -69 16 -69 58 0 26
3 29 23 23 12 -3 27 -6 34 -6 6 0 13 -8 15 -17 3 -13 6 -10 10 9 3 18 0 32 -9
39 -11 9 -12 9 -7 -4 4 -12 1 -14 -14 -10 -14 3 -18 11 -15 26 3 16 2 18 -5 9
-5 -7 -21 -20 -36 -27 -26 -14 -28 -13 -46 18 -24 39 -24 41 -5 57 12 10 19
10 27 2 7 -7 19 -12 28 -12 9 1 3 7 -12 16 -21 11 -28 22 -28 44 0 30 18 41
55 34 11 -2 33 -4 48 -4z m-113 -24 c0 -31 -10 -56 -21 -56 -17 0 -49 40 -49
60 0 16 7 20 35 20 30 0 35 -3 35 -24z m195 6 c6 -4 18 -17 28 -29 18 -21 18
-22 -2 -33 -15 -7 -27 -8 -41 0 -24 13 -43 47 -35 60 7 12 36 13 50 2z m-55
-264 c0 -6 7 -20 17 -30 15 -17 15 -18 -13 -18 -17 0 -35 5 -42 12 -18 18 -15
46 6 51 21 4 32 -1 32 -15z m50 -82 c0 -18 -35 -27 -49 -13 -18 18 -12 27 19
27 19 0 30 -5 30 -14z m290 -207 c0 -6 10 -25 22 -42 l21 -32 -31 29 c-31 29
-42 56 -22 56 6 0 10 -5 10 -11z m-491 -294 c27 -44 68 -116 91 -160 44 -81
59 -104 47 -72 -18 47 -17 48 8 7 31 -51 215 -414 215 -423 0 -4 23 -59 50
-123 28 -64 50 -119 49 -123 0 -3 -34 62 -75 144 -41 83 -72 142 -69 132 3
-10 1 -15 -5 -12 -6 3 -10 11 -10 16 0 16 -165 350 -221 445 -115 197 -146
250 -163 279 l-18 30 26 -30 c14 -16 48 -66 75 -110z m-165 33 c10 -15 15 -28
13 -28 -6 0 -67 88 -67 97 0 9 31 -29 54 -69z m1610 -50 c-21 -24 -45 -48 -53
-54 -21 -16 -24 -47 -3 -39 14 5 14 4 -1 -13 -9 -10 -17 -23 -17 -29 0 -12
-71 -48 -114 -59 -33 -8 -41 -21 -26 -39 11 -13 6 -15 -26 -16 l-39 -1 40 -9
c22 -4 64 -8 93 -8 58 -1 64 -10 26 -40 -46 -36 -141 -23 -307 40 -42 16 -114
38 -159 49 -45 11 -88 26 -96 34 -32 32 55 44 137 19 9 -2 -6 7 -33 20 -47 24
-130 96 -121 105 2 2 20 -6 39 -18 20 -12 40 -19 45 -15 6 3 50 -26 98 -66 48
-39 98 -75 111 -80 27 -10 83 -22 65 -13 -7 3 -13 11 -13 17 0 7 -22 20 -49
30 -39 14 -52 24 -66 55 -10 20 -19 40 -22 44 -2 4 31 -5 74 -19 68 -23 84
-25 135 -17 32 6 58 6 58 2 0 -20 194 97 234 141 11 11 21 21 24 21 2 0 -13
-19 -34 -42z m257 -27 c-24 -44 -306 -235 -336 -227 -11 3 -30 6 -42 6 -16 0
-21 4 -17 15 4 8 14 15 24 15 11 0 22 5 25 10 4 6 10 8 15 5 4 -3 10 1 13 8 3
8 44 33 91 57 48 23 89 47 92 51 3 5 14 9 25 9 10 0 19 5 19 10 0 6 5 10 11
10 6 0 24 11 41 25 36 30 53 33 39 6z m-1951 -101 c0 -22 -4 -40 -10 -40 -11
0 -13 39 -4 64 10 26 14 19 14 -24z m1050 -225 c0 -27 -4 -56 -9 -64 -11 -17
-31 -6 -32 17 0 10 -3 12 -6 5 -3 -9 -10 -9 -28 3 -24 15 -24 17 -9 47 28 55
43 68 65 54 15 -9 19 -23 19 -62z m-87 -63 c21 -18 33 -32 27 -32 -6 0 -32 21
-58 47 -48 47 -36 42 31 -15z m194 -124 c-2 -24 -4 -5 -4 42 0 47 2 66 4 43 2
-24 2 -62 0 -85z m154 55 c-12 -20 -14 -14 -5 12 4 9 9 14 11 11 3 -2 0 -13
-6 -23z m-50 -30 c-12 -20 -14 -14 -5 12 4 9 9 14 11 11 3 -2 0 -13 -6 -23z
m-777 -128 c40 -77 80 -149 89 -160 18 -21 189 -376 184 -381 -3 -4 -87 139
-99 167 -4 9 -12 20 -18 24 -21 13 -256 499 -238 493 6 -2 43 -67 82 -143z
m757 78 c-12 -20 -14 -14 -5 12 4 9 9 14 11 11 3 -2 0 -13 -6 -23z m-1243 -90
l-1 -98 -7 90 c-6 84 -5 105 6 105 2 0 3 -44 2 -97z m1120 9 c20 -15 8 -41
-26 -53 -18 -7 -23 -4 -28 16 -4 14 0 33 10 47 9 12 17 36 18 53 1 23 2 21 5
-10 2 -22 12 -46 21 -53z m-833 -157 c-49 -129 -134 -313 -149 -322 -5 -4 -7
-2 -4 3 32 57 77 168 72 176 -4 6 -2 8 3 5 7 -4 11 2 11 16 0 23 76 247 95
282 11 19 12 18 15 -10 2 -19 -15 -79 -43 -150z m-99 -28 c-55 -160 -94 -255
-120 -297 l-27 -45 5 38 c3 20 30 92 59 160 30 67 65 151 78 187 13 37 25 57
27 47 2 -10 -8 -50 -22 -90z m1028 -131 c-3 -15 -8 -25 -11 -23 -2 3 -1 17 3
31 3 15 8 25 11 23 2 -3 1 -17 -3 -31z m-33 -118 c-12 -41 -21 -81 -21 -89 0
-8 23 -38 50 -68 28 -29 50 -59 50 -67 0 -26 -42 -14 -73 20 -54 58 -59 66
-53 94 8 39 60 191 64 187 2 -2 -6 -37 -17 -77z m-1236 -293 c-9 -41 -19 -75
-22 -75 -8 0 5 98 19 145 19 65 21 13 3 -70z m1382 7 c7 -4 9 -13 4 -21 -10
-16 -31 -6 -31 15 0 16 9 18 27 6z m-1458 -187 l-13 -70 -7 40 c-6 38 3 138
19 194 13 49 15 -90 1 -164z m-53 35 c-3 -44 -11 -90 -16 -102 l-9 -23 -7 22
c-3 13 -11 20 -16 17 -12 -7 -10 -1 22 94 13 39 26 72 28 72 3 0 2 -36 -2 -80z
m771 38 c-3 -8 -6 -5 -6 6 -1 11 2 17 5 13 3 -3 4 -12 1 -19z m1092 -144 c-1
-69 1 -127 4 -130 8 -8 25 55 31 117 3 30 12 72 19 94 l13 38 12 -29 c7 -16
14 -46 17 -67 2 -21 7 -42 10 -48 4 -5 2 -16 -4 -23 -7 -8 -8 -23 -4 -37 10
-30 10 -60 0 -76 -5 -7 -3 -21 3 -32 14 -27 13 -48 -4 -54 -9 -4 -34 14 -65
45 l-50 50 -6 -34 c-4 -23 -1 -48 10 -73 10 -26 13 -49 8 -70 -4 -16 -8 -34
-8 -40 -2 -23 -17 -55 -26 -55 -5 0 -16 17 -26 38 -19 42 -27 126 -10 115 6
-4 8 3 3 21 -4 18 -3 25 4 21 17 -10 11 25 -9 53 -33 47 -61 110 -61 137 0 56
79 165 120 165 20 0 21 -3 19 -126z m-1959 -3 c-24 -98 -31 -123 -36 -119 -7
7 15 148 29 188 l12 35 3 -29 c2 -16 -1 -50 -8 -75z m-99 -39 c-5 -26 -15 -61
-22 -77 l-12 -30 -7 35 -6 35 -19 -35 c-17 -30 -20 -32 -23 -14 -3 19 41 134
51 134 2 0 2 -12 -1 -26 -7 -35 11 -24 29 18 17 42 23 20 10 -40z m46 -13
c-12 -44 -23 -76 -25 -69 -6 16 29 150 38 150 4 0 -2 -36 -13 -81z m1161 -179
c6 -14 11 -18 11 -10 1 8 11 -1 23 -20 l23 -35 5 44 c6 52 17 44 45 -31 10
-27 22 -45 28 -41 5 3 16 -3 24 -13 12 -17 13 -14 8 26 -4 25 -8 51 -11 58 -8
27 5 9 32 -44 34 -68 44 -75 44 -32 l1 33 13 -31 c15 -33 36 -53 36 -34 0 6 5
8 10 5 6 -3 10 2 11 12 0 12 6 7 17 -15 11 -23 22 -32 34 -29 29 8 64 -135 36
-146 -17 -6 -238 3 -258 10 -8 3 -37 7 -65 8 -154 7 -230 26 -262 67 -12 16
-23 245 -14 308 l6 44 19 -59 c10 -33 21 -55 23 -49 7 20 51 -8 59 -36 l6 -25
9 24 c9 23 10 23 23 5 14 -18 15 -18 21 6 3 14 1 55 -4 90 -16 99 -12 103 14
15 12 -44 27 -91 33 -105z m-1353 59 c-15 -38 -29 -69 -31 -69 -11 0 23 127
39 149 23 28 19 -12 -8 -80z m-66 -15 c-37 -91 -45 -103 -35 -54 7 37 55 144
62 137 2 -2 -10 -39 -27 -83z m-58 -11 c-12 -20 -14 -14 -5 12 4 9 9 14 11 11
3 -2 0 -13 -6 -23z m2087 -203 l64 -65 -7 35 c-13 68 -17 115 -8 105 4 -5 18
-15 30 -22 19 -11 22 -10 25 10 3 17 7 13 18 -20 7 -24 19 -43 26 -43 7 0 19
-18 25 -40 16 -52 2 -104 -29 -108 -12 -2 -22 -8 -22 -14 0 -5 -7 -7 -16 -4
-8 3 -13 2 -11 -2 3 -4 1 -18 -4 -31 -8 -21 -13 -23 -57 -16 -86 12 -130 47
-226 177 -37 50 -61 143 -31 118 10 -8 15 -9 15 -2 0 17 43 19 68 4 20 -13 22
-13 22 9 l0 22 28 -24 c15 -13 56 -53 90 -89z m592 50 c6 -11 8 -20 6 -20 -3
0 -10 9 -16 20 -6 11 -8 20 -6 20 3 0 10 -9 16 -20z m-30 -40 c1 21 21 -15 24
-43 2 -12 6 -32 10 -44 13 -42 -3 -24 -34 37 -33 65 -38 85 -15 54 11 -14 15
-16 15 -4z m11 -92 c24 -47 16 -50 -11 -5 -24 39 -25 33 -4 -18 8 -20 10 -34
5 -30 -6 3 -11 -2 -11 -12 -1 -14 -4 -13 -14 7 -7 14 -16 36 -20 50 -5 19 -2
16 13 -10 24 -42 27 -36 5 15 -9 23 -11 34 -3 30 8 -5 9 0 4 16 -8 30 6 12 36
-43z m-1858 13 c-11 -8 -58 -81 -66 -104 -4 -10 -11 -16 -16 -12 -6 3 -22 -10
-37 -29 -21 -26 -31 -32 -41 -24 -7 6 -13 18 -13 27 0 9 -9 40 -20 69 -11 29
-20 56 -20 60 0 5 30 9 68 9 65 1 110 7 119 17 3 3 12 2 20 -1 8 -3 11 -9 6
-12z m-2 -425 c-31 -57 -57 -103 -59 -101 -7 7 101 205 112 205 2 0 -22 -47
-53 -104z m-1236 -78 c-28 -96 -43 -129 -30 -68 10 54 47 171 52 166 3 -3 -7
-46 -22 -98z m1570 29 c-43 -51 -236 -231 -213 -199 51 74 220 240 246 242 2
0 -13 -19 -33 -43z m107 31 c-7 -7 -12 -20 -12 -29 0 -16 -110 -136 -160 -173
-14 -10 -34 -26 -44 -35 -18 -15 -18 -15 -7 7 28 54 65 98 138 167 43 41 82
74 88 75 5 0 4 -5 -3 -12z m-1546 -60 c-10 -110 -27 -152 -39 -93 -4 24 29
155 40 155 3 0 2 -28 -1 -62z m66 19 c2 -43 9 -46 31 -14 15 21 16 20 10 -25
-7 -56 0 -61 23 -17 12 24 18 29 24 18 7 -11 10 -9 15 6 19 57 24 60 24 16 1
-33 6 -47 26 -62 15 -13 22 -26 18 -36 -4 -11 -3 -14 5 -9 7 4 12 25 12 47 0
53 20 50 22 -3 1 -50 1 -54 -11 -128 -8 -53 -9 -53 -10 -15 -2 22 -6 49 -10
60 -7 18 -9 17 -26 -8 -12 -19 -21 -24 -25 -17 -4 7 -11 -5 -15 -26 -6 -35 -8
-37 -20 -20 -8 10 -18 15 -24 12 -5 -3 -12 8 -16 24 -8 36 -26 35 -36 -1 -5
-18 -7 -13 -8 21 -2 43 -2 44 -15 21 -13 -23 -14 -23 -18 -5 -5 17 -6 17 -15
-6 -9 -23 -11 -21 -17 20 -6 42 1 76 39 179 8 21 14 10 17 -32z m-131 -29
c-16 -72 -31 -95 -31 -46 0 35 28 113 38 104 2 -3 -1 -28 -7 -58z m1343 50
c-18 -32 -85 -126 -108 -153 l-26 -30 11 31 c9 29 112 164 125 164 3 0 2 -6
-2 -12z m421 -24 c-17 -14 -24 -23 -17 -19 30 15 8 -15 -33 -44 -25 -18 -45
-35 -45 -37 0 -3 12 3 28 14 44 32 115 65 142 67 14 2 34 6 45 10 11 4 1 -6
-22 -23 -50 -37 -54 -43 -46 -70 5 -20 7 -20 32 -8 36 19 101 46 101 42 0 -2
-27 -20 -60 -40 -68 -42 -77 -53 -25 -32 39 16 48 6 13 -12 -26 -14 -228 -81
-228 -77 0 2 19 17 43 35 36 27 38 31 17 28 -14 -2 -42 -12 -62 -22 -21 -10
-49 -19 -63 -20 -14 0 -25 -5 -25 -10 0 -5 -3 -6 -7 -2 -5 4 17 30 47 58 62
56 53 54 -36 -9 -34 -24 -65 -43 -69 -43 -4 0 5 16 20 36 l28 36 -24 -7 c-13
-4 -37 -17 -54 -29 l-30 -21 30 39 c39 51 205 186 229 186 5 0 -1 -11 -14 -25
-13 -14 -21 -27 -19 -29 2 -3 31 10 64 28 68 37 83 37 40 0z m-1367 -169 c-1
-102 -2 -111 -8 -60 -11 86 -11 225 0 200 5 -11 8 -74 8 -140z m71 -20 c0 -36
-2 -46 -9 -35 -5 8 -9 58 -8 110 1 91 1 93 8 35 4 -33 8 -82 9 -110z m861 132
c0 -2 -10 -12 -22 -23 l-23 -19 19 23 c18 21 26 27 26 19z m660 -78 c-42 -37
-124 -76 -180 -85 -24 -4 -25 -4 -5 12 21 17 214 114 224 114 3 -1 -14 -19
-39 -41z m-1453 -41 c-3 -7 -5 -2 -5 12 0 14 2 19 5 13 2 -7 2 -19 0 -25z"/>
<path d="M2595 3960 c-3 -5 -1 -10 4 -10 6 0 11 5 11 10 0 6 -2 10 -4 10 -3 0
-8 -4 -11 -10z"/>
<path d="M2690 3940 c8 -5 20 -10 25 -10 6 0 3 5 -5 10 -8 5 -19 10 -25 10 -5
0 -3 -5 5 -10z"/>
<path d="M2402 3887 c0 -27 6 -41 21 -52 31 -22 43 -18 16 5 -19 16 -21 21
-10 29 11 7 11 10 -1 17 -8 5 -17 16 -20 24 -3 8 -6 -2 -6 -23z"/>
<path d="M2484 3902 c17 -19 18 -25 6 -47 -7 -14 -10 -28 -7 -32 4 -3 7 -1 7
5 0 7 8 20 18 30 17 17 16 19 -13 42 -27 22 -28 22 -11 2z"/>
<path d="M2575 3910 c-3 -5 -2 -10 4 -10 5 0 13 5 16 10 3 6 2 10 -4 10 -5 0
-13 -4 -16 -10z"/>
<path d="M2561 3882 c-1 -7 -5 -10 -11 -7 -17 11 -11 -52 7 -66 15 -13 15 -12
5 8 -19 35 -14 48 9 27 22 -19 22 -19 12 1 -6 11 -13 27 -16 35 -4 10 -6 11
-6 2z"/>
<path d="M2650 3876 c0 -2 11 -6 25 -8 13 -3 22 -1 19 3 -5 9 -44 13 -44 5z"/>
<path d="M2748 3811 c-3 -22 -1 -28 7 -21 7 5 15 6 20 2 6 -6 -12 36 -20 46
-1 2 -5 -11 -7 -27z"/>
<path d="M2598 3613 c-11 -3 -18 -13 -17 -26 1 -17 2 -18 6 -4 2 9 11 17 18
17 8 0 17 5 20 10 6 10 2 11 -27 3z"/>
<path d="M3338 2983 c6 -2 18 -2 25 0 6 3 1 5 -13 5 -14 0 -19 -2 -12 -5z"/>
<path d="M3960 1191 c0 -6 4 -13 10 -16 6 -3 7 1 4 9 -7 18 -14 21 -14 7z"/>
<path d="M1532 4203 c-33 -6 -60 -32 -84 -78 -11 -22 -26 -47 -34 -56 -21 -23
-90 -227 -108 -315 -8 -44 -18 -133 -22 -199 -6 -117 -6 -120 17 -141 25 -21
154 -104 164 -104 3 0 5 37 5 83 0 167 45 328 145 525 64 124 74 150 35 87
-27 -44 -40 -44 -40 0 0 20 -14 62 -30 95 -17 33 -26 60 -20 60 5 0 10 11 10
25 0 14 -3 24 -7 24 -5 -1 -18 -4 -31 -6z"/>
<path d="M2398 4153 c17 -2 32 -8 32 -13 0 -5 6 -7 13 -5 6 3 43 -6 82 -19 82
-29 99 -28 23 2 -70 28 -127 42 -158 40 -19 -1 -17 -2 8 -5z"/>
<path d="M3670 4149 c-14 -4 -18 -7 -10 -8 39 -3 93 -25 151 -61 40 -26 54
-31 36 -16 -15 14 -32 37 -37 50 -5 15 -15 24 -23 21 -7 -3 -31 1 -52 8 -23 8
-50 11 -65 6z"/>
<path d="M2765 4017 c23 -16 55 -28 55 -22 0 6 -56 35 -67 35 -4 0 1 -6 12
-13z"/>
<path d="M2837 3979 c7 -7 15 -10 18 -7 3 3 -2 9 -12 12 -14 6 -15 5 -6 -5z"/>
<path d="M2884 3956 c11 -9 24 -16 30 -16 12 0 7 5 -24 19 -24 11 -24 11 -6
-3z"/>
<path d="M2935 3931 c15 -15 128 -74 296 -155 41 -20 78 -36 81 -36 3 0 23 -7
44 -16 63 -27 347 -126 377 -131 15 -3 27 -8 27 -12 0 -4 8 -7 18 -8 48 -2
156 -40 257 -89 l50 -24 -30 25 c-20 17 -117 53 -285 108 -315 103 -534 189
-710 279 -74 38 -130 65 -125 59z"/>
<path d="M1739 3639 c-18 -35 -43 -89 -56 -119 -20 -46 -23 -49 -18 -20 4 19
9 44 12 55 11 38 -25 -3 -38 -43 -6 -20 -16 -41 -23 -47 -6 -5 -17 -23 -24
-38 -6 -15 -16 -26 -21 -22 -13 8 -33 -94 -29 -151 2 -27 8 -49 16 -52 6 -2
12 3 12 12 0 14 2 14 20 -1 11 -10 20 -23 20 -29 0 -16 28 -26 36 -12 4 7 9 6
14 -2 14 -22 29 0 51 73 12 40 31 92 44 117 12 25 28 63 35 85 7 22 18 47 25
55 7 8 14 29 16 45 5 71 -2 70 -47 -7 -24 -43 -47 -78 -49 -78 -2 0 9 32 26
71 35 85 35 87 8 63 -20 -18 -37 -51 -65 -124 -9 -25 -13 -29 -14 -14 0 27 32
121 65 185 14 29 23 54 21 56 -3 3 -19 -24 -37 -58z"/>
<path d="M1878 1193 c6 -2 18 -2 25 0 6 3 1 5 -13 5 -14 0 -19 -2 -12 -5z"/>
<path d="M933 1135 l-28 -24 45 -1 c27 0 40 4 32 8 -7 5 -10 16 -6 25 9 24
-11 21 -43 -8z"/>
<path d="M1427 1112 c-29 -7 -68 -11 -87 -8 -19 3 -46 2 -60 -1 -22 -6 -19 -9
24 -18 27 -6 51 -15 53 -21 5 -15 -69 -44 -95 -38 -13 4 -22 2 -22 -4 0 -9 39
-22 80 -27 3 0 10 -4 17 -8 6 -4 14 -3 18 3 4 7 12 7 25 0 16 -9 21 -6 26 15
4 14 1 32 -6 40 -21 25 -4 43 55 56 31 7 58 15 60 19 6 10 -33 7 -88 -8z"/>
<path d="M1105 1050 c-3 -5 -1 -10 4 -10 6 0 11 5 11 10 0 6 -2 10 -4 10 -3 0
-8 -4 -11 -10z"/>
</g>
</svg>
