<?xml version="1.0" standalone="no"?>
<!DOCTYPE svg PUBLIC "-//W3C//DTD SVG 20010904//EN"
 "http://www.w3.org/TR/2001/REC-SVG-20010904/DTD/svg10.dtd">
<svg version="1.0" xmlns="http://www.w3.org/2000/svg"
 width="260.000000pt" height="260.000000pt" viewBox="0 0 260.000000 260.000000"
 preserveAspectRatio="xMidYMid meet">
<metadata>
Created by potrace 1.11, written by Peter Selinger 2001-2013
</metadata>
<g transform="translate(0.000000,260.000000) scale(0.100000,-0.100000)"
fill="#000000" stroke="none">
<path d="M767 2589 c-150 -35 -256 -152 -281 -306 l-6 -43 365 0 365 0 0 180
0 180 -202 -1 c-112 -1 -220 -5 -241 -10z"/>
<path d="M480 1745 l0 -365 363 0 363 0 12 78 c28 178 145 324 307 384 54 20
83 22 303 26 l242 4 0 119 0 119 -795 0 -795 0 0 -365z"/>
<path d="M1630 1739 c-146 -29 -273 -163 -287 -305 l-6 -54 367 0 366 0 0 185
0 185 -197 -1 c-109 -1 -218 -5 -243 -10z"/>
<path d="M480 1074 l0 -186 223 4 c202 4 227 6 279 27 117 46 213 168 225 285
l6 56 -367 0 -366 0 0 -186z"/>
<path d="M1332 1183 c-31 -201 -167 -354 -353 -398 -47 -11 -123 -15 -281 -15
l-218 0 0 -120 0 -120 795 0 795 0 0 365 0 365 -363 0 -363 0 -12 -77z"/>
<path d="M1340 219 l0 -180 228 3 228 3 65 32 c110 54 190 162 205 276 l7 47
-367 0 -366 0 0 -181z"/>
</g>
</svg>
