<?xml version="1.0" standalone="no"?>
<!DOCTYPE svg PUBLIC "-//W3C//DTD SVG 20010904//EN"
 "http://www.w3.org/TR/2001/REC-SVG-20010904/DTD/svg10.dtd">
<svg version="1.0" xmlns="http://www.w3.org/2000/svg"
 width="2582.000000pt" height="2582.000000pt" viewBox="0 0 2582.000000 2582.000000"
 preserveAspectRatio="xMidYMid meet">
<metadata>
Created by potrace 1.11, written by Peter Selinger 2001-2013
</metadata>
<g transform="translate(0.000000,2582.000000) scale(0.100000,-0.100000)"
fill="#000000" stroke="none">
<path d="M8437 25814 c-1 -1 -47 -5 -102 -8 -94 -6 -140 -10 -210 -21 -16 -2
-52 -7 -80 -10 -27 -4 -57 -8 -65 -10 -8 -3 -33 -7 -55 -11 -22 -3 -60 -10
-85 -16 -25 -5 -52 -11 -60 -13 -8 -1 -35 -8 -60 -15 -25 -7 -52 -13 -60 -15
-8 -2 -42 -11 -75 -21 -33 -10 -64 -19 -70 -20 -43 -10 -269 -91 -333 -120
-29 -13 -55 -24 -57 -24 -9 0 -222 -105 -308 -152 -87 -49 -350 -216 -392
-250 -11 -9 -56 -45 -100 -79 -286 -223 -569 -526 -772 -829 -59 -88 -116
-179 -126 -200 -4 -8 -16 -30 -28 -49 -67 -111 -194 -380 -241 -511 -32 -89
-109 -333 -114 -360 -3 -14 -9 -38 -14 -55 -11 -39 -43 -190 -55 -267 -28
-167 -46 -352 -49 -519 l-3 -114 3688 0 3689 0 -2 1845 -3 1845 -1928 0
c-1061 0 -1929 -1 -1930 -1z"/>
<path d="M4924 17213 l1 -3688 3684 0 c2450 0 3685 3 3687 10 1 5 5 129 8 275
4 146 8 276 10 290 3 23 7 55 21 205 3 28 7 57 9 65 3 8 7 35 10 60 26 197
105 529 185 770 114 340 289 716 465 996 28 44 56 88 61 97 35 56 167 239 241
332 323 407 686 743 1104 1022 442 295 869 488 1410 638 19 6 189 45 215 51
87 17 175 34 200 38 17 3 44 7 60 10 17 3 50 7 75 11 25 3 61 7 80 10 19 3 62
7 94 11 32 3 77 9 100 11 23 3 988 7 2146 10 1157 2 2106 6 2109 8 3 4 5 2314
2 2428 l-1 27 -7988 0 -7989 0 1 -3687z"/>
<path d="M17147 17214 c-1 -1 -67 -4 -147 -8 -80 -3 -156 -8 -170 -10 -14 -3
-50 -7 -80 -10 -30 -4 -64 -8 -75 -10 -24 -4 -114 -18 -135 -21 -75 -10 -307
-67 -450 -112 -205 -64 -540 -208 -680 -293 -8 -5 -58 -35 -110 -66 -157 -93
-365 -244 -509 -369 -103 -89 -372 -367 -454 -470 -91 -114 -267 -371 -331
-485 -33 -59 -150 -294 -189 -381 -36 -79 -120 -321 -151 -434 -61 -217 -88
-351 -111 -540 -3 -33 -8 -71 -11 -84 -3 -25 -14 -200 -18 -318 -1 -35 0 -66
3 -71 3 -4 1663 -8 3689 -7 3266 0 3682 2 3683 15 4 73 3 3670 -1 3671 -9 1
-3752 4 -3753 3z"/>
<path d="M4923 10453 c0 -1675 2 -1843 16 -1844 77 -3 3869 2 3911 5 79 6 212
18 230 21 8 1 40 6 70 10 30 4 64 9 75 11 11 2 34 6 50 9 152 26 344 75 513
131 847 280 1580 879 2024 1654 30 52 62 111 71 130 10 19 22 42 27 50 30 50
150 331 185 435 32 96 75 239 81 268 3 17 7 33 9 37 2 3 6 17 8 31 3 13 10 44
17 69 7 25 14 56 16 70 2 14 6 36 9 50 3 14 8 41 11 60 3 19 7 46 10 60 6 35
25 188 29 230 2 19 6 107 10 196 l7 161 -3689 0 -3690 0 0 -1844z"/>
<path d="M13529 12296 c-1 -1 -2 -86 -4 -191 -2 -184 -11 -404 -20 -455 -2
-14 -7 -52 -10 -85 -3 -33 -8 -71 -10 -85 -15 -106 -28 -186 -41 -250 -8 -41
-16 -84 -18 -95 -67 -348 -232 -814 -414 -1169 -278 -544 -687 -1062 -1146
-1451 -32 -27 -64 -55 -70 -60 -6 -6 -58 -47 -116 -91 -436 -335 -911 -586
-1420 -752 -105 -34 -282 -85 -340 -97 -8 -2 -53 -12 -100 -23 -47 -11 -101
-23 -120 -27 -19 -3 -44 -7 -55 -9 -105 -20 -266 -41 -375 -50 -47 -4 -96 -10
-110 -13 -14 -3 -972 -7 -2130 -8 l-2105 -2 0 -1229 0 -1229 7988 -1 7987 -1
1 31 c1 41 1 7272 0 7312 l-1 31 -3685 0 c-2027 0 -3686 -1 -3686 -1z"/>
<path d="M13527 3685 c-3 -9 -1 -3663 2 -3675 2 -8 3852 -4 3961 4 52 3 111 8
130 11 19 3 55 7 80 10 25 3 70 10 100 15 30 5 73 12 95 15 22 3 47 7 55 10 8
2 26 6 40 9 144 26 500 136 637 197 23 11 44 19 48 19 13 0 279 133 370 185
157 90 366 231 474 320 179 147 420 383 526 515 33 41 65 80 71 85 21 19 244
338 244 349 0 3 15 29 34 58 98 154 231 445 314 688 33 96 60 180 61 185 1 6
6 28 12 50 6 22 13 51 15 65 3 14 7 33 10 42 12 39 42 193 49 253 4 28 8 57
10 65 2 8 7 42 10 75 3 33 8 71 10 85 3 14 7 88 11 165 3 77 7 155 8 173 2 17
0 33 -3 33 -3 1 -1663 2 -3688 3 -2450 1 -3684 -2 -3686 -9z"/>
</g>
</svg>
