<svg width="188" height="32" viewBox="0 0 188 32" fill="none" xmlns="http://www.w3.org/2000/svg">
<path d="M54.344 17.536L54.536 12.856H54.32L51.2 21.472L48.08 12.856H47.864L48.056 17.536V25H44.936V8.248H49.184L51.248 13.888H51.44L53.504 8.248H57.464V25H54.344V17.536ZM70.0786 25C69.3426 25 68.7506 24.816 68.3026 24.448C67.8546 24.064 67.5906 23.52 67.5106 22.816H67.3906C67.1666 23.632 66.7186 24.248 66.0466 24.664C65.3906 25.08 64.5826 25.288 63.6226 25.288C62.4226 25.288 61.4546 24.968 60.7186 24.328C59.9986 23.672 59.6386 22.76 59.6386 21.592C59.6386 20.296 60.1106 19.336 61.0546 18.712C61.9986 18.088 63.3826 17.776 65.2066 17.776H67.1986V17.152C67.1986 16.416 67.0226 15.864 66.6706 15.496C66.3346 15.112 65.7586 14.92 64.9426 14.92C64.1906 14.92 63.5826 15.064 63.1186 15.352C62.6546 15.64 62.2546 16.016 61.9186 16.48L59.9746 14.752C60.3906 14.048 61.0386 13.472 61.9186 13.024C62.8146 12.56 63.9586 12.328 65.3506 12.328C67.0466 12.328 68.3666 12.72 69.3106 13.504C70.2706 14.272 70.7506 15.44 70.7506 17.008V22.432H72.1186V25H70.0786ZM64.9666 22.96C65.5906 22.96 66.1186 22.808 66.5506 22.504C66.9826 22.2 67.1986 21.76 67.1986 21.184V19.696H65.3026C63.8466 19.696 63.1186 20.184 63.1186 21.16V21.64C63.1186 22.072 63.2866 22.4 63.6226 22.624C63.9586 22.848 64.4066 22.96 64.9666 22.96ZM74.5573 22.24H77.4133V15.376H74.5573V12.616H80.9653V16.12H81.1333C81.2453 15.672 81.3973 15.24 81.5893 14.824C81.7973 14.392 82.0533 14.016 82.3573 13.696C82.6773 13.36 83.0613 13.096 83.5093 12.904C83.9573 12.712 84.4853 12.616 85.0933 12.616H86.2693V15.88H83.6293C82.7493 15.88 82.0853 16.144 81.6373 16.672C81.1893 17.184 80.9653 17.816 80.9653 18.568V22.24H85.0453V25H74.5573V22.24ZM88.7319 7.24H92.2839V17.32H92.4519L94.1079 15.376L96.6999 12.616H100.78L95.9799 17.512L101.284 25H97.0599L93.4599 19.528L92.2839 20.704V25H88.7319V7.24ZM110.851 22.744H110.707C110.435 23.448 110.003 24.048 109.411 24.544C108.835 25.04 108.051 25.288 107.059 25.288C106.467 25.288 105.923 25.192 105.427 25C104.931 24.792 104.507 24.488 104.155 24.088C103.803 23.688 103.523 23.2 103.315 22.624C103.123 22.048 103.027 21.384 103.027 20.632V12.616H106.579V20.152C106.579 21.752 107.275 22.552 108.667 22.552C108.939 22.552 109.203 22.52 109.459 22.456C109.731 22.376 109.963 22.264 110.155 22.12C110.363 21.96 110.531 21.768 110.659 21.544C110.787 21.32 110.851 21.056 110.851 20.752V12.616H114.403V25H110.851V22.744ZM117.369 12.616H120.921V14.872H121.089C121.393 14.136 121.833 13.528 122.409 13.048C122.985 12.568 123.769 12.328 124.761 12.328C125.449 12.328 126.073 12.456 126.633 12.712C127.209 12.968 127.697 13.36 128.097 13.888C128.513 14.416 128.833 15.088 129.057 15.904C129.297 16.72 129.417 17.688 129.417 18.808C129.417 19.928 129.297 20.896 129.057 21.712C128.833 22.528 128.513 23.2 128.097 23.728C127.697 24.256 127.209 24.648 126.633 24.904C126.073 25.16 125.449 25.288 124.761 25.288C123.769 25.288 122.985 25.056 122.409 24.592C121.833 24.112 121.393 23.496 121.089 22.744H120.921V29.8H117.369V12.616ZM123.225 22.528C124.025 22.528 124.641 22.288 125.073 21.808C125.505 21.312 125.721 20.632 125.721 19.768V17.848C125.721 16.984 125.505 16.312 125.073 15.832C124.641 15.336 124.025 15.088 123.225 15.088C122.601 15.088 122.057 15.24 121.593 15.544C121.145 15.848 120.921 16.328 120.921 16.984V20.632C120.921 21.288 121.145 21.768 121.593 22.072C122.057 22.376 122.601 22.528 123.225 22.528ZM137.544 25.288C136.648 25.288 136 25.096 135.6 24.712C135.216 24.312 135.024 23.84 135.024 23.296V22.456C135.024 21.912 135.216 21.448 135.6 21.064C136 20.664 136.648 20.464 137.544 20.464C138.44 20.464 139.08 20.664 139.464 21.064C139.864 21.448 140.064 21.912 140.064 22.456V23.296C140.064 23.84 139.864 24.312 139.464 24.712C139.08 25.096 138.44 25.288 137.544 25.288ZM146.558 25V8.248H153.038C153.854 8.248 154.582 8.376 155.222 8.632C155.862 8.872 156.398 9.224 156.83 9.688C157.278 10.152 157.614 10.712 157.838 11.368C158.062 12.024 158.174 12.76 158.174 13.576C158.174 14.392 158.062 15.128 157.838 15.784C157.614 16.44 157.278 17 156.83 17.464C156.398 17.928 155.862 18.288 155.222 18.544C154.582 18.784 153.854 18.904 153.038 18.904H150.182V25H146.558ZM150.182 16H152.126C152.974 16 153.558 15.84 153.878 15.52C154.214 15.2 154.382 14.672 154.382 13.936V13.216C154.382 12.48 154.214 11.952 153.878 11.632C153.558 11.312 152.974 11.152 152.126 11.152H150.182V16ZM160.661 8.248H166.061C168.317 8.248 169.989 8.968 171.077 10.408C172.165 11.848 172.709 13.92 172.709 16.624C172.709 19.328 172.165 21.4 171.077 22.84C169.989 24.28 168.317 25 166.061 25H160.661V8.248ZM165.821 22.168C166.893 22.168 167.677 21.824 168.173 21.136C168.669 20.448 168.917 19.448 168.917 18.136V15.088C168.917 13.792 168.669 12.8 168.173 12.112C167.677 11.424 166.893 11.08 165.821 11.08H164.213V22.168H165.821ZM175.436 25V8.248H186.548V11.2H179.036V15.04H185.756V17.992H179.036V25H175.436Z" fill="#222222"/>
<path d="M25.0375 32H6.9625C3.11875 32 0 28.8813 0 25.0375V6.9625C0 3.11875 3.11875 0 6.9625 0H25.0375C28.8813 0 32 3.11875 32 6.9625V25.0375C32 28.8813 28.8813 32 25.0375 32Z" fill="#EBF7BD"/>
<path d="M22.657 15.9998C22.657 19.6686 19.6695 22.6561 16.0008 22.6561C12.332 22.6561 9.34453 19.6686 9.34453 15.9998C9.34453 12.3311 12.332 9.34355 16.0008 9.34355V5.6748C10.307 5.6748 5.67578 10.3061 5.67578 15.9998C5.67578 21.6936 10.307 26.3248 16.0008 26.3248C21.6945 26.3248 26.3258 21.6936 26.3258 15.9998H22.657Z" fill="#222222"/>
</svg>
