<svg fill="none" height="18" width="18" xmlns="http://www.w3.org/2000/svg"><path clip-rule="evenodd" d="M0 9a9 9 0 1118 0A9 9 0 010 9zm11.682 5.438a2.734 2.734 0 002.732-2.731V6.342a2.734 2.734 0 00-2.732-2.731H6.318a2.734 2.734 0 00-2.732 2.73v5.366a2.734 2.734 0 002.732 2.731zm0-9.65H6.318c-.857 0-1.553.698-1.553 1.554v5.365c0 .856.696 1.553 1.553 1.553h5.364c.857 0 1.554-.697 1.554-1.553V6.342c0-.856-.697-1.553-1.554-1.553zM9 11.814a2.792 2.792 0 01-2.788-2.789A2.792 2.792 0 019 6.236a2.792 2.792 0 012.789 2.788A2.792 2.792 0 019 11.813zm2.878-5a.66.66 0 11.002-1.322.66.66 0 01-.002 1.321zM9 7.413c-.888 0-1.61.723-1.61 1.61 0 .888.722 1.61 1.61 1.61.888 0 1.61-.722 1.61-1.61 0-.887-.722-1.61-1.61-1.61z" fill="#2d3c88" fill-rule="evenodd"/></svg>