<svg fill="none" height="20" viewBox="0 0 20 20" width="20" xmlns="http://www.w3.org/2000/svg"><path d="m18 5.44086v6.02154c0 1.8993-1.5583 3.4408-3.4783 3.4408h-3.1304l-4.17391 3.0968v-3.0968h-1.73913c-1.92 0-3.47826-1.5415-3.47826-3.4408v-6.02154c0-1.89935 1.55826-3.44086 3.47826-3.44086h9.04344c1.92 0 3.4783 1.54151 3.4783 3.44086z" fill="#2d3c88"/><g fill="#fff"><path d="m13.1605 10.7938c.1346.1307.1346.3453 0 .4761l-1.5442 1.539s-1.4804-.1844-3.73791-2.4376c-2.2609-2.25312-2.44931-3.72504-2.44931-3.72504l1.54764-1.54233c.13118-.13076.34317-.13076.47438 0l1.6654 1.65968c.13121.13076.13121.34535 0 .47611l-.71326.71081 1.90426 1.89438.7133-.71081c.1312-.13076.3431-.13076.4777 0z"/><path d="m14.2708 8.11493h-.6729c0-1.6639-1.3583-3.0176-3.028-3.0176v-.67057c2.0407 0 3.7009 1.65451 3.7009 3.68817z"/><path d="m12.7568 7.94695h-.6729c0-.83195-.6791-1.50879-1.514-1.50879v-.67058c1.2059 0 2.1869.97767 2.1869 2.17937z"/><path d="m15.7848 8.28242h-.6729c0-2.49585-2.0375-4.52639-4.542-4.52639v-.67058c2.8756 0 5.2149 2.33136 5.2149 5.19697z"/></g></svg>