<svg fill="none" height="20" width="20" xmlns="http://www.w3.org/2000/svg"><path d="M18 5.44v6.022c0 1.9-1.558 3.441-3.478 3.441h-3.13L7.216 18v-3.097H5.478c-1.92 0-3.478-1.541-3.478-3.44V5.44C2 3.54 3.558 2 5.478 2h9.044C16.442 2 18 3.542 18 5.44z" fill="#2d3c88"/><g fill="#fff"><path d="M13.16 10.794a.331.331 0 010 .476l-1.544 1.539s-1.48-.184-3.738-2.438C5.618 8.118 5.43 6.646 5.43 6.646l1.548-1.542a.336.336 0 01.474 0l1.666 1.66a.337.337 0 010 .476l-.714.71 1.904 1.895.714-.71a.34.34 0 01.478 0zm1.11-2.679h-.672a3.026 3.026 0 00-3.028-3.018v-.67c2.04 0 3.7 1.654 3.7 3.688z"/><path d="M12.757 7.947h-.673c0-.832-.68-1.509-1.514-1.509v-.67c1.206 0 2.187.977 2.187 2.179zm3.028.335h-.673c0-2.495-2.038-4.526-4.542-4.526v-.67c2.876 0 5.215 2.33 5.215 5.196z"/></g></svg>