<svg fill="none" height="16" width="16" xmlns="http://www.w3.org/2000/svg"><path d="M16 3.762V9.63a3.36 3.36 0 01-3.365 3.352H9.607L5.57 16v-3.018H3.888A3.36 3.36 0 01.523 9.63V3.762A3.36 3.36 0 013.888.41h8.747A3.36 3.36 0 0116 3.762z" fill="#bb6bd9"/><g fill="#fff"><path d="M10.684 9.794a.331.331 0 010 .476L9.14 11.81s-1.48-.185-3.738-2.438c-2.261-2.254-2.45-3.726-2.45-3.726L4.5 4.104a.336.336 0 01.474 0l1.666 1.66a.337.337 0 010 .476l-.713.71L7.83 8.846l.713-.71a.34.34 0 01.478 0zm1.11-2.679h-.673a3.026 3.026 0 00-3.028-3.018v-.67a3.699 3.699 0 013.701 3.688z"/><path d="M10.28 6.947h-.673c0-.832-.679-1.508-1.514-1.508v-.67c1.206 0 2.187.977 2.187 2.178zm3.028.336h-.673c0-2.496-2.037-4.527-4.542-4.527v-.67c2.876 0 5.215 2.331 5.215 5.197z"/></g></svg>