<svg fill="none" height="16" viewBox="0 0 16 16" width="16" xmlns="http://www.w3.org/2000/svg"><path d="m15.9998 3.76206v5.86755c0 1.85079-1.5072 3.35289-3.3644 3.35289h-3.02799l-4.03732 3.0176v-3.0176h-1.68222c-1.85717 0-3.364432-1.5021-3.364432-3.35289v-5.86755c0-1.85079 1.507262-3.35288 3.364432-3.35288h8.74753c1.8572 0 3.3644 1.50209 3.3644 3.35288z" fill="#bb6bd9"/><g fill="#fff"><path d="m10.6839 9.79402c.1345.13076.1345.34538 0 .47608l-1.54431 1.539s-1.48035-.1844-3.73789-2.43754c-2.2609-2.25314-2.44931-3.72506-2.44931-3.72506l1.54764-1.54232c.13118-.13077.34318-.13077.47439 0l1.66539 1.65967c.13122.13077.13122.34535 0 .47611l-.71326.71082 1.90431 1.89438.71326-.71082c.13118-.13076.34314-.13076.47771 0z"/><path d="m11.7941 7.11493h-.6728c0-1.6639-1.3584-3.0176-3.02804-3.0176v-.67057c2.04064 0 3.70084 1.65451 3.70084 3.68817z"/><path d="m10.2801 6.94744h-.67284c0-.83195-.67915-1.5088-1.514-1.5088v-.67057c1.20585 0 2.18684.97766 2.18684 2.17937z"/><path d="m13.3081 7.28267h-.6729c0-2.49586-2.0375-4.5264-4.54194-4.5264v-.67058c2.87554 0 5.21484 2.33137 5.21484 5.19698z"/></g></svg>