<svg fill="none" height="18" viewBox="0 0 18 18" width="18" xmlns="http://www.w3.org/2000/svg"><path d="m9 18c4.9706 0 9-4.0294 9-9 0-4.97056-4.0294-9-9-9-4.97056 0-9 4.02944-9 9 0 4.9706 4.02944 9 9 9z" fill="#2d3c88"/><path clip-rule="evenodd" d="m8.66036 12.9475h.70639s.21337-.0234.32231-.1409c.10027-.1078.09706-.3103.09706-.3103s-.0138-.9478.42608-1.0874c.4337-.1375.9905.9161 1.5808 1.3212.4463.3066.7855.2394.7855.2394l1.5781-.022s.8256-.0509.4342-.7c-.0321-.0531-.228-.4802-1.1734-1.3577-.9896-.91853-.8571-.77.335-2.35874.7259-.96757 1.0161-1.55829.9255-1.81129-.0865-.24097-.6204-.17728-.6204-.17728l-1.777.01107s-.1317-.01797-.2294.04043c-.0954.05727-.1569.19075-.1569.19075s-.2812.74875-.6563 1.38551c-.7913 1.34363-1.1077 1.41454-1.237 1.33111-.30077-.19444-.22569-.78115-.22569-1.19795 0-1.30208.19749-1.84499-.38456-1.98553-.19316-.04668-.33531-.07749-.82928-.08246-.63403-.00658-1.17068.00192-1.47455.15081-.20214.09898-.35808.31958-.26311.33225.11744.01573.38344.07172.52446.26376.18209.24771.17568.80409.17568.80409s.1046 1.53278-.24434 1.72322c-.23953.13059-.5681-.13605-1.27353-1.35503-.36145-.6244-.63435-1.31459-.63435-1.31459s-.05262-.12899-.14648-.19797c-.1139-.08359-.27305-.11022-.27305-.11022l-1.68857.01107s-.25348.00706-.34653.11728c-.08279.09802-.00658.30081-.00658.30081s1.32197 3.0928 2.81882 4.6514c1.37251 1.429 2.93112 1.3352 2.93112 1.3352z" fill="#fff" fill-rule="evenodd"/></svg>