<svg fill="none" height="18" width="18" xmlns="http://www.w3.org/2000/svg"><path d="M9 18A9 9 0 109 0a9 9 0 000 18z" fill="#2d3c88"/><path clip-rule="evenodd" d="M8.66 12.947h.707s.213-.023.322-.14c.1-.108.097-.31.097-.31s-.014-.949.426-1.088c.434-.138.99.916 1.581 1.321.446.307.786.24.786.24l1.578-.023s.825-.05.434-.7c-.032-.053-.228-.48-1.174-1.357-.99-.919-.857-.77.335-2.359.726-.968 1.017-1.558.926-1.811-.087-.241-.62-.178-.62-.178l-1.777.012s-.132-.018-.23.04c-.095.057-.157.19-.157.19s-.281.75-.656 1.386C10.447 9.514 10.13 9.585 10 9.501c-.3-.194-.226-.78-.226-1.198 0-1.302.198-1.845-.384-1.985-.194-.047-.336-.078-.83-.083-.634-.006-1.17.002-1.474.151-.202.1-.358.32-.263.332.117.016.383.072.524.264.182.248.176.804.176.804S7.628 9.32 7.28 9.51c-.24.13-.569-.136-1.274-1.355-.361-.625-.634-1.315-.634-1.315s-.053-.13-.147-.198c-.114-.084-.273-.11-.273-.11l-1.688.01s-.254.008-.347.118c-.083.098-.007.3-.007.3s1.322 3.094 2.82 4.652c1.372 1.43 2.93 1.336 2.93 1.336z" fill="#fff" fill-rule="evenodd"/></svg>