<svg fill="none" height="18" viewBox="0 0 18 18" width="18" xmlns="http://www.w3.org/2000/svg"><path d="m9 18c4.9706 0 9-4.0294 9-9 0-4.97056-4.0294-9-9-9-4.97056 0-9 4.02944-9 9 0 4.9706 4.02944 9 9 9z" fill="#4d76a1"/><path clip-rule="evenodd" d="m8.66011 12.9472h.70639s.21338-.0234.32231-.1408c.10027-.1078.09706-.3103.09706-.3103s-.01379-.9478.42613-1.0874c.4336-.1375.9905.916 1.5807 1.3211.4464.3066.7855.2394.7855.2394l1.5782-.022s.8256-.0508.4341-.6999c-.032-.0531-.2279-.4802-1.1734-1.3578-.9895-.91847-.857-.7699.335-2.35868.726-.96758 1.0162-1.55829.9256-1.8113-.0865-.24097-.6204-.17728-.6204-.17728l-1.777.01107s-.1317-.01796-.2294.04043c-.0955.05728-.1569.19076-.1569.19076s-.2813.74874-.6564 1.3855c-.7912 1.34363-1.1076 1.41455-1.2369 1.33112-.30082-.19445-.22573-.78115-.22573-1.19796 0-1.30208.19749-1.84498-.38456-1.98552-.19317-.04669-.33531-.07749-.82928-.08247-.63404-.00657-1.17069.00193-1.47455.15081-.20215.09899-.35809.31959-.26311.33226.11744.01572.38344.07171.52446.26375.18209.24771.17567.8041.17567.8041s.1046 1.53278-.24434 1.72321c-.23953.13059-.56809-.13605-1.27352-1.35502-.36146-.62441-.63435-1.31459-.63435-1.31459s-.05263-.12899-.14648-.19798c-.11391-.08358-.27306-.11021-.27306-.11021l-1.68856.01106s-.25349.00706-.34654.11728c-.08278.09803-.00657.30082-.00657.30082s1.32197 3.09284 2.81881 4.65144c1.37251 1.429 2.93112 1.3351 2.93112 1.3351z" fill="#fff" fill-rule="evenodd"/></svg>