<svg fill="none" height="18" width="18" xmlns="http://www.w3.org/2000/svg"><path d="M9 18A9 9 0 109 0a9 9 0 000 18z" fill="#4d76a1"/><path clip-rule="evenodd" d="M8.66 12.947h.706s.214-.023.323-.14c.1-.108.097-.31.097-.31s-.014-.949.426-1.088c.434-.138.99.916 1.58 1.32.447.307.786.24.786.24l1.578-.022s.826-.05.435-.7c-.032-.053-.228-.48-1.174-1.358-.99-.918-.857-.77.335-2.358.726-.968 1.016-1.558.926-1.811-.087-.241-.62-.178-.62-.178l-1.778.011s-.131-.018-.23.04c-.095.058-.156.192-.156.192s-.281.748-.656 1.385C10.446 9.514 10.13 9.585 10 9.501c-.301-.194-.226-.781-.226-1.198 0-1.302.197-1.845-.385-1.985-.193-.047-.335-.078-.829-.083-.634-.006-1.17.002-1.474.151-.203.099-.359.32-.264.332.118.016.384.072.525.264.182.248.176.804.176.804s.104 1.533-.245 1.723c-.24.13-.568-.136-1.273-1.355C5.644 7.53 5.37 6.84 5.37 6.84s-.052-.13-.146-.198c-.114-.084-.273-.11-.273-.11l-1.689.01s-.253.008-.346.118c-.083.098-.007.3-.007.3s1.322 3.093 2.819 4.652c1.373 1.43 2.931 1.335 2.931 1.335z" fill="#fff" fill-rule="evenodd"/></svg>