<svg fill="none" height="20" viewBox="0 0 20 20" width="20" xmlns="http://www.w3.org/2000/svg"><path d="m3 17 1.204-3.6118c-.61093-1.0275-.96262-2.2267-.96262-3.50889 0-3.79931 3.08-6.87931 6.87932-6.87931 3.7993 0 6.8793 3.08 6.8793 6.87931 0 3.79929-3.08 6.87929-6.8793 6.87929-1.15598 0-2.2446-.2865-3.2007-.79z" fill="#2d3c88"/><path d="m14.5093 12.169c-.3176-.6003-1.489-1.2868-1.489-1.2868-.2651-.1511-.5849-.168-.736.1014 0 0-.3806.4564-.4774.5221-.4422.2995-.8519.2879-1.2653-.1255l-.96098-.961-.96093-.9609c-.41348-.41348-.42507-.8231-.12552-1.26531.06566-.09679.5221-.47744.5221-.47744.26938-.15135.25249-.47093.10138-.73597 0 0-.68648-1.17141-1.28679-1.48907-.25538-.13517-.56893-.08786-.77314.11635l-.42434.42434c-1.34618 1.34617-.68335 2.8659.66282 4.2121l1.23032 1.2303 1.23031 1.2303c1.34617 1.3462 2.86587 2.009 4.21207.6628l.4243-.4243c.2042-.2047.2513-.5183.1161-.7734z" fill="#fff"/></svg>