<svg fill="none" height="20" width="20" xmlns="http://www.w3.org/2000/svg"><path d="M3 17l1.204-3.612a6.88 6.88 0 112.716 2.58z" fill="#2d3c88"/><path d="M14.51 12.169c-.318-.6-1.49-1.287-1.49-1.287-.265-.15-.585-.168-.736.102 0 0-.38.456-.477.522-.442.3-.852.288-1.265-.126l-.961-.96-.961-.962c-.414-.413-.425-.823-.126-1.265.066-.097.522-.477.522-.477.27-.152.253-.471.102-.736 0 0-.687-1.172-1.287-1.49a.658.658 0 00-.773.117l-.425.424c-1.346 1.346-.683 2.866.663 4.212l1.23 1.23 1.23 1.23c1.347 1.347 2.867 2.01 4.213.664l.424-.425a.659.659 0 00.116-.773z" fill="#fff"/></svg>