<svg fill="none" height="15" width="15" xmlns="http://www.w3.org/2000/svg"><path d="M0 14.4l1.252-3.715A6.983 6.983 0 01.25 7.075C.25 3.169 3.453 0 7.402 0c3.95 0 7.151 3.168 7.151 7.076 0 3.908-3.202 7.076-7.151 7.076a7.18 7.18 0 01-3.327-.813z" fill="#27ae60"/><path d="M11.964 9.43c-.33-.617-1.548-1.323-1.548-1.323-.275-.155-.608-.173-.765.104 0 0-.395.47-.496.537-.46.308-.886.297-1.315-.129l-1-.988-.998-.989c-.43-.425-.442-.846-.13-1.301.068-.1.542-.491.542-.491.28-.156.263-.484.105-.757 0 0-.713-1.205-1.337-1.532a.69.69 0 00-.804.12l-.441.436c-1.4 1.385-.71 2.948.689 4.333l1.279 1.265 1.279 1.266c1.4 1.384 2.979 2.066 4.378.681l.442-.436a.672.672 0 00.12-.795z" fill="#fff"/></svg>