<svg fill="none" height="15" viewBox="0 0 15 15" width="15" xmlns="http://www.w3.org/2000/svg"><path d="m0 14.4 1.25157-3.7149c-.635067-1.05696-1.000653-2.29039-1.000653-3.60923 0-3.90787 3.201703-7.07587 7.151133-7.07587 3.94945 0 7.15115 3.168 7.15115 7.07587 0 3.90783-3.2017 7.07583-7.15115 7.07583-1.20164 0-2.33328-.2947-3.32716-.8126z" fill="#27ae60"/><path d="m11.9642 9.4306c-.3302-.61746-1.5479-1.32356-1.5479-1.32356-.2755-.15542-.608-.1728-.76508.10428 0 0-.39569.46949-.49631.53702-.45968.30811-.88549.29619-1.31531-.12911l-.9989-.98838-.9989-.98839c-.42982-.4253-.44186-.84662-.13048-1.30146.06825-.09956.54274-.49109.54274-.49109.28002-.15567.26246-.48439.10538-.757 0 0-.71361-1.20488-1.33764-1.53161-.26547-.13904-.59141-.09037-.80368.11967l-.44111.43647c-1.39937 1.38463-.71035 2.94778.68901 4.33241l1.27893 1.26547 1.27892 1.26546c1.39936 1.38462 2.97913 2.06642 4.37853.68172l.4411-.4364c.2123-.2106.2612-.53307.1207-.7955z" fill="#fff"/></svg>