<svg width="32" height="32" viewBox="0 0 32 32" fill="none" xmlns="http://www.w3.org/2000/svg">
<path d="M32 28V4C32 1.79086 30.2091 0 28 0H4C1.79086 0 0 1.79086 0 4V28C0 30.2091 1.79086 32 4 32H28C30.2091 32 32 30.2091 32 28Z" fill="#EBF7BD"/>
<path d="M13.8333 23.0223C9.66667 24.2723 9.66667 20.939 8 20.5223M19.6667 25.5223V22.2973C19.6979 21.9 19.6442 21.5005 19.5092 21.1255C19.3741 20.7505 19.1608 20.4085 18.8833 20.1223C21.5 19.8307 24.25 18.839 24.25 14.289C24.2498 13.1255 23.8022 12.0067 23 11.164C23.3799 10.1461 23.353 9.02095 22.925 8.02233C22.925 8.02233 21.9417 7.73066 19.6667 9.25566C17.7567 8.73801 15.7433 8.73801 13.8333 9.25566C11.5583 7.73066 10.575 8.02233 10.575 8.02233C10.147 9.02095 10.1201 10.1461 10.5 11.164C9.69177 12.0129 9.24377 13.1419 9.25 14.314C9.25 18.8307 12 19.8223 14.6167 20.1473C14.3425 20.4306 14.1311 20.7685 13.9961 21.1389C13.8611 21.5094 13.8057 21.904 13.8333 22.2973V25.5223" stroke="#222222" stroke-width="1.25" stroke-linecap="round" stroke-linejoin="round"/>
</svg>
