<svg width="32" height="33" viewBox="0 0 32 33" fill="none" xmlns="http://www.w3.org/2000/svg">
<path d="M32 28V4C32 1.79086 30.2091 0 28 0H4C1.79086 0 0 1.79086 0 4V28C0 30.2091 1.79086 32 4 32H28C30.2091 32 32 30.2091 32 28Z" fill="#EBF7BD"/>
<path d="M18.2501 11.2504C18.0974 11.4062 18.0119 11.6156 18.0119 11.8337C18.0119 12.0519 18.0974 12.2613 18.2501 12.4171L19.5835 13.7504C19.7392 13.9031 19.9487 13.9886 20.1668 13.9886C20.3849 13.9886 20.5943 13.9031 20.7501 13.7504L23.8918 10.6087C24.3108 11.5347 24.4377 12.5664 24.2555 13.5664C24.0733 14.5663 23.5907 15.4869 22.872 16.2056C22.1533 16.9243 21.2327 17.4069 20.2327 17.5891C19.2328 17.7713 18.2011 17.6444 17.2751 17.2254L11.5168 22.9837C11.1853 23.3153 10.7356 23.5015 10.2668 23.5015C9.79795 23.5015 9.34831 23.3153 9.01679 22.9837C8.68527 22.6522 8.49902 22.2026 8.49902 21.7337C8.49902 21.2649 8.68527 20.8153 9.01679 20.4837L14.7751 14.7254C14.3561 13.7994 14.2292 12.7677 14.4114 11.7678C14.5936 10.7679 15.0762 9.84723 15.7949 9.12853C16.5136 8.40984 17.4342 7.92724 18.4342 7.74505C19.4341 7.56286 20.4658 7.68974 21.3918 8.10877L18.2585 11.2421L18.2501 11.2504Z" stroke="#222222" stroke-width="1.5" stroke-linecap="round" stroke-linejoin="round"/>
</svg>
