<svg fill="none" height="78" viewBox="0 0 78 78" width="78" xmlns="http://www.w3.org/2000/svg">
    <g fill="currentColor">
        <path
            d="m62.8593 34.726-.6689-.5003c-.8331-.6236-1.1287-1.7273-.7193-2.6838l.3293-.7677c.6689-1.5619.5653-3.3015-.2841-4.7726-.8497-1.4714-2.3041-2.4311-3.9914-2.6323l-.8292-.0991c-1.0334-.1234-1.8416-.9316-1.9649-1.9646l-.0988-.8296c-.2016-1.6869-1.1612-3.1417-2.6323-3.991-1.4715-.8498-3.2111-.9534-4.7726-.2841l-.7681.3289c-.9565.4098-2.0602.1138-2.6838-.7193l-.5003-.6685c-1.018-1.3603-2.5759-2.1403-4.2751-2.1403s-3.2571.78-4.2751 2.1403l-.5007.6685c-.6236.8335-1.7269 1.1291-2.6838.7193l-.7677-.3289c-1.5619-.6689-3.3015-.5657-4.7726.2841-1.4715.8493-2.4311 2.3041-2.6323 3.991l-.0992.8292c-.1233 1.0334-.9315 1.8416-1.9649 1.965l-.8292.0991c-1.6869.2012-3.1417 1.1609-3.9911 2.6323-.8497 1.4711-.9529 3.2107-.284 4.7726l.3289.7677c.4098.9565.1138 2.0602-.7193 2.6838l-.6685.5003c-1.3599 1.018-2.1403 2.5763-2.1403 4.2751 0 1.6992.7804 3.2575 2.1403 4.2755l.6689.5003c.8331.6237 1.1287 1.7273.7193 2.6838l-.3293.7677c-.6689 1.5619-.5653 3.3016.284 4.7726.8498 1.4715 2.3042 2.4312 3.9915 2.6323l.8292.0992c1.0334.1234 1.8416.9315 1.9649 1.9646l.0988.8295c.2016 1.6869 1.1612 3.1417 2.6323 3.9911 1.4715.8494 3.2111.9529 4.7726.284l.7681-.3289c.9565-.4098 2.0602-.1138 2.6838.7193l.5003.6685c1.018 1.3604 2.5763 2.1407 4.2755 2.1407 1.6988 0 3.2571-.7803 4.2751-2.1407l.5003-.6685c.6236-.8331 1.7269-1.1291 2.6842-.7189l.7677.3285c1.5615.6689 3.3011.5658 4.7726-.2836 1.4711-.8498 2.4307-2.3046 2.6323-3.9915l.0988-.8291c.1233-1.0335.9315-1.8416 1.9649-1.965l.8292-.0988c1.6869-.2015 3.1421-1.1612 3.9914-2.6323.8494-1.4714.953-3.2111.2837-4.773l-.3285-.7673c-.4098-.9569-.1142-2.0605.7193-2.6842l.6685-.5003c1.3603-1.018 2.1403-2.5763 2.1403-4.2751-.0004-1.6992-.7808-3.2575-2.1407-4.2755zm-1.2172 6.9244-.6685.5003c-1.5865 1.187-2.1498 3.2885-1.3691 5.1102l.3285.7673c.4146.9676.3503 2.0455-.1757 2.9572-.5265.9121-1.4278 1.5064-2.4732 1.6313l-.8292.0988c-1.9677.2349-3.5058 1.7734-3.7407 3.7411l-.0992.8292c-.125 1.0454-.7192 1.9467-1.6309 2.4732-.9117.526-1.9896.5903-2.9572.1757l-.7677-.3288c-1.8217-.7804-3.9228-.2171-5.1102 1.3694l-.5003.6685c-.6308.8427-1.5964 1.3263-2.6489 1.3263-1.0529 0-2.0185-.4836-2.6493-1.3263l-.5003-.6685c-.8296-1.1088-2.1054-1.7178-3.4202-1.7178-.5669 0-1.141.1135-1.6896.3484l-.7677.3288c-.968.4146-2.0455.3503-2.9576-.1757-.9117-.5265-1.506-1.4278-1.6309-2.4732l-.0988-.8292c-.2353-1.9677-1.7734-3.5058-3.7411-3.7407l-.8292-.0992c-1.0454-.1249-1.9467-.7192-2.4732-1.6309-.526-.9117-.5903-1.9896-.1757-2.9572l.3289-.7677c.7803-1.8213.217-3.9228-1.3691-5.1102l-.6689-.5003c-.8427-.6307-1.3259-1.5964-1.3259-2.6493 0-1.0525.4832-2.0181 1.3263-2.6489l.6685-.5003c1.5865-1.1874 2.1498-3.2888 1.3691-5.1102l-.3285-.7677c-.4146-.9676-.3503-2.0455.1757-2.9572.5265-.9116 1.4278-1.5059 2.4732-1.6309l.8292-.0992c1.9677-.2348 3.5058-1.773 3.7407-3.7407l.0992-.8292c.1249-1.0453.7192-1.9467 1.6309-2.4732.9117-.5264 1.9896-.5903 2.9572-.1757l.7677.3285c1.8213.7803 3.9228.2174 5.1102-1.3691l.5003-.6685c.6308-.8426 1.5964-1.3263 2.6489-1.3263s2.0181.4837 2.6489 1.3263l.5007.6689c1.187 1.5865 3.2889 2.1494 5.1098 1.3691l.7677-.3289c.9676-.4146 2.0455-.3503 2.9572.1757.9117.5265 1.5063 1.4279 1.6309 2.4732l.0992.8292c.2349 1.9677 1.7734 3.5059 3.7407 3.7407l.8292.0992c1.0454.125 1.9467.7193 2.4732 1.6309.5264.9117.5903 1.9896.1761 2.9572l-.3289.7677c-.7803 1.8218-.2174 3.9228 1.3691 5.1102l.6685.5003c.843.6308 1.3263 1.5964 1.3263 2.6493 0 1.0525-.4833 2.0182-1.3263 2.6489z" />
        <path
            d="m38.9998 18.9031c-3.064 0-6.0061.672-8.7443 1.9975-.505.2444-.7161.8518-.4721 1.3564.2444.505.8522.7161 1.3568.4717 2.4601-1.1906 5.1043-1.7944 7.8596-1.7944 9.9613 0 18.0656 8.1043 18.0656 18.0661 0 9.9614-8.1043 18.0657-18.0656 18.0657-9.9618 0-18.0661-8.1043-18.0661-18.0657 0-4.0803 1.327-7.9301 3.8379-11.1337.3459-.4416.2686-1.0799-.173-1.4262-.4415-.346-1.0799-.2682-1.4258.1729-2.7934 3.565-4.27 7.8481-4.27 12.387 0 11.0813 9.0156 20.0969 20.097 20.0969 11.0813 0 20.0969-9.0156 20.0969-20.0969 0-11.0817-9.0156-20.0973-20.0969-20.0973z" />
        <path
            d="m24.1504 33.829-.7736.9862c-.3464.4416-.269 1.0799.1721 1.4259.4416.3463 1.0799.2694 1.4259-.1722l.4249-.5411v6.717h-.68c-.561 0-1.0156.4546-1.0156 1.0156s.4546 1.0156 1.0156 1.0156h3.3563c.5606 0 1.0156-.4546 1.0156-1.0156s-.455-1.0156-1.0156-1.0156h-.6451v-7.789c0-.561-.455-1.0156-1.0156-1.0156h-1.4659c-.3118 0-.6066.1432-.799.3888z" />
        <path
            d="m32.3117 44.2761h.5277c1.6774 0 3.0417-1.3643 3.0417-3.0417v-4.923c0-1.6774-1.3647-3.0421-3.0417-3.0421h-.5277c-1.6773 0-3.0417 1.3647-3.0417 3.0421v4.923c0 1.6774 1.3644 3.0417 3.0417 3.0417zm-1.0104-7.9647c0-.5574.4534-1.0109 1.0104-1.0109h.5277c.557 0 1.0105.4535 1.0105 1.0109v4.923c0 .557-.4535 1.0105-1.0105 1.0105h-.5277c-.557 0-1.0104-.4535-1.0104-1.0105z" />
        <path
            d="m40.4966 44.2761c1.6774 0 3.0417-1.3643 3.0417-3.0417v-4.923c0-1.6774-1.3647-3.0421-3.0417-3.0421h-.5276c-1.6774 0-3.0418 1.3647-3.0418 3.0421v4.923c0 1.6774 1.3644 3.0417 3.0418 3.0417zm-1.5381-3.0417v-4.923c0-.5574.4535-1.0109 1.0105-1.0109h.5276c.557 0 1.0105.4535 1.0105 1.0109v4.923c0 .557-.4535 1.0105-1.0105 1.0105h-.5276c-.557 0-1.0105-.4531-1.0105-1.0105z" />
        <path
            d="m53.9091 33.1458c-.4535-.3297-1.0886-.2293-1.4187.2241l-6.4532 8.8745c-.3301.4538-.2297 1.089.2241 1.4187.1802.1309.3892.1944.5963.1944.3138 0 .6237-.1452.8224-.4186l6.4532-8.8744c.3301-.4535.2293-1.0886-.2241-1.4187z" />
        <path
            d="m29.8522 29.2783c.2368 0 .4748-.0825.6673-.2503 2.3478-2.0503 5.3593-3.1794 8.4804-3.1794 2.9199 0 5.6735.9514 7.9634 2.7509.4412.3468 1.0795.2702 1.4263-.171.3463-.4407.2697-1.0795-.171-1.4258-2.6517-2.084-5.8394-3.1853-9.2187-3.1853-3.6122 0-7.0986 1.3072-9.8162 3.6804-.4225.369-.4662 1.0105-.0972 1.433.2007.2301.4824.3475.7657.3475z" />
        <path
            d="m29.6651 50.4943c2.6509 2.0836 5.839 3.1849 9.2183 3.1849 2.3446 0 4.5893-.5284 6.6721-1.5702.5015-.2507.7046-.8609.4539-1.3627-.2512-.5015-.8609-.7046-1.3628-.4539-1.7979.8998-3.7371 1.3556-5.7632 1.3556-2.9195 0-5.6736-.9509-7.9635-2.7509-.4407-.3463-1.0795-.2698-1.4258.171-.3468.4412-.2702 1.0795.171 1.4262z" />
        <path
            d="m48.9729 48.757c-.2246-.3364-.6451-.511-1.0422-.4316-.4214.0845-.753.4368-.809.8632-.0547.4142.1603.8312.5285 1.028.3697.1979.8347.1436 1.1501-.1329.3793-.3337.4467-.9074.1726-1.3267z" />
        <path
            d="m47.2492 32.9519c-1.318 0-2.3903 1.072-2.3903 2.3899s1.0723 2.3903 2.3903 2.3903c1.3175 0 2.3899-1.0724 2.3899-2.3903s-1.0724-2.3899-2.3899-2.3899zm0 2.7489c-.198 0-.3591-.161-.3591-.359s.1611-.359.3591-.359c.1979 0 .3586.161.3586.359s-.1607.359-.3586.359z" />
        <path
            d="m50.4956 41.5314c0 1.3179 1.0724 2.3903 2.3899 2.3903 1.3179 0 2.3903-1.0724 2.3903-2.3903s-1.0724-2.3903-2.3903-2.3903c-1.3175 0-2.3899 1.0724-2.3899 2.3903zm2.7489 0c0 .198-.1606.359-.3586.359s-.359-.161-.359-.359.161-.359.359-.359.3586.161.3586.359z" />
        <path
            d="m26.1494 24.5228c.1634.3923.5625.6454.987.6256.419-.0198.7871-.3063.9165-.7038.1305-.4015-.0115-.8601-.348-1.116-.3431-.261-.8224-.2761-1.1818-.0385-.4007.2646-.5546.7911-.3737 1.2327z" />
    </g>
</svg>
