<svg fill="none" height="78" viewBox="0 0 78 78" width="78" xmlns="http://www.w3.org/2000/svg">
    <g fill="currentColor">
        <path
            d="m29.5391 48.8557c-.5499 0-.9961.4462-.9961.996 0 .5499.4462.9961.9961.9961.5498 0 .9961-.4462.9961-.9961 0-.5498-.4463-.996-.9961-.996z" />
        <path
            d="m58.8383 30.9267 5.8698-5.8699c.247-.247.3465-.6052.2625-.944-.084-.339-.3394-.6091-.6731-.7121l-14.2939-4.4117c-1.2885-4.1419-5.1183-6.988-9.5078-6.988-4.0804 0-7.7297 2.4867-9.2401 6.238l-16.5564 5.1626c-.3328.1038-.5872.3741-.6706.7127-.0834.3384.0162.696.2628.9426l6.0242 6.0243-3.7995 6.3326c-.1555.2591-.1848.5748-.0801.8581.1048.2834.3326.5039.6193.5994l5.5107 1.8368v15.3201c0 .4152.2576.7868.6464.9327 3.3695 1.2634 15.8889 5.9588 15.9561 5.9826.1976.0696.4202.0791.6373.0089.0029-.001.0059-.0016.0088-.0026l17.9296-5.9766c.4067-.1356.6812-.5163.6812-.945v-15.7303l5.8767-1.8468c.3323-.1043.5859-.3747.6689-.713.0829-.3382-.0168-.6952-.2631-.9416zm-8.3816-8.9648c0-.2531-.0106-.5056-.0297-.7573l11.7035 3.6123-4.9702 4.9701-8.1209-2.7067c.9196-1.537 1.4173-3.3107 1.4173-5.1184zm-17.4987-2.5926c1.1058-3.2156 4.135-5.3761 7.5378-5.3761 3.6657 0 6.845 2.4794 7.7315 6.0295.1575.6308.2372 1.2833.2372 1.9392 0 1.8502-.614 3.5843-1.7758 5.0155-1.5217 1.8769-3.779 2.9533-6.1929 2.9533-2.6094 0-5.0569-1.2808-6.5476-3.427-.9297-1.3354-1.4212-2.906-1.4212-4.5418 0-.8896.145-1.7619.431-2.5926zm-16.093 5.4437 13.7759-4.2955c-.0691.4759-.106.958-.106 1.4443 0 1.6038.3799 3.1572 1.104 4.5588l-9.7998 3.2664zm1.9984 12.561 3.1497-5.2496 15.9935 5.3312-3.1495 5.2496c-1.7078-.5693-14.1702-4.7235-15.9937-5.3312zm19.6402 23.1935-13.9453-5.2295v-13.9658c10.972 3.6379 10.4362 3.5269 10.7417 3.5269.3424 0 .6703-.1772.8543-.4837l2.3493-3.9158zm.9961-24.7142-14.7796-4.9264 8.0478-2.6825c1.8836 2.3156 4.7192 3.6784 7.7279 3.6784 2.7833 0 5.3991-1.1454 7.2806-3.1634l6.5029 2.1674zm16.9336 19.457-15.9375 5.3125v-20.8801l3.5312 4.4137c.2569.321.6846.4511 1.0765.328l11.3298-3.5604zm-11.2766-12.9308-3.9868-4.983 15.9904-5.3301 4.9769 4.9769z" />
        <path
            d="m35.8654 51.0666-2.2153-.8308c-.5151-.193-1.0892.0679-1.2825.5829-.1931.5152.0679 1.0894.583 1.2825l2.2153.8307c.5161.1935 1.0896-.0687 1.2824-.5829.1932-.515-.0678-1.0893-.5829-1.2824z" />
        <path
            d="m35.8652 55.3219-5.9765-2.2412c-.5151-.1931-1.0893.0678-1.2825.5829s.0678 1.0894.5829 1.2825l5.9766 2.2412c.1152.0432.2334.0638.3496.0638.4033 0 .7828-.2468.9328-.6467.1933-.5152-.0677-1.0893-.5829-1.2825z" />
        <path
            d="m46.1809 18.2684c-.389-.3891-1.0197-.389-1.4088 0l-5.2722 5.2723-1.2879-1.2878c-.389-.389-1.0197-.389-1.4088 0-.389.3889-.3889 1.0197 0 1.4087l1.9923 1.9921c.389.389 1.0197.389 1.4088 0l5.9766-5.9765c.3889-.389.3889-1.0197 0-1.4088z" />
    </g>
</svg>
