<svg fill="none" height="78" width="78" xmlns="http://www.w3.org/2000/svg"><g fill="currentColor"><path d="M29.54 48.856a.996.996 0 100 1.992.996.996 0 000-1.992z"/><path d="M58.838 30.927l5.87-5.87a.996.996 0 00-.41-1.656l-14.294-4.412a9.94 9.94 0 00-9.508-6.988 9.964 9.964 0 00-9.24 6.238l-16.557 5.163a.996.996 0 00-.407 1.655l6.024 6.024-3.8 6.333a.996.996 0 00.54 1.457l5.51 1.837v15.32c0 .415.258.787.647.933 3.369 1.263 15.888 5.959 15.956 5.982.197.07.42.08.637.01l.009-.003 17.93-5.977a.996.996 0 00.68-.945v-15.73l5.877-1.847a.996.996 0 00.406-1.655zm-8.381-8.965c0-.253-.01-.506-.03-.757l11.704 3.612-4.97 4.97-8.122-2.707a9.99 9.99 0 001.418-5.118zm-17.499-2.593a7.972 7.972 0 017.538-5.376 7.953 7.953 0 017.968 7.969c0 1.85-.614 3.584-1.775 5.015a7.94 7.94 0 01-6.193 2.954 7.976 7.976 0 01-6.548-3.427 7.91 7.91 0 01-1.421-4.542c0-.89.145-1.762.431-2.593zm-16.093 5.444l13.776-4.295a9.902 9.902 0 00.998 6.003l-9.8 3.266zm1.998 12.561l3.15-5.25 15.994 5.332-3.15 5.25-15.994-5.332zm19.64 23.193l-13.945-5.229V41.372C35.53 45.01 34.994 44.9 35.3 44.9c.342 0 .67-.177.854-.484l2.35-3.915zm.997-24.714l-14.78-4.926 8.048-2.683a9.967 9.967 0 007.728 3.679 9.917 9.917 0 007.28-3.164l6.503 2.168zM56.433 55.31l-15.937 5.313v-20.88l3.531 4.413a.997.997 0 001.076.328l11.33-3.56zM45.157 42.38l-3.987-4.984 15.99-5.33 4.977 4.977z"/><path d="M35.865 51.067l-2.215-.831a.996.996 0 00-.7 1.865l2.216.83a.996.996 0 10.7-1.864zm0 4.255L29.89 53.08a.996.996 0 00-.7 1.865l5.977 2.241a.994.994 0 001.282-.583.996.996 0 00-.583-1.282zM46.18 18.268a.996.996 0 00-1.408 0L39.5 23.541l-1.288-1.288a.996.996 0 00-1.409 1.409l1.993 1.992a.996.996 0 001.408 0l5.977-5.977a.996.996 0 000-1.409z"/></g></svg>