<svg fill="none" viewBox="0 0 79 78" id="russia" width="79" height="78" xmlns="http://www.w3.org/2000/svg">
    <path
        d="M45.68 41.197v1.215a1.143 1.143 0 102.285 0v-1.215a1.143 1.143 0 10-2.286 0zM6.782 40.62a1.143 1.143 0 001.114-1.404c-.108-.459-.331-1.413-.017-1.824.223-.292.818-.47 1.673-.5 3.395-.119 4.436-1.688 5.443-3.205.54-.813 1.098-1.654 2.113-2.441 1-.775 1.43-.79 1.499-.786.063.067.51.64.345 3.158-.087 1.321.168 2.292.78 2.967.854.946 2.1.988 3.101 1.022.45.016.876.03 1.184.116.972.271 1.825.186 2.51.117.422-.043.859-.086.951.015.457.498.978.74 1.55.727 1.078-.03 1.809-.92 2.915-2.269l.315-.383a.836.836 0 01.128-.13c.157.035.508.248.745.393.845.513 2.122 1.29 3.712.608 1.75-.75 2.203-1.306 3.06-2.492.31-.43.696-.964 1.284-1.664 1.035-1.235 2.533-1.593 3.151-1.308.098.046.396.183.255 1.008-.201 1.178.026 2.065.675 2.636 1.125.988 2.878.45 4.159.056.292-.09.624-.192.77-.213.11-.01.444.071.665.126 1.108.273 3.413.842 4.557-2.427.772-2.206 1.337-2.289 3.015-2.535l.554-.084c3.721-.596 4.416-3.032 4.975-4.99.159-.556.308-1.081.517-1.562.34-.785.968-1.188 1.764-1.698 1.022-.656 2.293-1.471 2.83-3.293.256-.874.992-1.374 1.388-1.503-.012.223-.086.62-.33 1.22-.86 2.11-1.037 3.274-.63 4.154.37.806 1.114 1.053 1.559 1.2.171.057.333.11.411.165l.02.02a1.143 1.143 0 101.708-1.52 2.377 2.377 0 00-.42-.374c-.355-.246-.713-.365-1-.46a7.372 7.372 0 01-.2-.069c.003-.225.089-.832.668-2.254.668-1.639.666-2.879-.005-3.686-.497-.597-1.281-.836-2.151-.656-1.214.251-2.707 1.403-3.212 3.118-.295 1.004-.955 1.428-1.87 2.014-.942.604-2.01 1.29-2.627 2.713-.268.619-.446 1.242-.618 1.844-.514 1.803-.854 2.995-3.138 3.36-.182.03-.357.055-.525.08-1.857.272-3.612.53-4.84 4.041-.458 1.307-.781 1.228-1.853.963-.495-.122-1.007-.249-1.549-.168-.316.048-.682.16-1.104.29-.43.132-1.526.467-1.942.402a1.86 1.86 0 01.032-.526c.272-1.595-.307-2.891-1.548-3.466-1.72-.796-4.295.044-5.862 1.913a28.825 28.825 0 00-1.385 1.794c-.7.968-.866 1.197-2.108 1.73-.463.198-.832.022-1.624-.46-.785-.477-2.416-1.469-3.823.234l-.32.39c-.388.473-.851 1.038-1.147 1.31-.845-.798-1.885-.693-2.73-.609-.571.058-1.11.112-1.669-.044-.57-.159-1.154-.179-1.719-.198-.6-.02-1.28-.044-1.485-.271-.078-.086-.253-.384-.194-1.284.123-1.868.095-4.453-1.555-5.33-1.587-.843-3.38.545-3.969 1.001-1.312 1.018-2.036 2.108-2.617 2.984-.902 1.359-1.398 2.107-3.62 2.185-1.595.056-2.742.526-3.408 1.396-.97 1.268-.58 2.933-.393 3.733.124.527.593.883 1.112.883zm33.787 1.095a1.417 1.417 0 01-2.137 0 1.143 1.143 0 10-1.723 1.502 3.702 3.702 0 005.583 0 1.143 1.143 0 10-1.723-1.502zm35.664-8.25a34.86 34.86 0 00-.942-1.105c-1.384-1.577-1.798-2.17-1.397-3.153.091-.224.172-.463.24-.712a1.143 1.143 0 00-2.206-.599c-.044.16-.094.31-.15.448-.968 2.375.437 3.976 1.795 5.524.29.33.59.671.882 1.033 1.005 1.244 1.674 3.28 1.762 4.25-2.364-.615-3.684-1.712-3.926-3.263l-.063-.412c-.278-1.831-.566-3.725-2.172-4.126-1.008-.252-2.309.083-3.163.814a2.901 2.901 0 00-1.026 2.528c.028.307.07.63.113.971.153 1.192.384 2.993-.28 3.448-1.645 1.125-1.821 2.874-2.008 4.727-.04.4-.082.815-.14 1.244-.163 1.223.276 1.871.673 2.2 1 .83 2.435.355 3.587-.026.256-.085.498-.165.677-.21.414-.103.998.628 1.836 2.303.244.49.516.91.756 1.28.793 1.226 1.419 2.193.715 5.494-.307 1.44-.752 1.911-.895 1.988-.109-.07-.307-.396-.187-.786.508-1.65.496-2.928-.036-3.802a2.237 2.237 0 00-1.557-1.057c-.68-.123-1.107-.03-1.578.347-.12.095-.436.347-2.032.62-1.791.306-2.138.021-2.976-.665-.38-.312-.854-.7-1.511-1.08-1.114-.642-1.921-.468-2.403-.209-1.41.76-1.61 2.92-1.817 6.382-.03.487-.134.827-.294.956-.364.294-1.522.118-2.452-.023-1.105-.169-2.357-.36-3.5-.098-1.555.355-2.678-.049-3.58-.374-.536-.193-1-.36-1.495-.36-1.193 0-1.523 1.16-1.664 1.655-.05.172-.139.485-.213.585-.057.009-.266.022-.722-.138-2.312-.812-3.693.054-4.607.627-.493.31-.787.484-1.1.484-1.03 0-3.494-.261-4.149-2.682-.656-2.428-2.547-2.612-3.563-2.712a9.659 9.659 0 01-.358-.039c-.408-2.378-2.882-2.494-5.985-2.638-2.049-.095-2.993.457-3.26 1.906-.008.05-.02.112-.03.156a1.26 1.26 0 01-.253.087c-1.442.36-2.924-1.462-3.103-2.015-.304-.94-1.365-2.421-5.05-1.763-2.051.366-2.184 2.37-2.255 3.448-.01.158-.024.363-.044.533-1.388.12-2.03 1.573-2.464 2.612-.307-1.05-.921-2.458-2.79-3.49-.483-.267-1.064-.707-1.092-1.287a1.093 1.093 0 01.239-.716c.842.021 3.333-.056 4.371-1.628.436-.66.76-1.8-.17-3.49a4.058 4.058 0 01-.48-2.654 1.143 1.143 0 00-2.26-.341 6.35 6.35 0 00.738 4.098c.287.522.386.944.265 1.128-.322.487-1.836.667-2.52.599-1.073-.107-1.994.935-2.317 1.97-.197.63-.624 2.804 2.12 4.32 1.36.752 1.598 1.697 1.829 2.61.183.725.46 1.822 1.634 2.057 1.464.292 2.091-1.214 2.506-2.21.163-.39.457-1.095.666-1.294.612.037 1.028-.196 1.271-.403.666-.566.725-1.467.778-2.263.074-1.117.172-1.313.377-1.35 1.655-.295 2.396-.023 2.474.218.506 1.565 3.024 4.23 5.83 3.528 1.68-.42 1.882-1.52 1.979-2.048l.001-.007c.144-.025.418-.05.904-.028 1.447.067 2.7.14 3.378.358.44.141.45.245.476.495.16 1.6 1.655 1.746 2.373 1.816.95.092 1.345.165 1.58 1.033 1.095 4.056 5.14 4.371 6.353 4.371.987 0 1.723-.462 2.315-.833.82-.514 1.362-.854 2.636-.407 1.026.36 1.857.365 2.538.012.845-.438 1.142-1.27 1.31-1.842l.228.082c1.058.38 2.657.956 4.864.452.72-.165 1.7-.016 2.647.129 1.517.23 3.085.47 4.233-.458.685-.555 1.068-1.428 1.138-2.598.08-1.341.226-3.767.593-4.431.05.02.117.052.204.102.495.286.855.581 1.204.867 1.203.986 2.187 1.598 4.81 1.15 1.7-.29 2.413-.62 2.854-.923.07.188.127.762-.22 1.89-.33 1.072-.054 2.26.702 3.027.625.634 1.479.871 2.286.636.838-.245 1.953-1.088 2.513-3.715.9-4.226-.082-5.744-1.032-7.212-.227-.352-.443-.684-.63-1.06-.766-1.532-2.048-4.094-4.435-3.498-.26.065-.542.158-.84.257-.32.105-.91.3-1.284.356l.007-.06c.062-.464.106-.897.148-1.316.173-1.719.29-2.567 1.024-3.07 1.819-1.244 1.495-3.776 1.258-5.624-.041-.32-.08-.623-.104-.888a.624.624 0 01.236-.585c.327-.28.833-.367 1.064-.343.228.31.406 1.478.525 2.262l.064.42c.288 1.85 1.601 4.264 6.218 5.268.797.174 1.514-.113 1.917-.767 1.06-1.715-.65-5.685-1.934-7.275zm-44.053 6.59c-.631 0-1.143.511-1.143 1.142v1.215a1.143 1.143 0 002.286 0v-1.215c0-.631-.512-1.143-1.143-1.143z"
        fill="currentColor">
    </path>
</svg>
