<svg fill="none" height="78" viewBox="0 0 78 78" width="78" xmlns="http://www.w3.org/2000/svg">
    <g fill="currentColor">
        <path
            d="m66.6998 36.3722-1.6833-6.733c.4602-.0977.8055-.506.8055-.9951v-1.0856c0-2.357-1.9176-4.2745-4.2745-4.2745h-7.667v-2.2392c0-1.1599-.9435-2.1034-2.1033-2.1034h-39.0815c-1.1599 0-2.1034.9435-2.1034 2.1034v18.4551c0 .5621.4556 1.0178 1.0178 1.0178.562 0 1.0178-.4556 1.0178-1.0178v-18.4551c0-.0375.0303-.0678.0678-.0678h39.0813c.0375 0 .0678.0303.0678.0678v18.4554c0 .562.4557 1.0178 1.0178 1.0178.562 0 1.0178-.4557 1.0178-1.0178v-1.1538h12.0058c.0011 0 .0018.0003.0027.0003.001 0 .0019-.0001.0028-.0001 1.4773.001 2.7318.9707 3.1627 2.3068h-3.1647c-.5621 0-1.0178.4557-1.0178 1.0178v2.1712c0 1.7584 1.4305 3.1889 3.1889 3.1889h1.1535v4.478h-2.6612c-.8742-2.5242-3.2737-4.3424-6.0914-4.3424-2.8178 0-5.2174 1.8182-6.0915 4.3424h-.4901v-7.6671c0-.562-.4556-1.0177-1.0177-1.0177s-1.0178.4556-1.0178 1.0177v7.6669h-21.1159c-.8742-2.5242-3.2737-4.3425-6.0914-4.3425-2.8178 0-5.2174 1.8183-6.0915 4.3425h-5.8501c-.0375 0-.0678-.0304-.0678-.0678v-2.2391h4.4102c.562 0 1.0178-.4556 1.0178-1.0178 0-.5621-.4557-1.0178-1.0178-1.0178h-9.77032c-.56202 0-1.01778.4557-1.01778 1.0178 0 .5622.45563 1.0178 1.01778 1.0178h3.32462v2.2391c0 1.1598.9435 2.1033 2.1034 2.1033h5.4976c-.0003.0226-.0018.0451-.0018.0678 0 3.5542 2.8916 6.4457 6.4457 6.4457 3.554 0 6.4456-2.8915 6.4456-6.4457 0-.0228-.0015-.0452-.0018-.0678h22.9367c-.0003.0226-.0018.0451-.0018.0678 0 3.5542 2.8916 6.4457 6.4457 6.4457 3.554 0 6.4456-2.8915 6.4456-6.4457 0-.0228-.0015-.0452-.0018-.0678h3.3266c.562 0 1.0178-.4556 1.0178-1.0177v-10.8559c.0001-2.6803-1.9774-4.9072-4.5501-5.2988zm-12.8193-11.0528h7.667c1.2346 0 2.2391 1.0045 2.2391 2.2391v.0678h-9.9061zm0 10.9916v-6.6493h9.0435l1.6624 6.6493zm-29.2432 21.7119c-2.4318 0-4.4103-1.9783-4.4103-4.4102s1.9785-4.4102 4.4103-4.4102c2.4317 0 4.4102 1.9783 4.4102 4.4102s-1.9785 4.4102-4.4102 4.4102zm35.8246 0c-2.4318 0-4.4102-1.9783-4.4102-4.4102s1.9784-4.4102 4.4102-4.4102 4.4102 1.9783 4.4102 4.4102-1.9784 4.4102-4.4102 4.4102zm8.7527-13.0272h-1.1535c-.6361 0-1.1535-.5174-1.1535-1.1535v-1.1534h2.3068v2.3069z" />
        <path
            d="m24.6371 51.5093c-1.1599 0-2.1034.9435-2.1034 2.1033 0 1.1599.9435 2.1034 2.1034 2.1034 1.1598 0 2.1033-.9435 2.1033-2.1034 0-1.1598-.9435-2.1033-2.1033-2.1033z" />
        <path
            d="m60.4618 51.5093c-1.1599 0-2.1034.9435-2.1034 2.1033 0 1.1599.9435 2.1034 2.1034 2.1034 1.1598 0 2.1033-.9435 2.1033-2.1034 0-1.1598-.9435-2.1033-2.1033-2.1033z" />
        <path
            d="m48.5203 47.167h-15.1983c-.562 0-1.0178.4556-1.0178 1.0178 0 .5621.4556 1.0178 1.0178 1.0178h15.1983c.562 0 1.0178-.4557 1.0178-1.0178 0-.5622-.4557-1.0178-1.0178-1.0178z" />
        <path
            d="m22.4663 42.8247h-13.02713c-.56202 0-1.01778.4556-1.01778 1.0178 0 .5621.45563 1.0178 1.01778 1.0178h13.02713c.5621 0 1.0178-.4557 1.0178-1.0178 0-.5622-.4557-1.0178-1.0178-1.0178z" />
        <path
            d="m41.6408 29.0099c-.3974-.3973-1.0419-.3973-1.4393.0001l-9.0507 9.0507-4.7083-4.7084c-.3975-.3974-1.0419-.3974-1.4393 0-.3975.3975-.3975 1.0418 0 1.4393l5.428 5.428c.1987.1988.4592.2981.7196.2981s.521-.0993.7195-.2981l9.7704-9.7703c.3975-.3976.3975-1.0419.0001-1.4394z" />
    </g>
</svg>
