<svg fill="none" height="160" width="140" xmlns="http://www.w3.org/2000/svg"><path d="M119.032 63.664v27.51l-41.29 27.536L70 123.871l-7.742-5.161-41.29-27.536V0h98.064z" fill="#e6e9ed"/><path d="M67.316 61.187l-2.477 3.33H49.355l10.322-12.904z" fill="#2d3c88"/><path d="M80.323 43.871l15.483 20.645H64.84l2.477-3.329z" fill="#7074c5"/><path d="M100.968 18.064v46.452h-5.162L80.323 43.871 67.316 61.187l-7.639-9.574-10.322 12.903H39.032V18.064z" fill="#339dff"/><path d="M20.968 63.664v27.51L.323 77.42z" fill="#edab37"/><path d="M63.548 34.839a5.162 5.162 0 11-10.323 0 5.162 5.162 0 0110.323 0z" fill="#ffce54"/><path d="M139.677 77.42l-20.645 13.754v-27.51z" fill="#edab37"/><path d="M139.677 77.42V160l-61.935-41.29 41.29-27.536zm-77.419 41.29L.323 160V77.42l20.645 13.754z" fill="#f6bb42"/><path d="M139.677 160H.323l61.935-41.29L70 123.871l7.742-5.161z" fill="#ffce54"/><path d="M98.387 80H41.613a2.578 2.578 0 01-2.58-2.58 2.578 2.578 0 012.58-2.581h56.774a2.578 2.578 0 012.581 2.58A2.578 2.578 0 0198.388 80zm0 10.323H41.613a2.578 2.578 0 01-2.58-2.581 2.578 2.578 0 012.58-2.58h56.774a2.578 2.578 0 012.581 2.58 2.578 2.578 0 01-2.58 2.58zm-12.903 10.322H54.516a2.577 2.577 0 01-2.58-2.58 2.578 2.578 0 012.58-2.581h30.968a2.578 2.578 0 012.58 2.58 2.577 2.577 0 01-2.58 2.581z" fill="#ccd1d9"/></svg>