<svg fill="none" height="160" viewBox="0 0 140 160" width="140" xmlns="http://www.w3.org/2000/svg"><path d="m119.032 63.6643v27.5101l-41.29 27.5356-7.742 5.161-7.7419-5.161-41.2903-27.5356v-91.1744h98.0642z" fill="#e6e9ed"/><path d="m67.3159 61.187-2.4773 3.3291h-15.4839l10.3226-12.9032z" fill="#2d3c88"/><path d="m80.3225 43.871 15.4839 20.6451h-30.9678l2.4773-3.3291z" fill="#7074c5"/><path d="m100.968 18.0645v46.4516h-5.1616l-15.4838-20.6451-13.0066 17.316-7.6386-9.5741-10.3226 12.9032h-10.3226v-46.4516z" fill="#339dff"/><path d="m20.9677 63.6643v27.5101l-20.64519-13.7551z" fill="#edab37"/><path d="m63.5484 34.8387c0 2.8503-2.311 5.1613-5.1613 5.1613s-5.1613-2.311-5.1613-5.1613 2.311-5.1613 5.1613-5.1613 5.1613 2.311 5.1613 5.1613z" fill="#ffce54"/><path d="m139.677 77.4193-20.645 13.7551v-27.5101z" fill="#edab37"/><path d="m139.677 77.4193v82.5807l-61.9351-41.29 41.2901-27.5356z" fill="#f6bb42"/><path d="m62.258 118.71-61.93549 41.29v-82.5807l20.64519 13.7551z" fill="#f6bb42"/><path d="m139.677 160h-139.35449l61.93549-41.29 7.7419 5.161 7.742-5.161z" fill="#ffce54"/><g fill="#ccd1d9"><path d="m98.3871 80h-56.7742c-1.4277 0-2.5807-1.153-2.5807-2.5806 0-1.4277 1.153-2.5807 2.5807-2.5807h56.7742c1.4276 0 2.5809 1.153 2.5809 2.5807 0 1.4276-1.1533 2.5806-2.5809 2.5806z"/><path d="m98.3871 90.3226h-56.7742c-1.4277 0-2.5807-1.153-2.5807-2.5806 0-1.4277 1.153-2.5807 2.5807-2.5807h56.7742c1.4276 0 2.5809 1.153 2.5809 2.5807 0 1.4276-1.1533 2.5806-2.5809 2.5806z"/><path d="m85.4839 100.645h-30.9677c-1.4277 0-2.5807-1.1528-2.5807-2.5805 0-1.4276 1.153-2.5806 2.5807-2.5806h30.9677c1.4277 0 2.5807 1.153 2.5807 2.5806 0 1.4277-1.153 2.5805-2.5807 2.5805z"/></g></svg>