<svg fill="none" height="107" width="107" xmlns="http://www.w3.org/2000/svg"><clipPath id="a"><path d="M0 0h107v107H0z"/></clipPath><g clip-path="url(#a)"><path d="M105.904 54.675c0 28.898-23.426 52.325-52.325 52.325C24.68 107 1.254 83.573 1.254 54.675c0-28.899 23.426-52.326 52.325-52.326 28.899 0 52.325 23.427 52.325 52.326z" fill="#339dff"/><path d="M41.619 13.883v2.825a3.203 3.203 0 01-6.407 0v-2.825a3.204 3.204 0 116.407 0zM24.312 17.34a3.203 3.203 0 00-4.908 4.118l2.143 2.554a3.204 3.204 0 004.908-4.117zm-7.424 14.744l-4.184-.738a3.204 3.204 0 00-1.113 6.31l4.183.737a3.205 3.205 0 001.114-6.31z" fill="#7074c5" fill-opacity=".3"/><path d="M83.615 12.388l-2.184 22.19a3.953 3.953 0 01-.44 1.502 3.89 3.89 0 01-.141.494l-9.442 23.53v23.19H43.643V73.116a11.65 11.65 0 00-8.634-11.253 15.071 15.071 0 01-11.17-14.558V42.78a2.975 2.975 0 012.974-2.975 6.942 6.942 0 016.941 6.941v.418a5.34 5.34 0 003.959 5.159c3.392.91 6.724-1.647 6.724-5.16v-6.168a6.836 6.836 0 00-3.168-5.769 5.626 5.626 0 00-6.636.438l-.626.525a6.941 6.941 0 01-9.779-.856 2.975 2.975 0 01.368-4.191l4.012-3.367a14.857 14.857 0 0117.418-1.22l4.493 2.805a1.081 1.081 0 001.656-.913v-.045a14.689 14.689 0 00-.5-3.839l-4.527-15.96a6.94 6.94 0 014.908-8.5 2.975 2.975 0 013.643 2.103l5.068 18.072c.065.233.41.17.389-.07l-.853-9.82a6.941 6.941 0 016.31-7.52 2.974 2.974 0 013.222 2.704l1.908 21.879c.02.239.369.242.394.003l1.255-11.98a6.941 6.941 0 017.52-6.309 2.975 2.975 0 012.703 3.223z" fill="#ffdfcf"/><path d="M82.044 9.499c-2.537.853-3.794 2.592-5.356 5.79l-3.594 15.588c-.025.239-1.275.058-1.296-.182l1.524-15.156c.108-1.006.396-1.99.898-2.869 1.572-2.749 4.452-3.7 6.69-3.505.41.036.792.153 1.134.334zM44.437 40.995v6.17c0 2.296-1.425 4.184-3.361 4.961.19.075.383.144.583.198 3.393.908 6.724-1.648 6.724-5.16v-6.169a6.837 6.837 0 00-3.168-5.769 5.62 5.62 0 00-4.994-.518 5.67 5.67 0 011.048.518 6.837 6.837 0 013.168 5.77zM66.612 2.87c-.106.009-.735.118-.84.132-3.11.414-5.544 3.425-5.493 6.562l1.61 19.76c.065.231 1.15.203 1.13-.037l.778-18.86c.67-3.33 1.992-5.942 4.729-7.065a2.967 2.967 0 00-1.914-.492zM40.048 58.692c-6.59-1.766-11.708-7.737-11.708-14.559 0 0-.809-4.327-1.527-4.327a2.974 2.974 0 00-2.975 2.975v4.525a15.073 15.073 0 0011.17 14.56 11.649 11.649 0 018.635 11.252v10.175h5.04V69.944a11.65 11.65 0 00-8.635-11.252zM52.971.024a2.997 2.997 0 00-.92.098 6.942 6.942 0 00-4.909 8.501l3.407 20.756 1.375.771a1.082 1.082 0 001.655-.914v-.044c.003-1.296-1.398-23.742-1.398-23.742a6.924 6.924 0 01.79-5.426zM25.547 36.542c.652-1.214 2.792-3.616 3.024-3.81 0 0 8.835-7.934 11.563-8.299a14.853 14.853 0 00-11.526 3.342l-4.013 3.368a2.975 2.975 0 00-.367 4.19c.395.47.84.871 1.319 1.209z" fill="#ffc9c0"/><path d="M77.648 75.819v10.678c0 1.473-.996 2.71-2.35 3.085v12.71A52.137 52.137 0 0153.58 107c-5.22 0-10.259-.764-15.015-2.186V89.582a3.204 3.204 0 01-2.35-3.085V75.82a3.204 3.204 0 013.204-3.204h35.026a3.203 3.203 0 013.204 3.204z" fill="#ff393a"/><path d="M49.094 96.108h26.204v6.186A52.12 52.12 0 0153.58 107a52.68 52.68 0 01-7.688-.561v-7.128a3.203 3.203 0 013.203-3.203zm25.35-23.493H46.678a3.204 3.204 0 00-3.204 3.204v10.678a3.204 3.204 0 003.204 3.204h27.764a3.204 3.204 0 003.204-3.204V75.82a3.204 3.204 0 00-3.204-3.204z" fill="#ff6466"/><path d="M83.615 12.388l-.296 3.01a1.978 1.978 0 01-1.672.598l-1.968-.24a1.983 1.983 0 01-1.728-2.21l.24-1.968a3.947 3.947 0 011.19-2.377 6.962 6.962 0 011.53-.036 2.975 2.975 0 012.704 3.223zM26.983 39.81c-.057-.002-.113-.005-.17-.005a2.975 2.975 0 00-2.975 2.975v4.01c.236.1.495.155.767.155h1.983a1.984 1.984 0 001.984-1.983v-1.984a3.959 3.959 0 00-1.589-3.168zm39.63-36.941c-.258.022-.51.06-.759.11a3.965 3.965 0 00-1.671 3.737l.241 1.968a1.983 1.983 0 002.21 1.727l1.97-.242a1.981 1.981 0 001.536-1.093l-.306-3.504a2.974 2.974 0 00-3.222-2.703zm-38.158 27.02a1.98 1.98 0 00-1.665-.588l-2.195 1.842a2.974 2.974 0 00-.367 4.19c.42.5.896.924 1.41 1.274a3.95 3.95 0 002.72-1.109l1.426-1.377c.787-.762.81-2.017.049-2.805zM52.055.103c-.048.013-.095.029-.143.043a3.955 3.955 0 00-.48 3.237l.547 1.906a1.983 1.983 0 002.453 1.36l1.906-.547c.145-.041.28-.1.406-.168L55.7 2.206A2.976 2.976 0 0052.055.102z" fill="#ffeee6"/></g></svg>