<svg fill="none" height="107" viewBox="0 0 107 107" width="107" xmlns="http://www.w3.org/2000/svg" xmlns:xlink="http://www.w3.org/1999/xlink"><clipPath id="a"><path d="m0 0h107v107h-107z"/></clipPath><g clip-path="url(#a)"><path d="m105.904 54.6746c0 28.8985-23.4264 52.3254-52.3249 52.3254-28.8986 0-52.32519-23.4269-52.32519-52.3254 0-28.8986 23.42659-52.32517 52.32519-52.32517 28.8985 0 52.3249 23.42657 52.3249 52.32517z" fill="#339dff"/><path d="m41.619 13.8827v2.8254c0 1.769-1.4343 3.2033-3.2033 3.2033s-3.2034-1.4343-3.2034-3.2033v-2.8254c0-1.7698 1.4344-3.2042 3.2034-3.2042s3.2033 1.4344 3.2033 3.2042zm-17.3073 3.458c-1.1372-1.3551-3.1576-1.5322-4.5136-.3943-1.3551 1.1372-1.5314 3.1577-.3943 4.5128l2.1429 2.5543c1.1372 1.356 3.1585 1.5323 4.5136.3952 1.3551-1.1372 1.5323-3.1577.3951-4.5128zm-7.4239 14.744-4.1837-.7379c-1.7421-.307-3.40418.8563-3.71113 2.5984-.30694 1.7429.85635 3.4042 2.59843 3.7111l4.183.738c1.7429.3069 3.4041-.8564 3.7119-2.5984.3069-1.7429-.8564-3.4042-2.5985-3.7112z" fill="#7074c5" fill-opacity=".3"/><path d="m83.615 12.3881-2.1837 22.1907c-.0474.5421-.2025 1.049-.4408 1.5013-.0368.1657-.0809.3306-.1405.4938l-9.4418 23.5304v23.1891h-27.7647v-10.1766c0-5.2719-3.5413-9.8875-8.6345-11.2525-6.5887-1.7649-11.1709-7.7365-11.1709-14.5579v-4.5266c0-1.6425 1.3315-2.9748 2.9748-2.9748 3.8335 0 6.9414 3.1079 6.9414 6.9414v.4172c0 2.418 1.6237 4.534 3.9584 5.1593 3.3928.9094 6.7243-1.6466 6.7243-5.1593v-6.1683c0-2.3389-1.1952-4.5144-3.1683-5.7691-2.0702-1.3168-4.7552-1.1397-6.6352.4375l-.6262.5249c-2.9364 2.4646-7.3144 2.0809-9.779-.8555-1.0555-1.2588-.8914-3.1348.3674-4.1911l4.0123-3.3666c4.9291-4.1364 11.9603-4.6287 17.4184-1.2213l4.4931 2.8058c.1723.1078.3707.1641.5731.1641h.0008c.596 0 1.0801-.4817 1.0817-1.0776v-.0441c.0033-1.2963-.1649-2.587-.5004-3.8392l-4.5267-15.95959c-.9926-3.70294 1.205-7.50956 4.9079-8.501421 1.587-.425316 3.218.516747 3.6434 2.103721l5.0678 18.07229c.0653.2326.4098.1698.3886-.0702l-.8531-9.8199c-.3339-3.81882 2.4915-7.18543 6.3104-7.51932 1.6359-.14286 3.0792 1.06697 3.2221 2.70374l1.9078 21.87808c.0204.2392.369.2424.3943.0032l1.2547-11.979c.3339-3.8189 3.7013-6.64343 7.5202-6.30955 1.6351.14368 2.8466 1.58615 2.7029 3.22295z" fill="#ffdfcf"/><path d="m82.0443 9.49896c-2.5372.85304-3.7944 2.59194-5.3561 5.78954l-3.5943 15.5881c-.0253.2392-1.2752.058-1.2956-.1812l1.5241-15.1563c.1078-1.0057.396-1.9902.898-2.8686 1.5715-2.74949 4.4516-3.70134 6.69-3.50542.4098.03592.7918.15265 1.1339.33388zm-37.6074 31.49624v6.1691c0 2.2972-1.4254 4.1846-3.3609 4.9618.1894.0751.3829.1436.5829.1975 3.3927.9086 6.7242-1.6474 6.7242-5.1593v-6.1691c0-2.338-1.1951-4.5144-3.1682-5.7691-1.5209-.9674-3.3724-1.1258-4.9936-.5176.3608.1355.7126.3045 1.0473.5176 1.9732 1.2547 3.1683 3.4311 3.1683 5.7691zm22.1752-38.12659c-.1061.00898-.7355.11837-.84.13225-3.1095.41388-5.5438 3.42538-5.4932 6.56178l1.6098 19.75966c.0653.2318 1.1511.2041 1.1307-.0359l.7779-18.8601c.6702-3.33066 1.9919-5.94215 4.7283-7.06544-.5445-.36409-1.2106-.55348-1.9135-.49225zm-26.5639 55.82329c-6.5895-1.7657-11.708-7.7373-11.708-14.5587 0 0-.809-4.3274-1.5274-4.3274-1.6433 0-2.9748 1.3314-2.9748 2.9747v4.5259c0 6.8213 4.5822 12.7929 11.1709 14.5587 5.0932 1.3641 8.6345 5.9797 8.6345 11.2525v10.1757h5.0393v-13.3489c0-5.2727-3.5413-9.8884-8.6345-11.2525zm12.9228-58.6674387c-.3021-.01469432-.6123.0146941-.9209.0971447-3.7021.992674-5.8997 4.798474-4.9079 8.501414l3.4067 20.75558 1.3747.7714c.1722.107.3706.1641.5731.1641h.0008c.5959 0 1.08-.4824 1.0816-1.0784v-.044c.0033-1.2956-1.3984-23.74181-1.3984-23.74181-.5126-1.91596-.1706-3.85805.7903-5.4254287zm-27.4244 36.5175387c.6523-1.2139 2.7928-3.6156 3.0246-3.8099 0 0 8.8345-7.934 11.5627-8.2989-4.0515-.5421-8.2524.5951-11.526 3.3421l-4.0131 3.3674c-1.258 1.0556-1.4229 2.9323-.3665 4.1911.3942.4694.84.8703 1.3183 1.2082z" fill="#ffc9c0"/><path d="m77.6477 75.8187v10.6786c0 1.4727-.9959 2.7103-2.3494 3.085v12.7097c-6.6157 3.022-13.9701 4.708-21.7189 4.708-5.2197 0-10.259-.764-15.0158-2.186v-15.2317c-1.3535-.3747-2.3495-1.6123-2.3495-3.085v-10.6786c0-1.769 1.4343-3.2033 3.2042-3.2033h35.0253c1.7698-.0008 3.2041 1.4335 3.2041 3.2033z" fill="#ff393a"/><path d="m49.0942 96.1082h26.2039v6.1858c-6.6157 3.023-13.9701 4.706-21.7189 4.706-2.6123 0-5.1788-.191-7.6883-.561v-7.1275c0-1.769 1.4343-3.2033 3.2033-3.2033zm25.3492-23.4936h-27.7639c-1.769 0-3.2042 1.4343-3.2042 3.2041v10.6786c0 1.769 1.4352 3.2034 3.2042 3.2034h27.7639c1.7698 0 3.2041-1.4344 3.2041-3.2034v-10.6786c0-1.7698-1.4343-3.2041-3.2041-3.2041z" fill="#ff6466"/><path d="m83.6149 12.3881-.2963 3.0107c-.418.4351-1.0262.6767-1.6719.5975l-1.9682-.2408c-1.0874-.1331-1.8605-1.1225-1.7274-2.209l.2408-1.969c.1159-.9429.5535-1.76662 1.1894-2.37643.4972-.06612 1.009-.08163 1.5291-.03592 1.6367.14368 2.8482 1.58615 2.7045 3.22295zm-56.6315 27.4218c-.0571-.0016-.1135-.0049-.1706-.0049-1.6433 0-2.9748 1.3323-2.9748 2.9748v4.0107c.236.0996.4947.1543.7674.1543h1.9829c1.0955 0 1.9837-.8882 1.9837-1.9829v-1.9837c-.0008-1.2964-.6261-2.445-1.5886-3.1683zm39.6287-36.94122c-.2572.02204-.5094.0596-.7576.10939-1.1665.81308-1.8572 2.22781-1.6719 3.73805l.2417 1.96821c.1339 1.08737 1.1233 1.86047 2.2106 1.72657l1.9682-.2416c.689-.0849 1.2515-.51352 1.5372-1.09313l-.3061-3.50375c-.1429-1.63677-1.5854-2.8466-3.2221-2.70374zm-38.1568 27.02102c-.449-.4645-1.0702-.6604-1.6654-.5886l-2.1951 1.8417c-1.258 1.0555-1.4229 2.9323-.3665 4.1903.4196.4996.8955.9241 1.409 1.2743.9804-.009 1.9592-.3747 2.72-1.1094l1.4262-1.3772c.7878-.7616.8098-2.0163.049-2.8049zm23.5997-29.787611c-.0482.013062-.0947.028572-.1429.04245-.5959.927371-.8073 2.094741-.48 3.237621l.547 1.90617c.302 1.05309 1.4 1.66126 2.4531 1.35921l1.9062-.54695c.1445-.04081.2792-.09877.4057-.16735l-1.0449-3.72743c-.4262-1.586974-2.0572-2.529037-3.6442-2.103721z" fill="#ffeee6"/></g></svg>