<svg fill="none" height="435" viewBox="0 0 472 435" width="472" xmlns="http://www.w3.org/2000/svg"><rect fill="#f9f9ff" height="435" rx="5" width="472"/><g fill="#2d3c88" opacity=".1"><path d="m303.369 276.485-126.853-126.852c-2.177-2.177-5.706-2.177-7.883 0s-2.177 5.706 0 7.883l126.852 126.853c1.089 1.088 2.516 1.633 3.942 1.633 1.427 0 2.854-.545 3.942-1.633 2.176-2.177 2.176-5.707 0-7.884z"/><path d="m287.894 263.32h-103.788c-3.285 0-5.958-2.673-5.958-5.958v-63.426c0-3.285 2.673-5.957 5.958-5.957h17.297c3.079 0 5.575-2.496 5.575-5.575 0-3.078-2.496-5.574-5.575-5.574h-17.297c-9.433 0-17.107 7.673-17.107 17.106v63.426c0 9.433 7.674 17.107 17.107 17.107h103.788c3.079 0 5.574-2.496 5.574-5.575 0-3.078-2.495-5.574-5.574-5.574z"/><path d="m287.894 176.83h-20.08l-9.877-14.816c-1.034-1.551-2.775-2.483-4.639-2.483h-34.596c-3.079 0-5.575 2.496-5.575 5.575 0 3.078 2.496 5.574 5.575 5.574h31.613l9.876 14.816c1.035 1.551 2.775 2.482 4.639 2.482h23.064c3.285 0 5.957 2.673 5.957 5.958v53.854c0 3.079 2.496 5.575 5.575 5.575s5.574-2.496 5.575-5.575v-53.854c0-9.432-7.674-17.106-17.107-17.106z"/><path d="m258.061 231.312c-2.541-1.739-6.01-1.089-7.749 1.452-5.446 7.959-16.352 10.004-24.311 4.558s-10.003-16.352-4.557-24.311c1.228-1.795 2.761-3.328 4.557-4.557 2.541-1.739 3.191-5.208 1.453-7.749-1.739-2.541-5.209-3.191-7.749-1.452-2.94 2.012-5.451 4.523-7.463 7.462-8.917 13.033-5.569 30.891 7.463 39.808 4.935 3.377 10.559 4.994 16.131 4.994 9.141 0 18.136-4.359 23.677-12.456 1.739-2.541 1.088-6.01-1.452-7.749z"/></g></svg>