<svg fill="none" height="435" width="472" xmlns="http://www.w3.org/2000/svg"><rect fill="#f9f9ff" height="435" rx="5" width="472"/><g fill="#2d3c88" opacity=".1"><path d="M303.369 276.485L176.516 149.633a5.574 5.574 0 10-7.883 7.883l126.852 126.853a5.562 5.562 0 003.942 1.633 5.577 5.577 0 003.942-9.517z"/><path d="M287.894 263.32H184.106a5.965 5.965 0 01-5.958-5.958v-63.426a5.964 5.964 0 015.958-5.957h17.297a5.575 5.575 0 100-11.149h-17.297c-9.433 0-17.107 7.673-17.107 17.106v63.426c0 9.433 7.674 17.107 17.107 17.107h103.788a5.574 5.574 0 000-11.149zm0-86.49h-20.08l-9.877-14.816a5.576 5.576 0 00-4.639-2.483h-34.596a5.575 5.575 0 100 11.149h31.613l9.876 14.816a5.576 5.576 0 004.639 2.482h23.064a5.964 5.964 0 015.957 5.958v53.854a5.575 5.575 0 1011.15 0v-53.854c0-9.432-7.674-17.106-17.107-17.106z"/><path d="M258.061 231.312a5.574 5.574 0 00-7.749 1.452c-5.446 7.959-16.352 10.004-24.311 4.558s-10.003-16.352-4.557-24.311a17.415 17.415 0 014.557-4.557 5.576 5.576 0 00-6.296-9.201 28.55 28.55 0 00-7.463 7.462c-8.917 13.033-5.569 30.891 7.463 39.808a28.47 28.47 0 0016.131 4.994c9.141 0 18.136-4.359 23.677-12.456a5.575 5.575 0 00-1.452-7.749z"/></g></svg>